<svg xmlns="http://www.w3.org/2000/svg" width="226.493" height="68.382" viewBox="0 0 226.493 68.382">
  <g id="logo_onbox" data-name="logo onbox" transform="translate(-59.17 -90.42)">
    <path id="Trazado_260" data-name="Trazado 260" d="M25.856-56.887a21.845,21.845,0,0,1-10.9-2.792A20.9,20.9,0,0,1,7.081-67.4,21.439,21.439,0,0,1,4.17-78.513a21.439,21.439,0,0,1,2.911-11.11,20.679,20.679,0,0,1,7.872-7.694,22.03,22.03,0,0,1,10.9-2.763,21.864,21.864,0,0,1,10.872,2.763,20.524,20.524,0,0,1,7.813,7.694,21.61,21.61,0,0,1,2.882,11.11A21.61,21.61,0,0,1,44.541-67.4,20.681,20.681,0,0,1,36.7-59.679,21.73,21.73,0,0,1,25.856-56.887Zm0-12.3a7.5,7.5,0,0,0,6.06-2.525,10.181,10.181,0,0,0,2.139-6.8,10.276,10.276,0,0,0-2.139-6.862,7.5,7.5,0,0,0-6.06-2.525,7.575,7.575,0,0,0-6.119,2.525A10.276,10.276,0,0,0,17.6-78.513a10.181,10.181,0,0,0,2.139,6.8A7.575,7.575,0,0,0,25.856-69.185ZM92.516-57.3H79.327L65.365-78.454V-57.3H52.175V-99.367h13.19L79.327-77.86V-99.367h13.19Z" transform="translate(55 191)" fill="#4dbfa8"/>
    <path id="Trazado_261" data-name="Trazado 261" d="M-2085.865-20.807a22.976,22.976,0,0,1-5.7-.7,21.5,21.5,0,0,1-5.206-2.094,21.178,21.178,0,0,1-4.449-3.327,21.388,21.388,0,0,1-3.424-4.4,20.561,20.561,0,0,1-2.183-5.243,23.155,23.155,0,0,1-.728-5.867,23.155,23.155,0,0,1,.728-5.867,20.562,20.562,0,0,1,2.183-5.243,21.208,21.208,0,0,1,3.424-4.389,20.9,20.9,0,0,1,4.449-3.3,21.624,21.624,0,0,1,5.206-2.072,23.211,23.211,0,0,1,5.7-.691,23.121,23.121,0,0,1,5.689.691,21.4,21.4,0,0,1,5.184,2.072,20.729,20.729,0,0,1,4.419,3.3,21.092,21.092,0,0,1,3.394,4.389,20.678,20.678,0,0,1,2.161,5.243,23.4,23.4,0,0,1,.72,5.867,23.4,23.4,0,0,1-.72,5.867,20.677,20.677,0,0,1-2.161,5.243,21.109,21.109,0,0,1-3.4,4.4,21,21,0,0,1-4.441,3.327,21.549,21.549,0,0,1-5.191,2.094A22.677,22.677,0,0,1-2085.865-20.807Zm-.349-10.941c.079,0,.159,0,.238.005l.03,0h.031a9.478,9.478,0,0,1,4.116,1.335,8.515,8.515,0,0,0,3.73,1.23,3.937,3.937,0,0,0,.853-.092,3.077,3.077,0,0,0,2.469-2.174c.473-1.783-.67-4.082-3.137-6.3a23.478,23.478,0,0,1-2.6-2.866c-1.45-1.8-2.6-3.223-5.045-3.35h-.03c-2.433,0-3.668,1.35-5.233,3.06a23.885,23.885,0,0,1-2.792,2.714c-2.625,2.091-3.92,4.329-3.552,6.14a3.036,3.036,0,0,0,2.313,2.286,3.966,3.966,0,0,0,1.081.146,9.229,9.229,0,0,0,3.569-1.024l.1-.042A9.881,9.881,0,0,1-2086.214-31.748Zm14.334-17.7a4.72,4.72,0,0,0-2.893,1.2,8.528,8.528,0,0,0-2.314,3.13,6.4,6.4,0,0,0-.3,5.019,2.723,2.723,0,0,0,1.656,1.544,2.81,2.81,0,0,0,.854.13,4.718,4.718,0,0,0,2.892-1.2,8.528,8.528,0,0,0,2.314-3.131,6.4,6.4,0,0,0,.3-5.019,2.724,2.724,0,0,0-1.656-1.544A2.807,2.807,0,0,0-2071.879-49.447Zm-27.169-.843a2.757,2.757,0,0,0-.462.039,2.766,2.766,0,0,0-1.882,1.314,6.356,6.356,0,0,0-.423,4.974c.787,2.858,2.913,5.013,4.946,5.013a2.745,2.745,0,0,0,.462-.039,2.767,2.767,0,0,0,1.882-1.314,6.356,6.356,0,0,0,.423-4.973C-2094.89-48.135-2097.016-50.29-2099.048-50.29Zm19.534-7.534a4.172,4.172,0,0,0-3.037,1.543,7.682,7.682,0,0,0-1.773,3.848,6.7,6.7,0,0,0,.978,5.014,3.313,3.313,0,0,0,2.259,1.385,3.1,3.1,0,0,0,.376.023,4.173,4.173,0,0,0,3.038-1.543A7.686,7.686,0,0,0-2075.9-51.4a6.694,6.694,0,0,0-.978-5.014,3.311,3.311,0,0,0-2.259-1.385A3.112,3.112,0,0,0-2079.514-57.823Zm-11.113-.329h-.037a3.362,3.362,0,0,0-2.419,1.134,6.738,6.738,0,0,0-1.57,4.863,7.476,7.476,0,0,0,1.416,4.172,3.9,3.9,0,0,0,3.058,1.722h.038a3.363,3.363,0,0,0,2.419-1.134,6.737,6.737,0,0,0,1.57-4.863,7.475,7.475,0,0,0-1.416-4.172A3.9,3.9,0,0,0-2090.627-58.152Zm43.737,36.929h-15.031l13.843-21.686-14.437-20.379h15.625l7.427,10.516,6.179-10.516h15.031l-13.605,21.27,14.734,20.794h-15.626l-7.724-10.932-6.417,10.932Zm-78.068,0H-2147V-63.287h21.447a21.647,21.647,0,0,1,5.733.7,12.84,12.84,0,0,1,4.367,2.094,8.862,8.862,0,0,1,2.763,3.431,11.37,11.37,0,0,1,.921,4.709,11.437,11.437,0,0,1-.483,3.394,9.033,9.033,0,0,1-1.448,2.814,9.1,9.1,0,0,1-2.25,2.1,9.729,9.729,0,0,1-2.889,1.255,11.314,11.314,0,0,1,3.379,1.359,9.371,9.371,0,0,1,2.532,2.295,10.137,10.137,0,0,1,1.582,2.978,10.852,10.852,0,0,1,.527,3.409,12.38,12.38,0,0,1-.913,4.894,9.506,9.506,0,0,1-2.74,3.631,12.257,12.257,0,0,1-4.449,2.25A22.109,22.109,0,0,1-2124.958-21.223Zm-8.852-16.517V-31.8h6a4.244,4.244,0,0,0,2.645-.683,2.689,2.689,0,0,0,.861-2.228,2.853,2.853,0,0,0-.876-2.273,3.946,3.946,0,0,0-2.629-.758Zm0-15.091v5.941h5.109a4.112,4.112,0,0,0,2.644-.713,2.7,2.7,0,0,0,.862-2.2,2.871,2.871,0,0,0-.862-2.287,3.992,3.992,0,0,0-2.644-.743Z" transform="translate(2301.82 154.92)" fill="#ff9b39" stroke="rgba(0,0,0,0)" stroke-width="1"/>
    <path id="Trazado_262" data-name="Trazado 262" d="M2.957-20.359q-.415-.231-.45-.508a2.1,2.1,0,0,1,.312-.969q.346-.692,1.085-2.147.554-1.039.819-1.627a6.687,6.687,0,0,0,.335-.842,1.722,1.722,0,0,0,.069-.323.4.4,0,0,1,.046-.335.724.724,0,0,1,.3-.219q.115-.115.439-.415a2.867,2.867,0,0,0,.554-.716q.208-.485.473-.992t.727-1.281q.462-.773,1.2-2.02.462-.808,1.039-1.708t1.2-1.731a3.606,3.606,0,0,1,.485-.519.587.587,0,0,1,.439-.173,1.724,1.724,0,0,1,.762.208,2.7,2.7,0,0,1,.739.542,2.137,2.137,0,0,1,.462.681,1.6,1.6,0,0,1,.092.785q-.023.6-.092,1.454t-.162,1.823q-.069.946-.208,2.239t-.265,2.7q-.127,1.408-.2,2.712a18.578,18.578,0,0,0,0,2.273,1.672,1.672,0,0,1,0,.392,2.524,2.524,0,0,0-.023.3.664.664,0,0,1-.5.127,1.962,1.962,0,0,1-.692-.15q-.335-.138-.381-.346a.344.344,0,0,1-.092-.173,2.556,2.556,0,0,1,0-.508q.023-.4.069-1.373l.115-3.67-.3.023q-.208,0-.773.046t-1.223.127q-.658.081-1.212.162a5.166,5.166,0,0,0-.762.15.8.8,0,0,0-.5.277,3.224,3.224,0,0,0-.542.716,2.416,2.416,0,0,1-.335.681,1.232,1.232,0,0,0-.242.473,1.009,1.009,0,0,0-.265.277l-.1.162a2.726,2.726,0,0,1-.219.681q-.219.542-.531,1.2a9.055,9.055,0,0,1-.635,1.143l-.531.785Zm5.032-7.594L8.231-28q.242-.046.589-.1a3.828,3.828,0,0,1,.623-.058q.831-.208,1.235-.289a3.4,3.4,0,0,1,.6-.081.742.742,0,0,1,.335.069.379.379,0,0,0,.173.138l.081.023a3.675,3.675,0,0,0,.081-.519q.058-.473.138-1.166t.162-1.443q.081-.75.138-1.385t.081-.981q.023-.439.023-.8v-.358q-.138,0-.565.5a11.888,11.888,0,0,0-.958,1.327q-.531.831-1.016,1.777a8.516,8.516,0,0,1-.439.75q-.208.312-.323.312a3.469,3.469,0,0,0-.254.392q-.208.346-.45.773t-.4.773Q7.919-28,7.989-27.953Zm13.549,7.271a.614.614,0,0,1-.531-.1.908.908,0,0,1-.323-.45,4.92,4.92,0,0,1-.231-1,5.707,5.707,0,0,1-.046-1l.023-.577-.923.762a5.957,5.957,0,0,1-1.489,1,3.163,3.163,0,0,1-1.258.312,1.443,1.443,0,0,1-.542-.242,2.911,2.911,0,0,1-.519-.45,2.2,2.2,0,0,1-.346-.485,1.831,1.831,0,0,1-.081-.889,5.935,5.935,0,0,1,.277-1.235A8.849,8.849,0,0,1,16.1-26.36a5.323,5.323,0,0,1,.773-1.131,3.145,3.145,0,0,1,1.72-1.419,2.3,2.3,0,0,1,1.835.242,1.761,1.761,0,0,0,.692.208q.162-.023.254-.462.092-.369.2-.727t.312-1q.577-1.754,1-2.747t.773-1.731a1.986,1.986,0,0,1,.45-.681.519.519,0,0,1,.381-.127.911.911,0,0,1,.519.185,1.017,1.017,0,0,1,.381.508.81.81,0,0,1,.081.381,1.1,1.1,0,0,1-.15.427q-.3.554-.7,1.466t-.808,2q-.4,1.085-.75,2.147t-.577,1.87a9.076,9.076,0,0,0-.231,1.293q-.092.785-.15,1.6t-.058,1.454a4.377,4.377,0,0,0,.046.819,1.421,1.421,0,0,1,.081.692.443.443,0,0,1-.219.312A1.171,1.171,0,0,1,21.537-20.682ZM17.66-23.314a2.762,2.762,0,0,0,.623-.265,7.135,7.135,0,0,0,.646-.427,12.858,12.858,0,0,0,1.131-.958,2.286,2.286,0,0,0,.6-1.212,1.211,1.211,0,0,0-.046-.681,1.364,1.364,0,0,0-.392-.5,1.037,1.037,0,0,0-.7-.15,1.674,1.674,0,0,0-.958.5,5.708,5.708,0,0,0-1.027,1.3,6.577,6.577,0,0,0-.727,2.043.3.3,0,0,0,.138.346A1.076,1.076,0,0,0,17.66-23.314ZM26.13-21.4a.844.844,0,0,1-.473-.115q-.173-.115-.427-.323a3.609,3.609,0,0,1-.658-.923,1.409,1.409,0,0,1-.15-.854.851.851,0,0,0,.058-.358l-.012-.173q-.115-.115-.069-.15a.359.359,0,0,0,.092-.127q.138,0,.092-.254a1.886,1.886,0,0,1,.173-.808,5.923,5.923,0,0,1,.565-1.177q.138-.231.415-.612t.612-.762a5.7,5.7,0,0,1,.612-.612A6.662,6.662,0,0,1,28-29.384a3.707,3.707,0,0,1,.969-.369,3.887,3.887,0,0,1,.819-.115.954.954,0,0,1,.658.369,1.693,1.693,0,0,1,.762.577,2.185,2.185,0,0,1,.3.969,5.537,5.537,0,0,1-.115,1.616A6.339,6.339,0,0,1,30.285-24.1,6.482,6.482,0,0,1,29.2-22.84a8.522,8.522,0,0,1-1.177.819,3.385,3.385,0,0,1-.923.45A5.068,5.068,0,0,1,26.13-21.4Zm2.262-2.585a5.353,5.353,0,0,0,.831-1.1,8.549,8.549,0,0,0,.577-1.35,1.942,1.942,0,0,0,.115-.589,5.023,5.023,0,0,0,0-.681q-.023-.323-.162-.369a.8.8,0,0,0-.589-.1,1.685,1.685,0,0,0-.75.4,6.356,6.356,0,0,0-1.258,1.443,10.232,10.232,0,0,0-.958,1.95,1.593,1.593,0,0,0-.058,1.166q.2.427.785.289A3.446,3.446,0,0,0,28.392-23.983Zm4.362,6.971a.526.526,0,0,1-.6-.058,1.309,1.309,0,0,1-.45-.646,1.308,1.308,0,0,1,.012-.889q.046-.138.138-.45a3.005,3.005,0,0,0,.115-.542,4.258,4.258,0,0,1,.138-.542q.115-.381.265-.75a4.878,4.878,0,0,1,.242-.531,1.616,1.616,0,0,0,.2-.531,2.64,2.64,0,0,0,.058-.462q.046-.162.127-.369a1.243,1.243,0,0,1,.173-.323,2.805,2.805,0,0,1,.138-.4,1.966,1.966,0,0,1,.208-.381,3.158,3.158,0,0,0,.081-.392q.035-.231.127-.254a1.556,1.556,0,0,0,.035-.185,1.023,1.023,0,0,1,.081-.254,5.9,5.9,0,0,1,.208-.739q.162-.485.392-1.062a3.984,3.984,0,0,0,.277-1.246q.023-.577-.323-.716a.425.425,0,0,1-.231-.312.81.81,0,0,1,.046-.462.492.492,0,0,1,.277-.312,1.009,1.009,0,0,1,.462-.081,3.9,3.9,0,0,1,.462.046q.208.035.185.081a.128.128,0,0,0,.115.138q.046-.069.2.173a5.671,5.671,0,0,1,.289.531,1.156,1.156,0,0,1,.138.4.577.577,0,0,0-.046.1q0,.012.092.012l.254-.127q.254-.127.542-.3a2.236,2.236,0,0,0,.381-.265l.127-.058a.739.739,0,0,0,.219-.15,1.7,1.7,0,0,1,1-.069,1.79,1.79,0,0,1,.866.415,2.508,2.508,0,0,1,.554,1.212,2.817,2.817,0,0,1-.231,1.443,3.714,3.714,0,0,1-.2.381q-.15.265-.289.485l-.138.219a5.641,5.641,0,0,1-1.223,1.385,10.645,10.645,0,0,1-1.431.969,2.141,2.141,0,0,1-.531.265,3.028,3.028,0,0,1-.531.138.5.5,0,0,1-.3-.012,1.633,1.633,0,0,1-.462-.785q-.115.3-.219.589t-.127.381q-.023.162-.046.265a.291.291,0,0,1-.115.173l-.023.092a.93.93,0,0,1-.162.277q-.231.669-.4,1.119t-.277.773q-.1.323-.173.6a4.968,4.968,0,0,1-.265,1.258Q32.962-17.1,32.755-17.012Zm2.977-6.878q.092-.046.381-.231t.646-.45q.358-.265.669-.508a2.982,2.982,0,0,0,.427-.381,2.343,2.343,0,0,0,.3-.415,2.666,2.666,0,0,0,.208-.508q.069-.185.162-.415t.162-.439a.742.742,0,0,0,.081-.381.5.5,0,0,0-.15-.335,1.412,1.412,0,0,0-.508.115,4.835,4.835,0,0,0-.935.45,3.433,3.433,0,0,0-.935.842,4.044,4.044,0,0,0-.681,1.235,2.347,2.347,0,0,0-.138,1.016Q35.478-23.891,35.732-23.891ZM43.58-19.9a1.356,1.356,0,0,1-1.166-.577,2.236,2.236,0,0,1-.15-1.431,3.933,3.933,0,0,0,.173-.8q.035-.358.2-.45l.035-.069a.113.113,0,0,0-.035-.138,2.475,2.475,0,0,1,.208-.831q.046-.138.127-.335l.081-.2q-.115-.185,0-.3t.242-.219a.151.151,0,0,0,.012-.242q-.046-.092.115-.427t.369-.7a3.64,3.64,0,0,0,.277-.577,1.637,1.637,0,0,1,.115-.323q.115-.277.277-.646t.312-.669l.2-.392q.231-.115-.185-.162a5.47,5.47,0,0,0-.877-.023q-.716-.023-1.143-.069a1.768,1.768,0,0,1-.7-.208q-.277-.323-.15-.577t.589-.277q.3-.023.473-.023a4.074,4.074,0,0,0,.462-.035q.289-.035.912-.1l1.177-.092.069-.392q.185-.3.289-.485a2.249,2.249,0,0,0,.173-.392,3.218,3.218,0,0,0,.115-.485l.208-.381a2.144,2.144,0,0,0,.254-.8q.277-.462.485-.842t.254-.473a.962.962,0,0,1,.5-.346.908.908,0,0,1,.542.208,1.714,1.714,0,0,1,.381.289.776.776,0,0,1,.219.369.538.538,0,0,1-.162.45q-.046.092-.138.335t-.138.4a3.228,3.228,0,0,0-.335.519,2.445,2.445,0,0,0-.265.727q-.185.392-.312.635t-.219.242a.243.243,0,0,0,.277.219l.762-.035a3.3,3.3,0,0,0,.612-.1.526.526,0,0,1,.4.058,1.145,1.145,0,0,1,.173.4.891.891,0,0,1,0,.45.392.392,0,0,1-.219.277,1.866,1.866,0,0,0-.473.127,3.089,3.089,0,0,1-.889.15l-1.223.115-.392.785q-.162.3-.277.542a1.4,1.4,0,0,1-.162.289,1.006,1.006,0,0,1-.15.415q-.15.277-.312.6a5.13,5.13,0,0,1-.312.716l-.173.323q-.092,0-.092.138a.316.316,0,0,1-.069.415.6.6,0,0,0-.2.2L44.641-25a.2.2,0,0,1,.035.231,2.72,2.72,0,0,1-.15.3,2.017,2.017,0,0,1-.1.531q-.1.346-.219.646a5.035,5.035,0,0,0,.046.531q.023.115.115.092a.642.642,0,0,0,.242,0,1.251,1.251,0,0,1,.219-.023q.346-.138-.323,1.616-.369.577-.589.877T43.58-19.9ZM51.1-21.675a1.78,1.78,0,0,1-.485.035,2.427,2.427,0,0,1-.519-.069q-.219-.058-.219-.127a.1.1,0,0,0-.115-.115l-.15-.127a1.481,1.481,0,0,0-.358-.219,1.459,1.459,0,0,1-.231-.716,4.727,4.727,0,0,1,.231-1.316,3.949,3.949,0,0,1,.439-1.419,11.653,11.653,0,0,1,.958-1.593,11.733,11.733,0,0,1,1.189-1.431,5.8,5.8,0,0,1,1.131-.935,1.18,1.18,0,0,1,.808-.346,1.656,1.656,0,0,1,.9.208,1.681,1.681,0,0,1,.485.4,6.162,6.162,0,0,1,.473.612,4.407,4.407,0,0,1,.358.623,3.128,3.128,0,0,1,.092.45,4.131,4.131,0,0,1,.023.473,7.346,7.346,0,0,1-.069.831,8.027,8.027,0,0,0-.2.958,6.717,6.717,0,0,0-.081.981.854.854,0,0,0,.1.623q.15.185.45.023a.888.888,0,0,1,.554-.092.643.643,0,0,1,.415.219.575.575,0,0,1,.069.5,1.05,1.05,0,0,1-.323.577,2.615,2.615,0,0,1-.658.473,1.59,1.59,0,0,1-.727.2.644.644,0,0,1-.485-.277,2.945,2.945,0,0,1-.415-.692q-.185-.415-.323-.831l-.138-.531-.946.877q-.3.323-.589.589a2.251,2.251,0,0,0-.358.381,1.193,1.193,0,0,1-.439.4A5.644,5.644,0,0,1,51.1-21.675Zm.254-1.639a4.71,4.71,0,0,0,.831-.646,10.833,10.833,0,0,0,.854-.912q.415-.5.739-.958a5.844,5.844,0,0,0,.589-.946,4.093,4.093,0,0,0,.289-.808,2.5,2.5,0,0,0-.289-.542q-.2-.289-.358-.312a1.453,1.453,0,0,0-.969.554,11.928,11.928,0,0,0-1.062,1.293,3.422,3.422,0,0,0-.242.369q-.15.254-.289.473t-.185.289a3.263,3.263,0,0,0-.242.485q-.173.392-.335.8a1.894,1.894,0,0,0-.162.542,1.438,1.438,0,0,0,.035.3.267.267,0,0,0,.219.208A.894.894,0,0,0,51.358-23.314Zm14.287,1.131a3.658,3.658,0,0,1-.692-.808,3.48,3.48,0,0,1-.369-1.316,3.884,3.884,0,0,1,.092-1.119,11.253,11.253,0,0,1,.4-1.477,12.311,12.311,0,0,1,.589-1.431,3.718,3.718,0,0,1,.646-.981,1.311,1.311,0,0,1,.531-.439,1,1,0,0,1,.716.115,1.056,1.056,0,0,1,.254.7,1.583,1.583,0,0,1-.277.842,6.014,6.014,0,0,0-.8,1.558,9.311,9.311,0,0,0-.45,1.673,3.137,3.137,0,0,0-.185.981q.023.289.392.358a1.175,1.175,0,0,0,.992-.3,5.387,5.387,0,0,0,1.1-1.166,7.084,7.084,0,0,0,.889-1.673,3.592,3.592,0,0,0,.219-.762,3.083,3.083,0,0,1,.173-.646,1.463,1.463,0,0,1,.346-.692.927.927,0,0,1,.5-.277.5.5,0,0,1,.427.092.724.724,0,0,1,.312.242,1.219,1.219,0,0,1,.058.681,2.722,2.722,0,0,1-.369,1.454,7.473,7.473,0,0,0-.623,1.269,6.328,6.328,0,0,1-.635,1.1,9.458,9.458,0,0,1-.912,1.119,2.886,2.886,0,0,1-.923.692,2.348,2.348,0,0,1-1.2.427A3.373,3.373,0,0,1,65.645-22.183Zm15,.162a1.425,1.425,0,0,1-.773-.2,1.443,1.443,0,0,1-.519-.681,3.851,3.851,0,0,1-.127-.727,6.633,6.633,0,0,1-.023-.773,2.424,2.424,0,0,1,.058-.531.463.463,0,0,0,.058-.3q-.012-.208-.012-.415-.023-.439-.2-.5a.768.768,0,0,0-.519.1q-.439.254-1.073.669t-1.327.912q-.692.5-1.339,1.05a4.143,4.143,0,0,0-.658.866q-.15.312-.358.312a.308.308,0,0,1-.335-.012q-.15-.1-.381-.289-.162-.185-.346-.392a1.726,1.726,0,0,1-.231-.3,2.979,2.979,0,0,1,.069-.554q.069-.346.173-.692t.2-.577a.413.413,0,0,0,.2-.254,2.705,2.705,0,0,1,.242-.462,5.066,5.066,0,0,1,.254-.75q.185-.45.346-.819a6.606,6.606,0,0,0,.427-.969,5.215,5.215,0,0,0,.2-.923.2.2,0,0,1,.035-.173.177.177,0,0,1,.15-.081h.023a.516.516,0,0,1,.5-.081,1.17,1.17,0,0,1,.542.312,1.429,1.429,0,0,1,.369,1.131,4.61,4.61,0,0,1-.739,1.708q-.162.369-.265.6a.957.957,0,0,0-.1.346l.219-.15q.219-.15.508-.369t.473-.335a5.368,5.368,0,0,1,.531-.415q.415-.3.877-.612a3.694,3.694,0,0,1,.716-.4q.208-.115.473-.231a1.166,1.166,0,0,1,.358-.115,1.027,1.027,0,0,1,.508.185,3.76,3.76,0,0,1,.565.427.968.968,0,0,1,.312.427v.208a.858.858,0,0,0,.023.208,7.351,7.351,0,0,1,.058.842q.012.519-.012.969a1.408,1.408,0,0,1-.138.635l.012.046q.012.046.081.069v.115a.369.369,0,0,0-.012.254,1.459,1.459,0,0,0,.15.4q.115.219.231.4a.5.5,0,0,1,.046.542A.654.654,0,0,1,80.648-22.021Zm8.263.185a.8.8,0,0,0-.289-.312q-.2-.127-.2-.219a.759.759,0,0,0-.046-.231.579.579,0,0,0-.138-.231q-.115-.138.035-.646a9.666,9.666,0,0,1,.5-1.258q.346-.75.785-1.558a2.648,2.648,0,0,0,.369-.485,2.466,2.466,0,0,1,.277-.392.262.262,0,0,1,.069-.173.208.208,0,0,1,.162-.081l.046-.208a1.184,1.184,0,0,1,.254-.392q.231-.277.554-.612t.681-.646a4.464,4.464,0,0,1,.589-.45,2.038,2.038,0,0,1,1-.358,1.227,1.227,0,0,1,.889.265q.069.069.254.242t.439.392q.254.219.485.427l.854.762-.415,1.154a3.117,3.117,0,0,0-.15,1.616,4.018,4.018,0,0,0,.45,1.2,1.09,1.09,0,0,0,.415.45,1.526,1.526,0,0,0,.623.242.749.749,0,0,1,.346.138.423.423,0,0,1,.162.369.876.876,0,0,1-.127.519.562.562,0,0,1-.358.219A2.228,2.228,0,0,1,96-22.39a3.5,3.5,0,0,1-1.223-1.454,3.13,3.13,0,0,1-.242-.519,3.933,3.933,0,0,1-.173-.5q-.092.115-.312.381t-.358.4a10.557,10.557,0,0,1-2.816,2.2A1.958,1.958,0,0,1,88.911-21.836Zm.969-1.5q.046.115.5-.069a4.387,4.387,0,0,0,1.027-.646q.785-.669,1.489-1.35a9.525,9.525,0,0,0,1.189-1.373l.508-.831a1.811,1.811,0,0,0-.473-.716.744.744,0,0,0-.427-.185,1.482,1.482,0,0,0-.831.5A9.658,9.658,0,0,0,91.7-26.66,17.35,17.35,0,0,0,90.481-24.7a9.584,9.584,0,0,0-.427.923Zm9.533,1.362q-.069-.092-.185-.231a.4.4,0,0,1-.115-.231.725.725,0,0,0-.012-.115q-.012-.069-.1-.069-.069-.069.092-.531a11.4,11.4,0,0,1,.45-1.073q.289-.612.589-1.2t.508-.935a.32.32,0,0,0,.15-.2q.035-.127-.012-.127l.127-.219a1.582,1.582,0,0,1,.2-.289,2.854,2.854,0,0,0,.277-.658,1.246,1.246,0,0,0,.046-.565.169.169,0,0,0-.208-.069l-.115.046q-.092.023-.265.081a1.3,1.3,0,0,0-.312.15,1.441,1.441,0,0,1-.727.346q-.2-.023-.427-.577a.866.866,0,0,1-.069-.4.489.489,0,0,1,.185-.289,1.643,1.643,0,0,1,.381-.254,1.748,1.748,0,0,0,.289-.162,3.757,3.757,0,0,1,.519-.277,2.919,2.919,0,0,1,.358-.138,1.668,1.668,0,0,1,1.016-.046,1.038,1.038,0,0,1,.623.623,1.33,1.33,0,0,1,.323.866,2.589,2.589,0,0,1-.323,1.119l-.231.346q-.115.231-.035.231t.2-.162a2.252,2.252,0,0,1,.277-.277q.208-.185.277-.185l.058-.023q.058-.023.058-.185.069-.069.15-.138l.081-.069a.724.724,0,0,0,.323-.173q.231-.173.6-.473a.811.811,0,0,1,.462-.185.712.712,0,0,1,.866.346,2.35,2.35,0,0,1,.335,1.316l-.485,1.246.831-1.016a2.386,2.386,0,0,1,.289-.323q.15-.138.265-.231.046-.162.138-.185l.092-.023.046-.012q.046-.012.046-.081a2.1,2.1,0,0,1,.254-.173.451.451,0,0,0,.185-.173,1.233,1.233,0,0,1,.8-.058.988.988,0,0,1,.635.589,2.128,2.128,0,0,1,.219.485,2.5,2.5,0,0,1,.058.623q-.046.346-.081.519t-.058.358l-.069.554a.991.991,0,0,0-.1.392q-.012.208-.012.392a2.258,2.258,0,0,0,.023.4q.023.1.185.1a3.515,3.515,0,0,0,.773-.289,3.047,3.047,0,0,0,.727-.473.723.723,0,0,1,.612-.265.418.418,0,0,1,.335.335q.046.092-.127.415a4.53,4.53,0,0,1-.4.623q-.231.3-.346.3-.069,0-.2.15a1.021,1.021,0,0,1-.242.219q-.162.162-.312.3a.482.482,0,0,1-.335.138.547.547,0,0,0-.219.058.69.69,0,0,1-.289.058,1.345,1.345,0,0,1-.7-.069.859.859,0,0,1-.612-.646,5.793,5.793,0,0,1-.2-.762,3.01,3.01,0,0,1-.012-1.085,5.1,5.1,0,0,0,.115-.762,1.4,1.4,0,0,1,.092-.485v-.335q0-.265-.069-.265-.092,0-.4.3t-.727.762q-.415.462-.819.981t-.681.958a2.667,2.667,0,0,0-.369.623,1.318,1.318,0,0,1-.231.415.331.331,0,0,1-.439.046,1.143,1.143,0,0,1-.462-.439q-.069-.138-.115-.219a.5.5,0,0,1-.046-.242,2.265,2.265,0,0,1,.1-.531q.1-.369.335-1.085.254-.785.45-1.419l.2-.635q0-.092-.346.173t-.808.658q-.208.254-.635.716t-.958,1.073q-.531.612-1.062,1.327a5.86,5.86,0,0,1-.958,1.154Q99.667-21.652,99.413-21.975Zm14.8.369a.915.915,0,0,1-.716-.519,2.365,2.365,0,0,1-.346-1.027q.023-.185.058-.531t.081-.716q.092-.439.254-1.1t.335-1.316q.173-.658.312-1.143a5.166,5.166,0,0,1,.185-.577q.115-.231.45-.115a1.071,1.071,0,0,1,.542.415.925.925,0,0,1,.173.439,2.317,2.317,0,0,1-.069.739q-.1.485-.381,1.431-.254.923-.381,1.489a4.625,4.625,0,0,0-.1,1.189q-.092.877-.15,1.119T114.208-21.606Zm2.47-9.325a.235.235,0,0,1-.173.058.843.843,0,0,1-.265-.127.919.919,0,0,1-.4-.219,2.65,2.65,0,0,1-.415-.415.862.862,0,0,1-.173-.265,2.79,2.79,0,0,1,.035-.635,2.114,2.114,0,0,1,.254-.75.655.655,0,0,1,.542-.369.87.87,0,0,1,.242.046q.15.046.5.185a6.494,6.494,0,0,1,.358.819,1.906,1.906,0,0,1,.115.912A1.085,1.085,0,0,1,116.678-30.93Zm3.508,14.264a1.944,1.944,0,0,1-1,.115,3.167,3.167,0,0,1-1.108-.358,3.9,3.9,0,0,1-.935-.681,1.944,1.944,0,0,1-.346-.508,2.817,2.817,0,0,1-.231-.623q-.069-.3.046-.369a.426.426,0,0,1,.323-.069,1.849,1.849,0,0,1,.381.081q.173.058.173.15a6.141,6.141,0,0,0,.5.381,1.669,1.669,0,0,0,.5.265,1.371,1.371,0,0,0,.681.115,1.045,1.045,0,0,0,.45-.208,2.282,2.282,0,0,0,.485-.739,8.9,8.9,0,0,0,.369-1.131l.069-.3q.208-.946.45-1.939t.4-1.523a1.1,1.1,0,0,0,0-.462q-.046-.115-.185.069-.115.046-.254.115a3.389,3.389,0,0,1-.323.138,3.9,3.9,0,0,1-.542.265,3.819,3.819,0,0,1-.45.15,1.725,1.725,0,0,1-.369.046h-.185a1.1,1.1,0,0,1-.646-.081,2.3,2.3,0,0,1-.762-.427,2.8,2.8,0,0,1-.3-.427,1.035,1.035,0,0,1-.115-.369,4.913,4.913,0,0,1-.023-.542,2.608,2.608,0,0,1,.358-1.119,6.873,6.873,0,0,1,.981-1.466A6.79,6.79,0,0,1,119.713-29a10.191,10.191,0,0,1,1.419-.762,2.8,2.8,0,0,1,1.2-.289l.358.046a.822.822,0,0,1,.381.185,1.692,1.692,0,0,1,.577.369,2.834,2.834,0,0,1,.485.762,6.489,6.489,0,0,1,.231.75,3.176,3.176,0,0,1,.092.75,1.764,1.764,0,0,1-.1.623.929.929,0,0,1-.242.392.41.41,0,0,1-.115.035.41.41,0,0,0-.115.035l-.231.046a.389.389,0,0,0-.2.185,1.485,1.485,0,0,0-.173.439q-.023.138-.046.265a1.255,1.255,0,0,1-.069.242q-.046.092-.081.173t-.058.15a.357.357,0,0,1-.035.162l-.081.162a1.79,1.79,0,0,0-.092.231.871.871,0,0,0-.046.277l-.092.254q-.069.231-.127.415a1.145,1.145,0,0,0-.058.231l-.092.462q-.046.185-.1.358a3.26,3.26,0,0,0-.1.415q-.046.242-.115.658a15.453,15.453,0,0,1-.946,3.024A3.017,3.017,0,0,1,120.186-16.666Zm-1.523-8.563a1.308,1.308,0,0,0,1.119.173,3.839,3.839,0,0,0,1.581-.889,3.972,3.972,0,0,0,.831-.854,3.121,3.121,0,0,0,.485-.992.919.919,0,0,0,.069-.5q-.046-.15-.346-.173a1.9,1.9,0,0,0-.969.138,5.94,5.94,0,0,0-1.154.6,1.608,1.608,0,0,1-.346.369,1.668,1.668,0,0,1-.289.185q-.1.046-.058.069a.439.439,0,0,0-.081.115.542.542,0,0,1-.1.138,2.685,2.685,0,0,0-.4.542,3.588,3.588,0,0,0-.3.635A.6.6,0,0,0,118.663-25.229Zm9.186,4.085a1.024,1.024,0,0,1-.485-.058,4.693,4.693,0,0,1-.462-.242,3.123,3.123,0,0,1-.785-.854,1.5,1.5,0,0,1-.254-.854.867.867,0,0,0,.012-.369l-.035-.162q-.138-.115-.092-.15a.22.22,0,0,0,.069-.127q.185-.046.046-.254a1.92,1.92,0,0,1,.081-.842,6.83,6.83,0,0,1,.4-1.235q.115-.254.335-.669t.5-.842a5.38,5.38,0,0,1,.508-.681,6.835,6.835,0,0,1,.912-.889,3.362,3.362,0,0,1,.912-.5,2.406,2.406,0,0,1,.762-.2,1.043,1.043,0,0,1,.669.289,2.257,2.257,0,0,1,.889.462,1.806,1.806,0,0,1,.5.9,4.829,4.829,0,0,1,.127,1.581,6.34,6.34,0,0,1-.8,2.343,6.6,6.6,0,0,1-.866,1.4,9.143,9.143,0,0,1-1.027,1,4.437,4.437,0,0,1-.912.6A4.425,4.425,0,0,1,127.849-21.144Zm1.893-3a6.976,6.976,0,0,0,.646-1.119,6.4,6.4,0,0,0,.392-1.35,2.2,2.2,0,0,0,.058-.635,3.721,3.721,0,0,0-.081-.692q-.069-.312-.208-.335a.976.976,0,0,0-.646-.012,1.968,1.968,0,0,0-.785.565,5.022,5.022,0,0,0-.669.946,8.6,8.6,0,0,0-.508,1.131q-.231.623-.439,1.408a1.78,1.78,0,0,0,.012,1.293q.242.462.819.231A3.918,3.918,0,0,0,129.742-24.144Z" transform="translate(104.254 175.334)" fill="#6f63b7"/>
  </g>
</svg>
