<svg xmlns="http://www.w3.org/2000/svg" xmlns:xlink="http://www.w3.org/1999/xlink" width="120" height="119.783" viewBox="0 0 120 119.783">
  <defs>
    <clipPath id="clip-path">
      <rect id="Rectángulo_148" data-name="Rectángulo 148" width="120" height="119.783" fill="#fff"/>
    </clipPath>
  </defs>
  <g id="pelota" transform="translate(-505.76 -171.094)">
    <g id="Grupo_248" data-name="Grupo 248" transform="translate(505.76 171.094)">
      <g id="Grupo_247" data-name="Grupo 247" clip-path="url(#clip-path)">
        <path id="Trazado_285" data-name="Trazado 285" d="M557.586,264.809c-1.546-9.2,1.043-18.177,7.49-25.95,1.041-1.258,2.136-2.535,3.249-3.83,6.3-7.328,12.818-14.91,12.033-22.164-.486-4.509-3.933-9.223-10.212-14.016-6.337-4.716-11.816-6.726-16.287-5.95-7.188,1.245-12.678,9.6-17.987,17.674-.94,1.426-1.864,2.834-2.785,4.182-5.7,8.337-13.607,13.3-22.882,14.353-1.032.118-2.075.178-3.125.193a60.024,60.024,0,0,0,52.666,42.764,32.633,32.633,0,0,1-2.159-7.255" transform="translate(-504.614 -152.28)" fill="#fff"/>
        <path id="Trazado_286" data-name="Trazado 286" d="M565.761,171.094a60,60,0,0,0-60,60c0,1.922.1,3.821.279,5.7a21.491,21.491,0,0,0,4.047-.043c5.928-.673,11.063-3.963,14.857-9.52.884-1.3,1.772-2.645,2.675-4.015,6.314-9.61,13.476-20.5,25.467-22.579,7.647-1.327,15.715,1.247,24.63,7.8l.011-.015a.644.644,0,0,1,.075.052c.1.069.17.14.262.209s.183.123.273.193c.026.019.046.037.071.058l-.013.017c8.763,6.761,13.461,13.807,14.3,21.523C594,242.573,585.5,252.455,578,261.176c-1.069,1.245-2.12,2.471-3.123,3.677-4.3,5.178-6.044,11.025-5.053,16.908a23.387,23.387,0,0,0,3.583,8.827,59.991,59.991,0,0,0-7.649-119.493" transform="translate(-505.76 -171.094)" fill="#fff"/>
      </g>
    </g>
  </g>
</svg>
