<svg id="perrito_adopta_home" data-name="perrito adopta home" xmlns="http://www.w3.org/2000/svg" xmlns:xlink="http://www.w3.org/1999/xlink" width="413.08" height="545.406" viewBox="0 0 413.08 545.406">
  <defs>
    <clipPath id="clip-path">
      <rect id="Rectángulo_93" data-name="Rectángulo 93" width="413.08" height="545.406" fill="none"/>
    </clipPath>
    <clipPath id="clip-path-3">
      <rect id="Rectángulo_67" data-name="Rectángulo 67" width="74.061" height="100.106" fill="none"/>
    </clipPath>
    <clipPath id="clip-path-4">
      <rect id="Rectángulo_68" data-name="Rectángulo 68" width="244.976" height="89.268" fill="none"/>
    </clipPath>
    <clipPath id="clip-path-5">
      <rect id="Rectángulo_69" data-name="Rectángulo 69" width="164.684" height="74.499" fill="none"/>
    </clipPath>
    <clipPath id="clip-path-6">
      <rect id="Rectángulo_70" data-name="Rectángulo 70" width="75.09" height="182.973" fill="none"/>
    </clipPath>
    <clipPath id="clip-path-7">
      <rect id="Rectángulo_71" data-name="Rectángulo 71" width="74.459" height="182.848" fill="none"/>
    </clipPath>
    <clipPath id="clip-path-8">
      <rect id="Rectángulo_72" data-name="Rectángulo 72" width="222.484" height="87.179" fill="none"/>
    </clipPath>
    <clipPath id="clip-path-9">
      <rect id="Rectángulo_73" data-name="Rectángulo 73" width="7.261" height="20.359" fill="none"/>
    </clipPath>
    <clipPath id="clip-path-10">
      <rect id="Rectángulo_74" data-name="Rectángulo 74" width="1.036" height="0.815" fill="none"/>
    </clipPath>
    <clipPath id="clip-path-11">
      <rect id="Rectángulo_75" data-name="Rectángulo 75" width="1.033" height="0.749" fill="none"/>
    </clipPath>
    <clipPath id="clip-path-12">
      <rect id="Rectángulo_76" data-name="Rectángulo 76" width="48.712" height="54.982" fill="none"/>
    </clipPath>
    <clipPath id="clip-path-13">
      <rect id="Rectángulo_77" data-name="Rectángulo 77" width="121.171" height="56.859" fill="none"/>
    </clipPath>
    <clipPath id="clip-path-14">
      <rect id="Rectángulo_78" data-name="Rectángulo 78" width="25.618" height="8.838" fill="none"/>
    </clipPath>
    <clipPath id="clip-path-15">
      <rect id="Rectángulo_79" data-name="Rectángulo 79" width="164.681" height="39.074" fill="none"/>
    </clipPath>
    <clipPath id="clip-path-16">
      <rect id="Rectángulo_80" data-name="Rectángulo 80" width="104.643" height="261.072" fill="none"/>
    </clipPath>
    <clipPath id="clip-path-17">
      <rect id="Rectángulo_81" data-name="Rectángulo 81" width="14.841" height="67.116" fill="none"/>
    </clipPath>
    <clipPath id="clip-path-18">
      <rect id="Rectángulo_82" data-name="Rectángulo 82" width="269.928" height="253.366" fill="none"/>
    </clipPath>
    <clipPath id="clip-path-19">
      <rect id="Rectángulo_83" data-name="Rectángulo 83" width="280.081" height="98.645" fill="none"/>
    </clipPath>
    <clipPath id="clip-path-20">
      <rect id="Rectángulo_84" data-name="Rectángulo 84" width="277.965" height="89.817" fill="none"/>
    </clipPath>
    <clipPath id="clip-path-21">
      <rect id="Rectángulo_85" data-name="Rectángulo 85" width="126.538" height="126.416" fill="none"/>
    </clipPath>
    <clipPath id="clip-path-22">
      <rect id="Rectángulo_86" data-name="Rectángulo 86" width="73.974" height="44.003" fill="none"/>
    </clipPath>
    <clipPath id="clip-path-23">
      <rect id="Rectángulo_87" data-name="Rectángulo 87" width="60.669" height="46.854" fill="none"/>
    </clipPath>
    <clipPath id="clip-path-24">
      <rect id="Rectángulo_88" data-name="Rectángulo 88" width="82.576" height="47.261" fill="none"/>
    </clipPath>
    <clipPath id="clip-path-25">
      <rect id="Rectángulo_89" data-name="Rectángulo 89" width="76.033" height="49.614" fill="none"/>
    </clipPath>
    <clipPath id="clip-path-26">
      <rect id="Rectángulo_90" data-name="Rectángulo 90" width="2.274" height="2.353" fill="none"/>
    </clipPath>
    <clipPath id="clip-path-27">
      <rect id="Rectángulo_91" data-name="Rectángulo 91" width="186.003" height="60.537" fill="none"/>
    </clipPath>
  </defs>
  <g id="Grupo_112" data-name="Grupo 112" clip-path="url(#clip-path)">
    <path id="Trazado_29" data-name="Trazado 29" d="M900.774,1307H644.383v61.554H808.946Z" transform="translate(-521.326 -1057.402)" fill="#6b184e"/>
    <g id="Grupo_111" data-name="Grupo 111">
      <g id="Grupo_110" data-name="Grupo 110" clip-path="url(#clip-path)">
        <path id="Trazado_30" data-name="Trazado 30" d="M806.923,1367.005H642.36a.477.477,0,0,1-.477-.477v-61.555a.477.477,0,0,1,.477-.477H898.752a.477.477,0,0,1,.266.874l-91.829,61.555a.473.473,0,0,1-.266.081m-164.085-.955h163.94l90.4-60.6H642.838Z" transform="translate(-519.304 -1055.378)" fill="#1e1b24"/>
        <path id="Trazado_31" data-name="Trazado 31" d="M1499.4,1122.508s31.264-7.529,38.939-20.822c4.542-7.868-.935-12.8-.935-12.8s15.4-9.146,17.438-18.51c2.244-10.311-7.445-13.09-7.445-13.09s5.76-10.546,4.282-20.35c-1.473-9.769-8.415-17.147-17.778-14.895-9.469,2.278-16.994,17.973-16.994,17.973s-10.823-5.2-14.611-.059c-5.82,7.9-5.962,22.186-5.962,22.186s-20.74-5.309-17.07,24.908" transform="translate(-1196.419 -826.537)" fill="#fff"/>
        <path id="Trazado_32" data-name="Trazado 32" d="M1497.373,1120.972a.478.478,0,0,1-.111-.942c.311-.075,31.153-7.633,38.638-20.6,4.3-7.446-.79-12.156-.841-12.2l-.482-.435.558-.331c.152-.091,15.244-9.15,17.215-18.2,2.125-9.761-6.732-12.421-7.11-12.529l-.573-.164.285-.523c.057-.1,5.666-10.524,4.229-20.051-.848-5.62-3.5-10.3-7.269-12.838a12.21,12.21,0,0,0-9.925-1.663c-9.142,2.2-16.6,17.56-16.676,17.715l-.207.431-.43-.206c-.105-.052-10.51-4.972-14.02-.207-5.66,7.682-5.868,21.766-5.87,21.907l-.006.608-.589-.15c-.07-.017-6.915-1.694-11.815,2.615-4.381,3.853-5.95,11.178-4.663,21.773a.478.478,0,0,1-.948.116c-1.327-10.932.351-18.54,4.989-22.612,4.476-3.931,10.25-3.277,12.092-2.94.093-2.8.8-14.763,6.042-21.884,3.577-4.856,12.658-1.22,14.772-.283,1.3-2.584,8.29-15.69,17.105-17.811a13.146,13.146,0,0,1,10.682,1.8c3.993,2.688,6.792,7.605,7.68,13.489,1.321,8.76-2.948,17.928-4.077,20.155,2.072.806,9.229,4.295,7.234,13.457-1.872,8.6-14.419,16.809-17.155,18.509,1.24,1.441,4.492,6.193.6,12.934-7.689,13.317-37.957,20.738-39.241,21.048a.514.514,0,0,1-.112.013" transform="translate(-1194.39 -824.524)" fill="#1e1b24"/>
        <g id="Grupo_37" data-name="Grupo 37" transform="translate(284.696 195.869)" opacity="0.3">
          <g id="Grupo_36" data-name="Grupo 36">
            <g id="Grupo_35" data-name="Grupo 35" clip-path="url(#clip-path-3)">
              <path id="Trazado_33" data-name="Trazado 33" d="M1564.528,1073.633c-2.035,9.368-17.435,18.509-17.435,18.509s5.475,4.934.937,12.8c-7.672,13.293-38.941,20.827-38.941,20.827l-18.284-42.878c26.173-5.669,30.486,13.524,36.282,11.924a4.563,4.563,0,0,0,3.073-3.536,8.861,8.861,0,0,1,5.056-5.727c5.334-2.359,13.584-6.792,16.189-12.534,2.066-4.544,1.167-8-.355-10.386a9.2,9.2,0,0,1-.246-9.626c2.065-3.524,4.234-8.332,4.55-13.348.339-5.467-1.115-10.571-4.127-14,5.37,1.995,9.1,7.672,10.143,14.536,1.478,9.8-4.28,20.351-4.28,20.351s9.683,2.778,7.438,13.083" transform="translate(-1490.803 -1025.662)" fill="#1e1b24"/>
            </g>
          </g>
        </g>
        <path id="Trazado_34" data-name="Trazado 34" d="M1485.725,1112.044a3.231,3.231,0,0,1-.754-6.372c8.325-2.009,31.181-9.392,36.9-19.3,3-5.2.248-8.254-.334-8.814l-3.259-2.932,3.8-2.212c3.95-2.353,14.51-9.887,15.933-16.421,1.5-6.89-4.072-8.96-5.2-9.305l-3.8-1.156,1.875-3.49c.05-.092,5.216-9.743,3.923-18.319-.733-4.86-2.95-8.857-6.084-10.966a9.408,9.408,0,0,0-7.744-1.27c-6.518,1.568-12.921,12.249-14.838,16.232l-1.4,2.909-2.911-1.4c-2.936-1.4-9.069-3.146-10.611-1.055-4.267,5.792-5.3,16.619-5.333,20.3l-.041,4.119-3.99-1.021c-.037-.008-5.576-1.305-9.346,2.045-3.582,3.183-4.866,9.873-3.716,19.345a3.23,3.23,0,0,1-6.413.78c-1.444-11.889.543-20.3,5.905-25.013a16.537,16.537,0,0,1,11.339-3.865c.439-5.05,1.852-14.355,6.395-20.523,3.87-5.254,11.478-3.593,15.712-2.116,2.8-5,9.34-15,17.738-17.022a15.823,15.823,0,0,1,12.863,2.191c4.632,3.118,7.863,8.718,8.865,15.361,1.125,7.458-1.418,15.108-3.169,19.255,3.964,2.411,8.046,7.308,6.295,15.355s-11.062,15.337-16.008,18.712c1.6,3.206,2.334,8-.854,13.522-8.273,14.329-39.649,22.027-40.98,22.347a3.217,3.217,0,0,1-.759.091" transform="translate(-1182.745 -812.842)" fill="#1e1b24"/>
        <path id="Trazado_35" data-name="Trazado 35" d="M673.6,1047.832H441.775C428.079,1029.161,437,971.59,437,971.59s-8.383.727-8.383-6.493a13.006,13.006,0,0,1,2.245-6.533c4.167-6.8,12.63-13.3,12.21-14.552-.557-1.656-9.158-2.366-9.158-6.977,0-10.006,17.589-18.017,17.346-19.721s-5.532-2.366-6.162-7.7c-.194-1.615.759-4.151,2.366-7.115,5.637-10.41,19.3-26.149,19.3-26.149h139.58a32.836,32.836,0,0,0,3.287,11.023c5.726,12.17,16.507,23.411,13.834,31.318-1.082,3.222-6.4,5.1-6.864,6.17s22.265,18.792,20.819,28.378c-.686,4.53-8.124,6.816-8.213,7.922-.033.38,2.988,1.7,6.985,3.7,7.68,3.844,18.97,10.208,19.131,17.234.178,7.438-6.356,7.123-6.856,8.617s25.123,25.875,25.123,57.127" transform="translate(-346.767 -708.991)" fill="#fff"/>
        <path id="Trazado_36" data-name="Trazado 36" d="M671.572,1046.288H439.752a.478.478,0,0,1-.385-.195c-13.083-17.835-5.894-69.633-4.946-76.026a9.359,9.359,0,0,1-6.334-2.051,6.4,6.4,0,0,1-1.968-4.94,13.238,13.238,0,0,1,2.316-6.782c2.335-3.81,6.012-7.538,8.7-10.261,1.6-1.622,3.414-3.461,3.457-3.947-.118-.325-1.519-.86-2.644-1.29-2.755-1.055-6.529-2.5-6.529-5.783,0-7.232,8.68-13.322,13.866-16.961,1.574-1.1,3.357-2.355,3.488-2.763-.058-.323-.782-.792-1.548-1.288-1.667-1.079-4.187-2.711-4.617-6.357-.194-1.617.6-4.036,2.421-7.4,5.6-10.336,19.223-26.076,19.36-26.235a.477.477,0,0,1,.36-.164h139.58a.477.477,0,0,1,.476.436,32.14,32.14,0,0,0,3.243,10.859A114.891,114.891,0,0,0,614.7,896.8c4.861,7.792,9.058,14.52,7.2,20.021-.751,2.236-3.281,3.8-5.127,4.944a11.587,11.587,0,0,0-1.664,1.145,46.578,46.578,0,0,0,3.618,3.658c6.373,6.114,18.237,17.5,17.148,24.719-.49,3.235-4.048,5.325-6.4,6.709a14.306,14.306,0,0,0-1.691,1.086c.527.355,2,1.071,3.543,1.821.916.446,1.952.949,3.064,1.506,8.247,4.128,19.229,10.449,19.395,17.65.133,5.588-3.381,7.087-5.481,7.983a4.632,4.632,0,0,0-1.362.729A31.283,31.283,0,0,0,649.4,992.1c6.193,7.863,22.644,28.75,22.644,53.707a.477.477,0,0,1-.477.477M440,1045.333h231.1c-.209-24.417-16.34-44.9-22.438-52.639-2.347-2.981-2.838-3.63-2.658-4.163.214-.64.972-.962,1.931-1.372,2.118-.9,5.018-2.14,4.9-7.082-.171-7.459-14.243-14.5-18.867-16.818-1.108-.555-2.141-1.057-3.054-1.5-3.765-1.83-4.241-2.1-4.193-2.664.049-.617.84-1.082,2.275-1.926,2.2-1.292,5.52-3.244,5.942-6.028,1.015-6.733-10.616-17.892-16.865-23.887-3.654-3.506-4.164-4.047-3.921-4.609.217-.5.878-.923,2.125-1.694,1.723-1.067,4.084-2.528,4.725-4.437,1.715-5.074-2.371-11.625-7.1-19.211a115.741,115.741,0,0,1-6.71-11.752,33.684,33.684,0,0,1-3.288-10.748H464.964c-1.468,1.706-13.859,16.22-19.1,25.9-2.119,3.908-2.427,5.872-2.312,6.83.378,3.2,2.58,4.628,4.188,5.669,1.036.671,1.854,1.2,1.973,2.024.109.766-.913,1.525-3.883,3.609-5.034,3.532-13.459,9.443-13.459,16.179,0,2.629,3.28,3.883,5.915,4.891,1.711.655,2.946,1.126,3.217,1.934s-.739,1.872-3.692,4.865c-2.653,2.69-6.286,6.373-8.563,10.089a12.513,12.513,0,0,0-2.175,6.283,5.482,5.482,0,0,0,1.655,4.233c2.276,2.091,6.171,1.788,6.209,1.784a.484.484,0,0,1,.39.15.475.475,0,0,1,.123.4c-.089.573-8.675,57.188,4.545,75.693" transform="translate(-344.744 -706.97)" fill="#1e1b24"/>
        <g id="Grupo_40" data-name="Grupo 40" transform="translate(81.853 249.573)" opacity="0.3">
          <g id="Grupo_39" data-name="Grupo 39">
            <g id="Grupo_38" data-name="Grupo 38" clip-path="url(#clip-path-4)">
              <path id="Trazado_37" data-name="Trazado 37" d="M673.6,1396.147H441.775c-13.7-18.671-4.773-76.242-4.773-76.242s-8.383.727-8.383-6.493a13.005,13.005,0,0,1,2.245-6.533c4.91,5.144,25.721,23.137,75.4,21.522,68.029-2.2,110.54-7.947,129.93-15.231,7.68,3.844,18.97,10.208,19.131,17.234.178,7.438-6.356,7.123-6.856,8.617s25.123,25.875,25.123,57.127" transform="translate(-428.62 -1306.879)" fill="#1e1b24"/>
            </g>
          </g>
        </g>
        <path id="Trazado_38" data-name="Trazado 38" d="M659.926,1037.38H428.107a3.23,3.23,0,0,1-2.6-1.318c-12.485-17.007-7.571-62.246-5.851-75.207a10.672,10.672,0,0,1-5.074-2.468,9.092,9.092,0,0,1-2.858-6.965c0-7.009,7.1-14.214,11.8-18.981.326-.33.674-.683,1.013-1.03-3.119-1.224-7.525-3.287-7.525-8.056,0-8.668,9.419-15.272,15.047-19.217l.62-.435a10.431,10.431,0,0,1-4.461-7.393c-.958-8.091,16.932-29.415,22.438-35.759a3.23,3.23,0,0,1,2.439-1.112H592.675a3.231,3.231,0,0,1,3.218,2.946c.626,7.085,5.132,14.306,9.489,21.289,5.017,8.04,9.755,15.634,7.478,22.372-.886,2.621-3.186,4.4-5.128,5.67.405.392.831.8,1.241,1.195,9.326,8.945,19.174,19.156,17.974,27.124-.494,3.28-2.935,5.543-5.246,7.131,8.455,4.124,22.959,11.485,23.187,21.167.138,5.889-3.037,8.493-5.46,9.788l.492.626c6.355,8.069,23.237,29.5,23.237,55.405a3.23,3.23,0,0,1-3.23,3.23m-230.1-6.46H656.6c-1.293-22.2-15.519-40.257-21.758-48.177-2.894-3.675-3.768-4.784-3.109-6.746.607-1.81,2.188-2.484,3.459-3.025,1.919-.818,3.306-1.409,3.234-4.488-.143-6.062-14.83-13.211-20.36-15.9-4.325-2.105-5.944-2.892-5.748-5.361.162-2.048,1.763-2.988,3.618-4.076,1.536-.9,4.4-2.581,4.62-4.073.8-5.327-11.446-17.077-16.058-21.5-4.375-4.2-5.551-5.325-4.527-7.68.57-1.309,1.731-2.029,3.2-2.941,1.132-.7,3.238-2.007,3.564-2.975,1.3-3.844-2.653-10.177-6.838-16.883-4.019-6.44-8.512-13.641-10.017-21.195H454.576c-11.249,13.124-20.292,26.534-19.942,29.652.212,1.786,1.257,2.583,2.954,3.681,1.3.84,2.91,1.885,3.2,3.952.352,2.476-1.444,3.735-5.024,6.244-4.3,3.013-12.3,8.62-12.3,13.927,0,.487,1.394,1.266,4.145,2.319,2.232.854,4.159,1.592,4.845,3.629.822,2.442-.795,4.082-4.337,7.674-3.475,3.525-9.945,10.086-9.945,14.445a2.708,2.708,0,0,0,.754,2.194c1.123,1.043,3.423,1.124,4.14,1.077a3.267,3.267,0,0,1,2.62,1.031,3.233,3.233,0,0,1,.829,2.683c-.085.549-8.161,53.8,3.3,72.513m5.09-125.688h0Z" transform="translate(-333.094 -695.312)" fill="#1e1b24"/>
        <g id="Grupo_43" data-name="Grupo 43" transform="translate(100.539 167.353)" opacity="0.3">
          <g id="Grupo_42" data-name="Grupo 42">
            <g id="Grupo_41" data-name="Grupo 41" clip-path="url(#clip-path-5)">
              <path id="Trazado_39" data-name="Trazado 39" d="M686.657,915.342c-3.586,3.279-11.128,5.6-18.542,6.21-.945,4.191-2.633,8.189-5.621,9.828-5.209,2.859-7.3-5.039-7.591-6.283a.05.05,0,0,0-.1-.008,88.793,88.793,0,0,1-5.621,10.821c-2.665,4.328-5.927,8.568-9.021,9.812-6.824,2.729-9.747-1.131-10.749-3.125a.805.805,0,0,0-1.276-.218,32.118,32.118,0,0,1-19.406,8.463h-.008a32.092,32.092,0,0,1-19.406-8.463.814.814,0,0,0-1.284.218c-1,1.995-3.917,5.855-10.741,3.125-3.085-1.244-6.339-5.459-9-9.78a87.923,87.923,0,0,1-5.645-10.854.055.055,0,0,0-.1.008c-.291,1.244-2.374,9.142-7.583,6.283-2.988-1.639-4.676-5.645-5.621-9.844-7.365-.63-14.827-2.94-18.388-6.194-4.078-3.723-4.9-8.423-4.328-12.848,5.637-10.41,19.3-26.149,19.3-26.149h139.58a32.828,32.828,0,0,0,3.287,11.023,13.153,13.153,0,0,1-3.618,1.05s12.388,16.959,1.478,26.924" transform="translate(-526.467 -876.344)" fill="#1e1b24"/>
            </g>
          </g>
        </g>
        <path id="Trazado_40" data-name="Trazado 40" d="M754.337,842.87c-5.209,2.859-7.3-5.039-7.591-6.283a.05.05,0,0,0-.1-.008,88.766,88.766,0,0,1-5.621,10.822c-2.665,4.328-5.928,8.568-9.021,9.812-6.824,2.73-9.747-1.13-10.749-3.125a.806.806,0,0,0-1.276-.218,32.12,32.12,0,0,1-19.406,8.463h-.008a32.1,32.1,0,0,1-19.406-8.463.814.814,0,0,0-1.284.218c-1,1.995-3.917,5.855-10.741,3.125-3.085-1.244-6.339-5.459-9-9.78a87.928,87.928,0,0,1-5.645-10.854.055.055,0,0,0-.105.008c-.291,1.244-2.374,9.142-7.583,6.283-7.446-4.086-6.808-22.79-6.808-22.79L698.2,788.206l2.374-1.3,2.374,1.3,58.2,31.875s.638,18.7-6.808,22.79" transform="translate(-517.771 -636.632)" fill="#fff"/>
        <path id="Trazado_41" data-name="Trazado 41" d="M698.573,860.5a32.52,32.52,0,0,1-19.772-8.592.333.333,0,0,0-.292-.089.328.328,0,0,0-.241.178c-.989,1.971-4.082,6.255-11.342,3.348-2.729-1.1-5.832-4.454-9.226-9.973a91.674,91.674,0,0,1-5.2-9.82c-.55,1.753-1.793,4.778-4.019,5.772a4.276,4.276,0,0,1-3.937-.346c-7.615-4.179-7.082-22.449-7.055-23.224l.009-.272,61.036-33.432,2.6,1.427,58.44,32,.009.272c.026.775.56,19.044-7.055,23.224a4.274,4.274,0,0,1-3.939.345c-2.221-.99-3.464-4-4.021-5.762a92.317,92.317,0,0,1-5.171,9.78c-3.413,5.543-6.525,8.91-9.249,10-7.268,2.907-10.361-1.375-11.353-3.353a.317.317,0,0,0-.23-.173.337.337,0,0,0-.292.089,32.487,32.487,0,0,1-19.7,8.592m-20-9.641a1.288,1.288,0,0,1,.885.353,26.014,26.014,0,0,0,38.167,0,1.28,1.28,0,0,1,1.114-.333,1.266,1.266,0,0,1,.916.685c1.085,2.162,3.845,5.413,10.144,2.9,2.494-1,5.534-4.328,8.791-9.619a87.934,87.934,0,0,0,5.584-10.75l.133-.329.408,0a.525.525,0,0,1,.472.451c.115.482,1.263,5.111,3.8,6.242a3.33,3.33,0,0,0,3.09-.311c6.631-3.639,6.6-19.791,6.566-22.084l-60.1-32.917-60.1,32.917c-.038,2.295-.062,18.448,6.566,22.084a3.325,3.325,0,0,0,3.088.311c2.531-1.129,3.677-5.759,3.8-6.283l.078-.337.391-.074a.554.554,0,0,1,.528.3,87.6,87.6,0,0,0,5.624,10.816c3.238,5.266,6.27,8.581,8.769,9.588,6.289,2.516,9.049-.734,10.135-2.9a1.283,1.283,0,0,1,.93-.685,1.307,1.307,0,0,1,.223-.02m66.5-16.436-.02.049c.007-.016.014-.033.02-.049" transform="translate(-515.735 -634.323)" fill="#1e1b24"/>
        <path id="Trazado_42" data-name="Trazado 42" d="M688.5,993.608l-.29-.006a34.749,34.749,0,0,1-19.362-7.651c-2.523,2.979-6.878,4.761-12.943,2.335-5.38-2.156-10.553-10.723-13.562-16.568a7.856,7.856,0,0,1-3.025,2.512,6.58,6.58,0,0,1-6.058-.435c-8.736-4.794-8.364-23.3-8.293-25.394a2.865,2.865,0,0,1,5.726.193c-.182,5.53.879,17.74,5.323,20.178.66.361.894.256.971.224.836-.372,1.936-2.459,2.451-4.65l.48-2.042,2.138-.2a2.9,2.9,0,0,1,2.924,1.817c1.886,4.69,8.536,17.237,13.053,19.046,3.494,1.4,5.822.829,7.119-1.75a3.672,3.672,0,0,1,5.8-1.018,23.671,23.671,0,0,0,34.9,0,3.673,3.673,0,0,1,5.8,1.018c1.3,2.579,3.627,3.15,7.119,1.751,4.518-1.81,11.167-14.356,13.052-19.043l.782-1.947,2.144.126a2.908,2.908,0,0,1,2.617,2.239c.516,2.195,1.615,4.281,2.452,4.654.077.034.311.138.972-.224,4.443-2.438,5.505-14.648,5.323-20.178a2.865,2.865,0,0,1,5.726-.193c.071,2.094.443,20.6-8.293,25.394a6.576,6.576,0,0,1-6.059.434,7.85,7.85,0,0,1-3.023-2.51c-3.009,5.844-8.183,14.411-13.562,16.567-6.065,2.429-10.421.645-12.943-2.335A34.752,34.752,0,0,1,688.59,993.6Zm48.635-27.541-.025.06.025-.06" transform="translate(-505.596 -765.046)" fill="#1e1b24"/>
        <path id="Trazado_43" data-name="Trazado 43" d="M1304.667,170.67c-.015,0-.022.007-.015.015.243.84,7.583,26.264-1.592,42.013-8.305,14.267-14.186,5.269-14.186,5.269a176.546,176.546,0,0,1-14.046,17.443c-4.834,5.225-10.339,10.332-15.535,13.206-3,1.665-5.9,2.587-8.5,2.351a18.018,18.018,0,0,1-1.968-.287,12.343,12.343,0,0,1-1.459-.391c-13.375-4.569,6.043-29,6.492-63.509.715-55.683-22.2-96.1-46.279-119.339l-.081-.081s12.535.656,25.115,2.683c8.3,1.334,16.625,3.265,21.378,6.006,11.083,6.382,5.556,12.749,5.284,13.051,0,.007,0,.007.007.015.8.162,30.318,6.4,39.316,21.607,4.488,7.568-4.945,8.851-5.453,8.917-.007,0-.015.007-.007.015.56.59,18.121,19.168,21.541,34.835,4.908,22.521-9.4,16.456-10.015,16.183" transform="translate(-976.907 -54.496)" fill="#fff"/>
        <path id="Trazado_44" data-name="Trazado 44" d="M253.536,67.36a.71.71,0,0,1-.081.074c-24.083,23.25-47,63.664-46.287,119.347.449,34.827,20.229,59.382,6.124,63.627a11.986,11.986,0,0,1-1.533.361c-.472.081-.98.147-1.518.2-2.668.243-5.652-.737-8.747-2.491-5.358-3.029-11.039-8.394-15.955-13.788a176.7,176.7,0,0,1-13.375-16.721s-5.888,9-14.193-5.269c-9.175-15.748-1.835-41.173-1.584-42.013a.016.016,0,0,0-.015-.015c-.626.272-14.923,6.337-10.015-16.183,3.412-15.667,20.973-34.246,21.533-34.835.007-.007,0-.015-.007-.015-.509-.066-9.934-1.349-5.453-8.917,9.005-15.2,38.519-21.445,39.315-21.607.007-.007.007-.007.007-.015-.265-.3-5.8-6.669,5.284-13.051,4.613-2.66,12.572-4.554,20.619-5.881,12.83-2.129,25.881-2.808,25.881-2.808" transform="translate(-117.579 -54.496)" fill="#fff"/>
        <g id="Grupo_46" data-name="Grupo 46" transform="translate(60.787 12.938)" opacity="0.3">
          <g id="Grupo_45" data-name="Grupo 45">
            <g id="Grupo_44" data-name="Grupo 44" clip-path="url(#clip-path-6)">
              <path id="Trazado_45" data-name="Trazado 45" d="M347.111,187.093c.45,34.827,20.229,59.382,6.124,63.627-1.091-.53-2.1-1.032-2.977-1.481a8.046,8.046,0,0,0-6.286-.45c-5.217-3.029-10.759-8.394-15.549-13.788a217.667,217.667,0,0,1,.671-24.415,8.6,8.6,0,0,0-5.579-8.681c-3.073-1.172-5.932-4.178-5.041-11.533,1.076-8.806,8.047-21.555,12.941-29.6a8.814,8.814,0,0,0-1.459-10.759,1.987,1.987,0,0,1-.243-.265c-6.139-7.657,5.52-20.3,14.333-28.136a8.54,8.54,0,0,0,1.216-11.474,6.748,6.748,0,0,1-1-6.64c1.99-5.888,13.125-14.7,20.531-20.045a8.683,8.683,0,0,0,3.161-8.865,4.48,4.48,0,0,1,1.511-4.112c10.133-1.724,20.406-2.5,23.936-2.734-24.083,23.25-47,63.664-46.287,119.347" transform="translate(-318.308 -67.747)" fill="#1e1b24"/>
            </g>
          </g>
        </g>
        <g id="Grupo_49" data-name="Grupo 49" transform="translate(230.677 12.944)" opacity="0.3">
          <g id="Grupo_48" data-name="Grupo 48">
            <g id="Grupo_47" data-name="Grupo 47" clip-path="url(#clip-path-7)">
              <path id="Trazado_46" data-name="Trazado 46" d="M1277.183,201.936a8.587,8.587,0,0,0-5.586,8.681,211.379,211.379,0,0,1,.634,25.137c-4.709,5.225-10.074,10.332-15.137,13.206-.044-.015-.088-.037-.133-.052a8.042,8.042,0,0,0-6.529.361c-.811.413-1.732.87-2.719,1.364-13.375-4.569,6.043-29,6.492-63.509.715-55.683-22.2-96.1-46.279-119.339,3.449.229,13.3.965,23.177,2.6,1.547,1.555,1.886,3,1.636,4.237a8.673,8.673,0,0,0,3.169,8.865c7.391,5.343,18.541,14.156,20.523,20.045a6.764,6.764,0,0,1-1,6.64,8.548,8.548,0,0,0,1.216,11.474c8.814,7.834,20.472,20.479,14.333,28.136-.074.088-.155.177-.236.265a8.815,8.815,0,0,0-1.467,10.759c4.893,8.04,11.872,20.789,12.941,29.6.9,7.355-1.96,10.361-5.033,11.533" transform="translate(-1207.927 -67.783)" fill="#1e1b24"/>
            </g>
          </g>
        </g>
        <path id="Trazado_47" data-name="Trazado 47" d="M1249.082,241.785c-.354,0-.7-.015-1.05-.047-4.45-.4-7.5-1.9-9.308-4.581-3.532-5.223-1.149-13.158,2.148-24.141,3.161-10.528,7.094-23.63,7.289-38.729.778-60.411-26.187-97.365-42.33-114.017h0a4.9,4.9,0,0,1,3.9-8.284c12.112.928,33.858,3.307,43.413,8.813,8.563,4.935,9,10.43,8.27,13.652,9.837,2.6,29.876,9.295,37.5,22.171,1.669,2.82,2.083,5.444,1.231,7.8a8.117,8.117,0,0,1-3.811,4.263c5.71,6.655,16.346,20.334,19.033,32.66,1.948,8.937,1.308,14.935-1.959,18.336a9.174,9.174,0,0,1-6.8,2.707h-.092c1.876,8.946,4.237,26.84-3.126,39.484-3.355,5.763-6.84,8.886-10.653,9.548a8.469,8.469,0,0,1-5.8-1.1c-7.727,10.5-24.791,31.465-37.845,31.465m-35.8-183.02c16.969,18.594,42.1,56.256,41.338,115.607-.206,16-4.284,29.587-7.561,40.5-2.468,8.219-4.8,15.981-2.984,18.664.649.959,2.175,1.553,4.536,1.766,7.983.682,22.812-14.564,34-30.026a4.892,4.892,0,0,1,3.355-1.983,4.945,4.945,0,0,1,3.781,1.126,2.126,2.126,0,0,0,1.88.637c.812-.141,3.04-1.05,6.175-6.433,7.019-12.054,3.27-31.258,1.953-36.857a4.878,4.878,0,0,1,1.2-4.479,4.929,4.929,0,0,1,4.454-1.469c1.56.276,2.682.068,3.335-.611.742-.772,2.256-3.535.306-12.484-2.672-12.255-15.171-27.083-18.937-31.336a4.9,4.9,0,0,1,2.009-7.864c1.249-.445,1.828-.976,1.943-1.3s0-1.116-.715-2.315c-7.016-11.849-28.646-18-35.109-19.6a4.895,4.895,0,0,1-3.218-2.535,4.985,4.985,0,0,1-.1-4.171c1.208-2.873-2.057-5.5-5.01-7.206-5.651-3.257-19.183-6.059-36.631-7.632" transform="translate(-974.435 -42.048)" fill="#1e1b24"/>
        <path id="Trazado_48" data-name="Trazado 48" d="M195.788,238.648c-13.051,0-30.114-20.958-37.846-31.465a8.453,8.453,0,0,1-5.8,1.1c-3.814-.66-7.3-3.783-10.657-9.548-7.363-12.644-5-30.537-3.126-39.484h-.093a9.175,9.175,0,0,1-6.8-2.707c-3.266-3.4-3.906-9.4-1.958-18.336,2.687-12.322,13.32-26,19.033-32.659a8.115,8.115,0,0,1-3.811-4.261c-.854-2.359-.44-4.985,1.23-7.806,7.624-12.876,27.663-19.573,37.5-22.171-.73-3.222-.293-8.717,8.27-13.652,12.489-7.2,46.5-9.044,47.944-9.119l8.636-.45-6.226,6c-13.923,13.421-46.216,51.693-45.375,117.055.194,15.1,4.128,28.2,7.288,38.729,3.3,10.983,5.68,18.918,2.148,24.141-1.814,2.682-4.858,4.18-9.308,4.581-.346.032-.7.047-1.049.047m-37.477-38.529a4.824,4.824,0,0,1,.59.036,4.89,4.89,0,0,1,3.356,1.982c11.187,15.466,26.042,30.744,34,30.032,2.362-.214,3.888-.807,4.536-1.766,1.814-2.683-.516-10.445-2.984-18.664-3.277-10.914-7.355-24.5-7.561-40.5-.769-59.714,25.213-97.776,41.367-115.6-10.779.977-29,3.217-36.66,7.63-2.952,1.7-6.218,4.332-5.01,7.206a4.984,4.984,0,0,1-.1,4.171,4.892,4.892,0,0,1-3.218,2.535c-6.463,1.6-28.094,7.757-35.11,19.605-.711,1.2-.835,1.982-.715,2.315s.7.853,1.948,1.3a4.893,4.893,0,0,1,2.008,7.858c-3.767,4.253-16.269,19.084-18.941,31.34-1.951,8.95-.436,11.712.306,12.485.653.68,1.775.886,3.334.61a4.938,4.938,0,0,1,4.455,1.469,4.879,4.879,0,0,1,1.2,4.478c-1.317,5.6-5.067,24.8,1.952,36.858,3.136,5.384,5.364,6.293,6.176,6.433a2.141,2.141,0,0,0,1.881-.638,4.949,4.949,0,0,1,3.184-1.165" transform="translate(-103.888 -38.91)" fill="#1e1b24"/>
        <path id="Trazado_49" data-name="Trazado 49" d="M492.359,20.655c10.493-6.775,17.031-2.534,20.2,1a7.4,7.4,0,0,0,6.418,2.387c8.529-1.054,23.058.943,32.9,8.083,2.42,1.755,2.951,3.387,2.67,4.743a7.547,7.547,0,0,0,2.868,7.832c6.707,4.721,16.809,12.5,18.609,17.7a5.851,5.851,0,0,1-.907,5.869,7.407,7.407,0,0,0,1.1,10.135c7.988,6.924,18.561,18.094,12.994,24.855a3.118,3.118,0,0,1-.218.237,7.636,7.636,0,0,0-1.326,9.5c4.434,7.108,10.76,18.367,11.732,26.146.812,6.5-1.78,9.154-4.565,10.189a7.6,7.6,0,0,0-5.062,7.67c.779,9.973,1.61,27.356-1.473,32.776-2.209,3.884-8.2,2.4-11.8,1.052a7.457,7.457,0,0,0-5.919.32c-4.077,2.017-11.235,5.376-15.231,6.18-29.283,5.893-52.807-7.854-62.18-14.58a7.516,7.516,0,0,0-8.776,0c-9.372,6.726-32.9,20.474-62.18,14.58-4-.8-11.154-4.163-15.231-6.18a7.457,7.457,0,0,0-5.919-.32c-3.6,1.346-9.588,2.833-11.8-1.052-3.082-5.421-2.252-22.8-1.472-32.776a7.6,7.6,0,0,0-5.063-7.67c-2.785-1.035-5.378-3.692-4.565-10.189.972-7.779,7.3-19.038,11.732-26.146a7.636,7.636,0,0,0-1.327-9.5,3.1,3.1,0,0,1-.218-.237C382.8,96.5,393.37,85.327,401.358,78.4a7.407,7.407,0,0,0,1.1-10.135,5.85,5.85,0,0,1-.907-5.869c1.8-5.2,11.9-12.984,18.609-17.7a7.547,7.547,0,0,0,2.868-7.832c-.281-1.355.25-2.988,2.67-4.743,9.363-6.79,22.962-8.929,31.608-8.215a7.494,7.494,0,0,0,6.941-3.385c2.21-3.423,7.582-6.517,20.585.46a7.425,7.425,0,0,0,7.524-.325" transform="translate(-305.834 -13.583)" fill="#fff"/>
        <g id="Grupo_52" data-name="Grupo 52" transform="translate(71.714 98.473)" opacity="0.3">
          <g id="Grupo_51" data-name="Grupo 51">
            <g id="Grupo_50" data-name="Grupo 50" clip-path="url(#clip-path-8)">
              <path id="Trazado_50" data-name="Trazado 50" d="M594.841,555.016a7.58,7.58,0,0,0-5.063,7.664c.775,9.974,1.607,27.36-1.478,32.779-2.2,3.884-8.2,2.4-11.791,1.05a7.475,7.475,0,0,0-5.919.323c-4.078,2.019-11.241,5.378-15.231,6.178-29.29,5.9-52.815-7.85-62.183-14.576a7.5,7.5,0,0,0-8.778,0c-9.368,6.727-32.892,20.472-62.175,14.576-4-.8-11.161-4.159-15.231-6.178a7.478,7.478,0,0,0-5.919-.323c-3.6,1.349-9.594,2.835-11.8-1.05-3.085-5.419-2.253-22.806-1.478-32.779a7.574,7.574,0,0,0-5.056-7.664c-2.786-1.042-5.378-3.7-4.571-10.191.63-4.991,3.456-11.419,6.574-17.258a37.052,37.052,0,0,0-2.616,9.118c-.783,6.412,1.7,9.028,4.369,10.054a7.484,7.484,0,0,1,4.853,7.559c-.743,9.836-1.542,26.981,1.413,32.327,2.116,3.828,7.85,2.358,11.306,1.033a6.981,6.981,0,0,1,5.669.315c3.909,1.987,10.765,5.306,14.593,6.1,28.063,5.814,50.61-7.745,59.59-14.383a7.038,7.038,0,0,1,8.407,0c8.988,6.638,31.527,20.2,59.59,14.383,3.828-.792,10.692-4.111,14.593-6.1a7,7,0,0,1,5.677-.315c3.448,1.325,9.182,2.794,11.306-1.033,2.948-5.346,2.156-22.491,1.405-32.327a7.5,7.5,0,0,1,4.854-7.559c2.673-1.026,5.152-3.642,4.377-10.054-.937-7.672-8.375-21.078-6.461-18.009,4.434,7.107,10.757,18.372,11.734,26.149.807,6.493-1.785,9.15-4.563,10.191" transform="translate(-377.545 -517.735)" fill="#6b184e"/>
              <path id="Trazado_51" data-name="Trazado 51" d="M434.493,602.831a72.72,72.72,0,0,1-14.381-1.435c-4.1-.821-11.376-4.248-15.349-6.219a7.025,7.025,0,0,0-5.541-.3c-3.592,1.345-9.979,2.969-12.38-1.262-3.145-5.524-2.314-23.079-1.539-33.052a7.066,7.066,0,0,0-4.745-7.179c-2.707-1.012-5.75-3.689-4.879-10.7.55-4.354,2.779-10.217,6.626-17.424l.863.4a36.406,36.406,0,0,0-2.585,8.995c-.619,5.063.75,8.277,4.066,9.553a7.923,7.923,0,0,1,5.158,8.041c-.735,9.728-1.535,26.832,1.355,32.059,1.955,3.537,7.553,2.031,10.718.82a7.481,7.481,0,0,1,6.055.335c4.637,2.356,10.912,5.319,14.474,6.055,28.106,5.818,50.769-8.06,59.21-14.3a7.523,7.523,0,0,1,8.975,0c8.445,6.238,31.12,20.12,59.21,14.3,3.782-.781,10.691-4.129,14.473-6.054a7.51,7.51,0,0,1,6.065-.336c3.159,1.213,8.753,2.719,10.717-.82,2.9-5.26,2.088-22.344,1.346-32.059a7.94,7.94,0,0,1,5.16-8.042c3.315-1.272,4.685-4.485,4.072-9.551-.651-5.334-4.6-13.7-6.08-16.852-.855-1.815-.871-1.849-.446-2.081s.639.125.945.615c4.852,7.777,10.837,18.66,11.8,26.342.871,7.008-2.167,9.686-4.87,10.7h0a7.08,7.08,0,0,0-4.753,7.179c.775,9.973,1.606,27.528-1.539,33.052-2.4,4.234-8.783,2.608-12.373,1.261a7.035,7.035,0,0,0-5.539.3c-3.983,1.971-11.274,5.4-15.349,6.219-29.709,5.98-53.644-8.259-62.554-14.657a7.028,7.028,0,0,0-8.222,0c-7.42,5.328-25.259,16.09-48.167,16.092m52.277-18.375a7.983,7.983,0,0,1,4.668,1.507c8.809,6.326,32.468,20.4,61.809,14.5,3.969-.8,11.172-4.188,15.113-6.138a7.99,7.99,0,0,1,6.3-.342c3.307,1.24,9.157,2.78,11.209-.838,3.02-5.3,2.184-22.642,1.417-32.506a8.025,8.025,0,0,1,5.372-8.149c3.462-1.3,4.894-4.557,4.256-9.685-.708-5.634-4.336-13.22-7.784-19.4a46.872,46.872,0,0,1,3.458,11.138c.837,6.921-2.083,9.562-4.68,10.558a6.99,6.99,0,0,0-4.548,7.077c.75,9.821,1.557,27.115-1.463,32.592-1.716,3.093-5.94,3.534-11.9,1.25a6.552,6.552,0,0,0-5.291.3c-3.823,1.947-10.82,5.334-14.711,6.137-28.465,5.9-51.421-8.151-59.97-14.465a6.57,6.57,0,0,0-7.84,0c-8.543,6.315-31.488,20.369-59.97,14.465-3.665-.757-10.024-3.756-14.712-6.138a6.526,6.526,0,0,0-5.281-.295c-5.963,2.284-10.188,1.84-11.9-1.249-2.86-5.172-2.379-20.58-1.471-32.594a6.975,6.975,0,0,0-4.547-7.076c-2.6-1-5.518-3.644-4.673-10.559a24.114,24.114,0,0,1,.5-2.742,40.636,40.636,0,0,0-3.51,11c-.638,5.13.8,8.388,4.265,9.685a8.012,8.012,0,0,1,5.364,8.15c-.767,9.863-1.6,27.2,1.417,32.5,2.051,3.614,7.907,2.078,11.216.839a7.988,7.988,0,0,1,6.3.341c3.931,1.95,11.121,5.339,15.113,6.138,29.338,5.9,52.993-8.171,61.8-14.5a7.98,7.98,0,0,1,4.667-1.507m106.054-31.522h0Z" transform="translate(-375.528 -515.653)" fill="#1e1b24"/>
            </g>
          </g>
        </g>
        <path id="Trazado_52" data-name="Trazado 52" d="M422.814,188.4a75.405,75.405,0,0,1-14.913-1.488c-4.161-.837-11.011-3.97-16.026-6.452a4.239,4.239,0,0,0-3.354-.19c-10.282,3.841-14.272.1-15.737-2.48-2.678-4.709-3.312-16.358-1.885-34.625a4.366,4.366,0,0,0-2.967-4.39c-2.98-1.107-7.8-4.348-6.646-13.619,1.022-8.173,7.2-19.441,12.2-27.454a4.438,4.438,0,0,0-.856-5.5,6.07,6.07,0,0,1-.436-.476c-3.9-4.733-4.738-13.662,13.366-29.355a4.2,4.2,0,0,0,.684-5.692,9.027,9.027,0,0,1-1.424-8.926c1.625-4.695,8.288-11.184,19.8-19.29a4.326,4.326,0,0,0,1.564-4.533c-.425-2.045-.087-5.1,3.936-8.015,9.928-7.2,24.116-9.617,33.77-8.819a4.26,4.26,0,0,0,3.961-1.918c2.5-3.872,9.047-9.1,24.826-.635a4.183,4.183,0,0,0,4.245-.192h0c13.12-8.47,21.4-1.737,24.355,1.551a4.173,4.173,0,0,0,3.618,1.34c9.868-1.218,25.123,1.368,35.2,8.673,4.023,2.918,4.361,5.969,3.936,8.015a4.326,4.326,0,0,0,1.565,4.533c11.515,8.106,18.178,14.6,19.8,19.289a9.028,9.028,0,0,1-1.424,8.928,4.2,4.2,0,0,0,.684,5.692C582.76,78.071,581.92,87,578.027,91.727a6.257,6.257,0,0,1-.441.481,4.436,4.436,0,0,0-.856,5.5c5,8.014,11.175,19.283,12.2,27.454,1.158,9.271-3.667,12.512-6.646,13.619a4.366,4.366,0,0,0-2.967,4.39c1.427,18.266.793,29.915-1.885,34.625-1.464,2.576-5.456,6.323-15.735,2.481a4.25,4.25,0,0,0-3.356.189c-5.014,2.481-11.865,5.614-16.025,6.452-30.756,6.192-55.493-8.515-64.7-15.124a4.293,4.293,0,0,0-5.009,0c-7.664,5.5-26.091,16.609-49.788,16.611m-32.852-14.848a10.784,10.784,0,0,1,4.778,1.117c6.5,3.217,11.765,5.371,14.436,5.909,28.267,5.685,51.138-7.922,59.659-14.038a10.749,10.749,0,0,1,12.542,0c8.522,6.116,31.394,19.73,59.659,14.039,2.671-.538,7.933-2.692,14.436-5.909a10.723,10.723,0,0,1,8.484-.45c3.982,1.487,7.139,1.639,7.856.377,1.478-2.6,2.532-12.089,1.061-30.929a10.765,10.765,0,0,1,7.158-10.949c.87-.324,3.182-1.183,2.484-6.761-.683-5.465-4.685-14.286-11.267-24.836a10.855,10.855,0,0,1,1.8-13.512c2.787-3.384-2.046-11.186-12.621-20.352A10.6,10.6,0,0,1,558.9,52.684a2.647,2.647,0,0,0,.39-2.812c-1.106-3.2-7.617-9.222-17.416-16.119a10.827,10.827,0,0,1-4.171-11.13s-.126-.544-1.4-1.47c-8.629-6.257-22.209-8.529-30.611-7.492a10.638,10.638,0,0,1-9.218-3.435C492.4,5.688,487,5.54,480.427,9.785h0a10.647,10.647,0,0,1-10.8.458c-4.812-2.582-13.332-6.219-16.344-1.554a10.727,10.727,0,0,1-9.92,4.853c-8.194-.675-20.9,1.417-29.446,7.611-1.278.926-1.4,1.471-1.4,1.476a10.818,10.818,0,0,1-4.17,11.125c-9.8,6.9-16.31,12.923-17.416,16.12a2.647,2.647,0,0,0,.39,2.811,10.6,10.6,0,0,1-1.524,14.577c-10.576,9.166-15.409,16.968-12.616,20.36a10.849,10.849,0,0,1,1.791,13.5c-6.582,10.549-10.584,19.369-11.267,24.836-.7,5.578,1.615,6.438,2.485,6.761a10.765,10.765,0,0,1,7.158,10.949c-1.471,18.84-.417,28.33,1.061,30.929.718,1.26,3.875,1.11,7.858-.378a10.553,10.553,0,0,1,3.7-.667" transform="translate(-292.15 0.001)" fill="#1e1b24"/>
        <g id="Grupo_55" data-name="Grupo 55" transform="translate(258.436 163.706)" opacity="0.35">
          <g id="Grupo_54" data-name="Grupo 54">
            <g id="Grupo_53" data-name="Grupo 53" clip-path="url(#clip-path-9)">
              <path id="Trazado_53" data-name="Trazado 53" d="M1360.316,860.487c1.864,4.223,3.854,10.391,2.985,16.257a42.393,42.393,0,0,0-5.763-15.468,12.109,12.109,0,0,0,2.778-.789" transform="translate(-1356.727 -859.867)" fill="#fff"/>
              <path id="Trazado_54" data-name="Trazado 54" d="M1359.831,877.6l-.439-3.422c-1.027-7.994-5.643-15.2-5.69-15.269l-.41-.633.748-.1a11.707,11.707,0,0,0,2.657-.755l.432-.181.189.428c1.867,4.23,3.908,10.53,3.02,16.519Zm-4.96-18.607a45.906,45.906,0,0,1,4.7,11.175,34.55,34.55,0,0,0-2.947-11.693,13.324,13.324,0,0,1-1.756.518" transform="translate(-1353.292 -857.236)" fill="#1e1b24"/>
            </g>
          </g>
        </g>
        <g id="Grupo_58" data-name="Grupo 58" transform="translate(182.401 152.402)" opacity="0.35">
          <g id="Grupo_57" data-name="Grupo 57">
            <g id="Grupo_56" data-name="Grupo 56" clip-path="url(#clip-path-10)">
              <path id="Trazado_55" data-name="Trazado 55" d="M957.717,799v.059c-.037-.2-.059-.405-.081-.6,0-.022.007-.037.007-.059.022.2.044.405.074.6" transform="translate(-957.158 -798.331)" fill="#1d1c22"/>
              <path id="Trazado_56" data-name="Trazado 56" d="M955.225,798.867c-.036-.193-.059-.394-.081-.589l-.008-.15.013-.076.946.014c.023.211.044.4.072.586l0,.129Z" transform="translate(-955.136 -798.051)" fill="#1e1b24"/>
            </g>
          </g>
        </g>
        <g id="Grupo_61" data-name="Grupo 61" transform="translate(182.32 152.469)" opacity="0.35">
          <g id="Grupo_60" data-name="Grupo 60">
            <g id="Grupo_59" data-name="Grupo 59" clip-path="url(#clip-path-11)">
              <path id="Trazado_57" data-name="Trazado 57" d="M957.293,798.456c-.022.2-.044.405-.081.6V799c.029-.2.052-.405.073-.6,0,.022.007.037.007.059" transform="translate(-956.734 -798.398)" fill="#1d1c22"/>
              <path id="Trazado_58" data-name="Trazado 58" d="M955.658,799.147l-.947-.122,0-.094c.027-.176.046-.357.066-.533l.958.026,0,.085h-.014a.114.114,0,0,1,0,.016l.014,0c-.023.2-.047.417-.084.621" transform="translate(-954.711 -798.398)" fill="#1e1b24"/>
            </g>
          </g>
        </g>
        <path id="Trazado_59" data-name="Trazado 59" d="M878.423,885.068s-.951,18.49-5.947,34.025c-3.618,11.253-9.359,20.958-18.409,20.958-9.027,0-14.768-9.669-18.386-20.9-5.019-15.55-5.969-34.083-5.969-34.083Z" transform="translate(-671.263 -716.048)" fill="#f14c4a"/>
        <g id="Grupo_64" data-name="Grupo 64" transform="translate(158.449 169.02)" opacity="0.35">
          <g id="Grupo_63" data-name="Grupo 63">
            <g id="Grupo_62" data-name="Grupo 62" clip-path="url(#clip-path-12)">
              <path id="Trazado_60" data-name="Trazado 60" d="M878.423,885.068s-.951,18.49-5.947,34.025c-3.618,11.253-9.359,20.958-18.409,20.958-9.027,0-14.768-9.669-18.386-20.9-5.019-15.55-5.969-34.083-5.969-34.083h.3c.568,5.652,2.078,17,5.667,26.972,3.618,10.074,9.359,18.748,18.386,18.748,9.05,0,14.79-8.7,18.409-18.8,3.574-9.963,5.077-21.283,5.645-26.92Z" transform="translate(-829.712 -885.068)" fill="#fff"/>
            </g>
          </g>
        </g>
        <path id="Trazado_61" data-name="Trazado 61" d="M942.206,914.839l-1.936-31.6a3.236,3.236,0,0,1,6.461-.4,3.631,3.631,0,0,1,0,.4l-1.936,31.6a1.3,1.3,0,0,1-2.589,0" transform="translate(-760.703 -711.791)" fill="#1e1b24"/>
        <path id="Trazado_62" data-name="Trazado 62" d="M840.385,929.588c-23.91,0-27.278-52.11-27.583-58.051a3.23,3.23,0,0,1,6.452-.332c.7,13.47,6.076,51.923,21.131,51.923s20.434-38.453,21.131-51.923a3.23,3.23,0,0,1,6.452.332c-.3,5.942-3.673,58.051-27.583,58.051" transform="translate(-657.579 -702.354)" fill="#1e1b24"/>
        <g id="Grupo_67" data-name="Grupo 67" transform="translate(121.77 152.54)" opacity="0.3">
          <g id="Grupo_66" data-name="Grupo 66">
            <g id="Grupo_65" data-name="Grupo 65" clip-path="url(#clip-path-13)">
              <path id="Trazado_63" data-name="Trazado 63" d="M751.991,853.437c-5.209,2.859-7.3-5.039-7.591-6.283a.05.05,0,0,0-.1-.008l-.058.141a13.531,13.531,0,0,1-16.706,7.615c-14.365-4.757-28.144-12.641-29.226-22.607-1.09,10-14.966,17.9-29.388,22.658a13.551,13.551,0,0,1-16.7-7.625l-.075-.182a.055.055,0,0,0-.1.008c-.291,1.244-2.374,9.142-7.583,6.283-7.446-4.086-6.808-22.79-6.808-22.79l58.193-31.875H700.6l58.2,31.875s.638,18.7-6.808,22.79" transform="translate(-637.642 -798.772)" fill="#1e1b24"/>
            </g>
          </g>
        </g>
        <path id="Trazado_64" data-name="Trazado 64" d="M544.276,709.142s-21.426,6.771-23.363,21.519c-.716,5.445,7,6.332,7,6.332s-12.4,16.956-1.485,26.927c4.562,4.168,15.531,6.8,24.483,6.322,17.043-.908,51.626-11.556,53.371-27.582,1.737,16.026,36.314,26.673,53.357,27.582,8.959.475,19.921-2.154,24.484-6.322,10.915-9.971-1.479-26.927-1.479-26.927s7.719-.887,7-6.332c-1.943-14.749-23.37-21.519-23.37-21.519Z" transform="translate(-421.397 -573.718)" fill="#fff"/>
        <path id="Trazado_65" data-name="Trazado 65" d="M530.057,705.8c-3.02,2.009-6.022,3.968-8.8,6.023a42.623,42.623,0,0,0-7.435,6.645,16.884,16.884,0,0,0-3.966,7.95c-.106.447-.026.453-.088.643.042.1,0,.212.049.277a1.406,1.406,0,0,0,.508.673,5.942,5.942,0,0,0,1.518.821,8.66,8.66,0,0,0,.976.32c.167.05.339.082.507.123l.418.081,5.366,1.04-3.086,4.17c-.258.348-.608.865-.9,1.325-.3.476-.6.962-.873,1.459-.557.991-1.07,2.007-1.525,3.037a25.314,25.314,0,0,0-1.9,6.275,13.335,13.335,0,0,0,.284,5.912,10.3,10.3,0,0,0,3.047,4.667,13.851,13.851,0,0,0,2.432,1.631,26.3,26.3,0,0,0,3,1.311,40.15,40.15,0,0,0,6.612,1.768,45.86,45.86,0,0,0,6.882.729c1.151.023,2.278.014,3.424-.054s2.327-.178,3.5-.322a97.871,97.871,0,0,0,14.055-2.836,101.683,101.683,0,0,0,13.555-4.731,57.069,57.069,0,0,0,12.119-6.95c3.556-2.757,6.388-6.276,6.79-9.845l3.217-28.571,3.205,28.572c.4,3.568,3.231,7.087,6.786,9.844a57.073,57.073,0,0,0,12.116,6.95,101.557,101.557,0,0,0,13.553,4.731,97.854,97.854,0,0,0,14.054,2.836c1.174.144,2.343.248,3.5.321s2.273.077,3.424.054a45.9,45.9,0,0,0,6.882-.729,40.131,40.131,0,0,0,6.61-1.768,26.242,26.242,0,0,0,3-1.312,13.839,13.839,0,0,0,2.432-1.631,10.307,10.307,0,0,0,3.047-4.667,13.334,13.334,0,0,0,.286-5.911,25.394,25.394,0,0,0-1.9-6.276c-.45-1.032-.957-2.051-1.509-3.045-.273-.5-.564-.987-.859-1.469-.285-.465-.628-.986-.881-1.341l-3-4.215,5.237-.9.424-.073c.169-.038.343-.068.512-.116a9.271,9.271,0,0,0,.992-.3,6.26,6.26,0,0,0,1.572-.8,1.723,1.723,0,0,0,.6-.72c.065-.082.034-.216.085-.334a6.666,6.666,0,0,0-.076-.69,14.763,14.763,0,0,0-4.2-7.91,53.836,53.836,0,0,0-7.612-6.347c-2.785-1.993-5.726-3.961-8.616-6.327l-.063-.051a1.129,1.129,0,0,1,.712-2,25.184,25.184,0,0,1,11.251,2.877,29.9,29.9,0,0,1,9.432,7.323,23.722,23.722,0,0,1,5.479,11.429,11.19,11.19,0,0,1,.146,2.038,8.017,8.017,0,0,1-.512,2.328,8.207,8.207,0,0,1-2.727,3.541,12.556,12.556,0,0,1-3.275,1.722,15.648,15.648,0,0,1-1.63.5c-.272.072-.548.125-.825.185-.3.055-.524.1-.928.151l2.239-5.115c.464.652.8,1.168,1.159,1.754s.692,1.146,1.013,1.732q.971,1.751,1.781,3.6a31.77,31.77,0,0,1,2.365,7.885,19.759,19.759,0,0,1-.493,8.772,16.8,16.8,0,0,1-4.933,7.61,23.694,23.694,0,0,1-7.485,4.175,46.444,46.444,0,0,1-7.7,2.065,52.311,52.311,0,0,1-7.854.831c-1.321.028-2.667.016-3.989-.063s-2.6-.2-3.884-.356a104.142,104.142,0,0,1-15-3.02,108.063,108.063,0,0,1-14.428-5.04,63.294,63.294,0,0,1-13.531-7.8,29.937,29.937,0,0,1-5.813-5.9,17.831,17.831,0,0,1-3.4-8.321h6.423a17.838,17.838,0,0,1-3.4,8.32,29.968,29.968,0,0,1-5.814,5.9,63.31,63.31,0,0,1-13.533,7.8,108.107,108.107,0,0,1-14.429,5.041,104.207,104.207,0,0,1-15,3.021q-1.92.235-3.884.356c-1.322.08-2.668.092-3.989.064a52.314,52.314,0,0,1-7.855-.831,46.5,46.5,0,0,1-7.7-2.065,23.7,23.7,0,0,1-7.486-4.174,16.8,16.8,0,0,1-4.934-7.611,19.749,19.749,0,0,1-.491-8.773,31.843,31.843,0,0,1,2.366-7.885q.8-1.854,1.767-3.606c.32-.586.658-1.163,1-1.741.358-.592.682-1.112,1.142-1.771L513,735.9c-.407-.048-.635-.091-.934-.143-.279-.057-.557-.107-.831-.177a16.256,16.256,0,0,1-1.645-.477,12.583,12.583,0,0,1-3.329-1.7,8.346,8.346,0,0,1-2.819-3.587,8.232,8.232,0,0,1-.549-2.385,11.438,11.438,0,0,1,.133-2.084,21.443,21.443,0,0,1,5.708-11.39,32.687,32.687,0,0,1,9.607-7.025,34.855,34.855,0,0,1,5.395-2.078,27.125,27.125,0,0,1,5.674-1.1,1.1,1.1,0,0,1,.7,2.02Z" transform="translate(-406.854 -569.354)" fill="#1e1b24"/>
        <path id="Trazado_66" data-name="Trazado 66" d="M875.368,686.8c0,12.592-15.009,22.268-22.018,26.1a7.345,7.345,0,0,1-7.056,0c-7.009-3.832-22.018-13.508-22.018-26.1,0-16.428,51.092-16.428,51.092,0" transform="translate(-666.865 -545.671)" fill="#1e1b24"/>
        <g id="Grupo_70" data-name="Grupo 70" transform="translate(169.989 132.985)" opacity="0.7">
          <g id="Grupo_69" data-name="Grupo 69">
            <g id="Grupo_68" data-name="Grupo 68" clip-path="url(#clip-path-14)">
              <path id="Trazado_67" data-name="Trazado 67" d="M917.3,701.339c0,2.524-7.245,4.464-10.628,5.232a8.1,8.1,0,0,1-3.406,0c-3.383-.768-10.628-2.708-10.628-5.232,0-3.293,24.663-3.293,24.663,0" transform="translate(-892.162 -698.392)" fill="#fff"/>
              <path id="Trazado_68" data-name="Trazado 68" d="M902.949,705.208a8.263,8.263,0,0,1-1.809-.193c-5.018-1.138-11-3.05-11-5.7,0-2.8,10.67-2.947,12.809-2.947s12.809.142,12.809,2.947c0,2.647-5.982,4.56-11,5.7a8.267,8.267,0,0,1-1.809.193m0-7.882c-7.633,0-11.854,1.178-11.854,1.992,0,1.505,3.93,3.332,10.257,4.767a7.564,7.564,0,0,0,3.194,0c6.327-1.435,10.257-3.262,10.257-4.767,0-.265-.723-.9-3.46-1.382a50.561,50.561,0,0,0-8.394-.61" transform="translate(-890.14 -696.371)" fill="#1e1b24"/>
            </g>
          </g>
        </g>
        <g id="Grupo_73" data-name="Grupo 73" transform="translate(100.538 157.505)" opacity="0.3">
          <g id="Grupo_72" data-name="Grupo 72">
            <g id="Grupo_71" data-name="Grupo 71" clip-path="url(#clip-path-15)">
              <path id="Trazado_69" data-name="Trazado 69" d="M686.646,857.464c-4.562,4.171-15.527,6.8-24.481,6.321-17.023-.909-51.556-11.825-53.361-27.827-1.806,16-36.338,26.919-53.361,27.827-8.954.477-19.919-2.151-24.481-6.321-5.2-4.746-5.114-11.073-3.589-16.407.693,1.856,3.368,8.217,13.331,11.537,21.165,7.06,65.278-11.394,68.019-27.291.037-.176.059-.359.081-.536.022.176.044.359.081.536,2.741,15.9,46.854,34.351,68.019,27.291,9.963-3.321,12.638-9.681,13.331-11.537,1.526,5.334,1.614,11.662-3.589,16.407" transform="translate(-526.464 -824.768)" fill="#1e1b24"/>
            </g>
          </g>
        </g>
        <path id="Trazado_70" data-name="Trazado 70" d="M1483.531,1606.944l97.147-52.466a949.23,949.23,0,0,0,.677-232.76l-.677-5.616-97.147,29.981Z" transform="translate(-1200.223 -1064.768)" fill="#ff9b39"/>
        <path id="Trazado_71" data-name="Trazado 71" d="M1481.508,1605.4a.477.477,0,0,1-.477-.478V1344.061a.476.476,0,0,1,.337-.456l97.147-29.981a.478.478,0,0,1,.615.4l.677,5.616a950.551,950.551,0,0,1-.678,232.876.48.48,0,0,1-.247.361l-97.147,52.466a.477.477,0,0,1-.227.057m.477-260.986v259.709l96.227-51.969a949.571,949.571,0,0,0,.646-232.4l-.609-5.048Z" transform="translate(-1198.201 -1062.747)" fill="#1e1b24"/>
        <path id="Trazado_72" data-name="Trazado 72" d="M1483.546,1346.086v258.155a1.617,1.617,0,0,0,2.382,1.421l94.76-51.183q4.009-31.738,5.871-63.628,1.454-24.735,1.607-49.512.025-3,.024-6.008,0-39.55-3.295-79.036-1.441-17.31-3.529-34.572l-.678-5.621Z" transform="translate(-1200.235 -1064.767)" fill="#ff9b39"/>
        <path id="Trazado_73" data-name="Trazado 73" d="M1483.14,1604.315a2.1,2.1,0,0,1-2.094-2.1V1344.064a.476.476,0,0,1,.337-.456l97.142-29.984a.477.477,0,0,1,.615.4l.678,5.62c1.392,11.537,2.58,23.174,3.53,34.59,2.188,26.189,3.3,52.794,3.3,79.076q0,3.006-.024,6.012c-.1,16.5-.646,33.166-1.608,49.536-1.228,21.107-3.2,42.525-5.874,63.659a.48.48,0,0,1-.247.361l-94.76,51.183a2.078,2.078,0,0,1-.993.255m-1.139-259.9v257.8a1.139,1.139,0,0,0,1.677,1l94.544-51.067c2.652-21.036,4.616-42.348,5.838-63.353.961-16.354,1.5-33,1.606-49.487q.025-3,.024-6.006c0-26.255-1.108-52.833-3.293-79-.95-11.4-2.136-23.03-3.528-34.555l-.61-5.052Z" transform="translate(-1198.213 -1062.746)" fill="#1e1b24"/>
        <path id="Trazado_74" data-name="Trazado 74" d="M1471.46,1601.568a4.859,4.859,0,0,1-4.843-4.852V1338.563a3.23,3.23,0,0,1,2.278-3.086l91.741-28.312a7.953,7.953,0,0,1,10.242,6.648,953.325,953.325,0,0,1-.679,233.551,3.229,3.229,0,0,1-1.67,2.436l-94.765,51.179a4.839,4.839,0,0,1-2.3.588m1.618-260.622v253.062l90.918-49.1a946.864,946.864,0,0,0,.468-230.32,1.493,1.493,0,0,0-1.922-1.249Z" transform="translate(-1186.539 -1057.249)" fill="#1e1b24"/>
        <g id="Grupo_76" data-name="Grupo 76" transform="translate(283.311 280.019)" opacity="0.3">
          <g id="Grupo_75" data-name="Grupo 75">
            <g id="Grupo_74" data-name="Grupo 74" clip-path="url(#clip-path-16)">
              <path id="Trazado_75" data-name="Trazado 75" d="M1483.546,1480.823v244.943a1.617,1.617,0,0,0,2.382,1.421l94.76-51.184q4.009-31.737,5.871-63.628c-7.486,39.1-27.216,65.631-58.952,56.781-18.206-5.077-31.923-27.079-33.344-50.765-1.367-22.632-1.863-53.3-2-79.706a3.774,3.774,0,0,1,7.428-.964l11.815,45.449a8.681,8.681,0,0,0,11.644,5.869l65.015-26.176q.025-3,.024-6.008,0-39.55-3.295-79.036l-2.665-8.06a5.012,5.012,0,0,0-6.243-3.222l-91.594,12.348.606,2.334Z" transform="translate(-1483.547 -1466.311)" fill="#1e1b24"/>
            </g>
          </g>
        </g>
        <path id="Trazado_76" data-name="Trazado 76" d="M103.755,1733.957h255.15a1667.182,1667.182,0,0,0,0-260.861H114.949a12.872,12.872,0,0,0-12.748,11.086l-.867,6.184a815.208,815.208,0,0,0,0,226.323Z" transform="translate(-75.598 -1191.78)" fill="#ff9b39"/>
        <path id="Trazado_77" data-name="Trazado 77" d="M356.875,1732.411H101.724a.477.477,0,0,1-.473-.411l-2.421-17.269a815.5,815.5,0,0,1,0-226.455l.867-6.183a13.409,13.409,0,0,1,13.221-11.5H356.875a.478.478,0,0,1,.476.44,1672.952,1672.952,0,0,1,0,260.936.478.478,0,0,1-.476.44m-254.736-.955H356.433a1672.072,1672.072,0,0,0,0-259.906H112.919a12.45,12.45,0,0,0-12.275,10.675l-.867,6.183a814.567,814.567,0,0,0,0,226.191Z" transform="translate(-73.567 -1189.758)" fill="#1e1b24"/>
        <path id="Trazado_78" data-name="Trazado 78" d="M101.364,1716.7l2.423,17.274H357.44a1.62,1.62,0,0,0,1.614-1.493q5-64.367,4.987-128.937,0-65.267-5.1-130.43H114.98a12.875,12.875,0,0,0-12.752,11.08l-.864,6.186q-3.5,24.99-5.451,50.125-2.144,27.7-2.4,55.48a814.372,814.372,0,0,0,7.85,120.715" transform="translate(-75.627 -1191.797)" fill="#ff9b39"/>
        <path id="Trazado_79" data-name="Trazado 79" d="M355.42,1732.43H101.766a.477.477,0,0,1-.473-.411l-2.423-17.274a817.517,817.517,0,0,1-7.854-120.786c.169-18.448.977-37.125,2.4-55.512,1.3-16.7,3.132-33.576,5.454-50.154l.864-6.186a13.417,13.417,0,0,1,13.224-11.492H356.917a.478.478,0,0,1,.476.44c3.388,43.151,5.105,87.047,5.105,130.468,0,42.922-1.678,86.315-4.989,128.974a2.106,2.106,0,0,1-2.09,1.933m-253.238-.955H355.42a1.147,1.147,0,0,0,1.138-1.053c3.308-42.634,4.986-86,4.986-128.9,0-43.247-1.7-86.968-5.068-129.953H112.959a12.457,12.457,0,0,0-12.279,10.67l-.864,6.185c-2.32,16.559-4.153,33.414-5.448,50.1-1.421,18.365-2.228,37.021-2.4,55.447a816.591,816.591,0,0,0,7.845,120.644Z" transform="translate(-73.607 -1189.774)" fill="#1e1b24"/>
        <g id="Grupo_79" data-name="Grupo 79" transform="translate(19.81 281.671)" opacity="0.3">
          <g id="Grupo_78" data-name="Grupo 78">
            <g id="Grupo_77" data-name="Grupo 77" clip-path="url(#clip-path-17)">
              <path id="Trazado_80" data-name="Trazado 80" d="M106.227,1545.332l5.419-33.449a12.83,12.83,0,0,1,5.378-7.583q1.284-12.635,2.98-25.22a12.854,12.854,0,0,0-7.462,9.941l-.864,6.186q-3.5,24.99-5.451,50.125" transform="translate(-105.751 -1478.292)" fill="#6b184e"/>
              <path id="Trazado_81" data-name="Trazado 81" d="M104.681,1542.072l-.947-.114c1.3-16.7,3.132-33.576,5.454-50.154l.864-6.186a13.276,13.276,0,0,1,7.74-10.311l.783-.352-.115.85c-1.125,8.345-2.126,16.824-2.978,25.205l-.023.226-.189.124a12.341,12.341,0,0,0-5.178,7.3Zm12.714-65.507a12.323,12.323,0,0,0-6.4,9.187l-.864,6.185c-1.736,12.391-3.2,24.946-4.369,37.472l3.392-20.938a13.319,13.319,0,0,1,5.4-7.779c.818-8.022,1.772-16.133,2.84-24.126" transform="translate(-103.734 -1474.956)" fill="#1e1b24"/>
            </g>
          </g>
        </g>
        <path id="Trazado_82" data-name="Trazado 82" d="M343.708,1723.5H90.062a3.229,3.229,0,0,1-3.2-2.781l-2.421-17.27a818.268,818.268,0,0,1,0-227.22l.867-6.183a16.174,16.174,0,0,1,15.947-13.868H345.213a3.23,3.23,0,0,1,3.214,2.9c10.534,103.4,1.213,244.2.115,259.918a4.858,4.858,0,0,1-4.833,4.5m-250.837-6.46H342.2c1.455-21.366,9.834-154.573.088-254.4H101.257a9.685,9.685,0,0,0-9.549,8.3l-.867,6.183a811.809,811.809,0,0,0,0,225.426Z" transform="translate(-61.905 -1178.096)" fill="#1e1b24"/>
        <g id="Grupo_82" data-name="Grupo 82" transform="translate(17.851 288.813)" opacity="0.3">
          <g id="Grupo_81" data-name="Grupo 81">
            <g id="Grupo_80" data-name="Grupo 80" clip-path="url(#clip-path-18)">
              <path id="Trazado_83" data-name="Trazado 83" d="M101.364,1748.451l2.423,17.274H358.938c.557-7.091,3.812-64.741,4.47-84.348a103.281,103.281,0,0,1-94.654,62.953l-29.691.124c-97.66,0-123.554-42.13-132.341-94.393a19.217,19.217,0,0,1,19-22.325H333.4a11.4,11.4,0,0,0,11.3-9.874l14.238-105.5-245.129,16.733a12.861,12.861,0,0,0-12.477,9.715l-5.419,33.449q-2.144,27.7-2.4,55.48a814.373,814.373,0,0,0,7.85,120.715" transform="translate(-93.478 -1512.359)" fill="#1e1b24"/>
            </g>
          </g>
        </g>
        <path id="Trazado_84" data-name="Trazado 84" d="M296.993,1473.095l-23.64,98.65H16.916l22.471-88.931a12.872,12.872,0,0,1,12.48-9.719Z" transform="translate(-13.686 -1191.78)" fill="#ff9b39"/>
        <path id="Trazado_85" data-name="Trazado 85" d="M271.33,1570.2H14.893a.477.477,0,0,1-.463-.594L36.9,1480.675a13.336,13.336,0,0,1,12.943-10.08H294.97a.477.477,0,0,1,.464.588l-23.64,98.651a.477.477,0,0,1-.464.366m-255.825-.955H270.954l23.411-97.7H49.844a12.382,12.382,0,0,0-12.017,9.358Z" transform="translate(-11.662 -1189.758)" fill="#1e1b24"/>
        <path id="Trazado_86" data-name="Trazado 86" d="M16.915,1571.76H273.35L297,1473.116H51.866a12.856,12.856,0,0,0-12.477,9.715Z" transform="translate(-13.685 -1191.797)" fill="#ff9b39"/>
        <path id="Trazado_87" data-name="Trazado 87" d="M271.328,1570.213H14.893a.477.477,0,0,1-.463-.594L36.9,1480.69a13.32,13.32,0,0,1,12.94-10.076H294.973a.477.477,0,0,1,.464.588l-23.645,98.645a.477.477,0,0,1-.464.366m-255.822-.955H270.951l23.417-97.69H49.844a12.366,12.366,0,0,0-12.014,9.355Z" transform="translate(-11.662 -1189.773)" fill="#1e1b24"/>
        <path id="Trazado_88" data-name="Trazado 88" d="M296.985,1473.113l-2.116,8.827-21.53,89.818H16.9l1.849-7.324,20.625-81.6a12.856,12.856,0,0,1,12.477-9.715Z" transform="translate(-13.677 -1191.795)" fill="#ff9b39"/>
        <path id="Trazado_89" data-name="Trazado 89" d="M271.317,1570.212H14.883a.477.477,0,0,1-.463-.594l22.474-88.929a13.32,13.32,0,0,1,12.94-10.075H294.963a.477.477,0,0,1,.464.588l-23.646,98.643a.477.477,0,0,1-.464.367M15.5,1569.257H270.94l23.417-97.689H49.834a12.367,12.367,0,0,0-12.014,9.353Z" transform="translate(-11.654 -1189.773)" fill="#1e1b24"/>
        <g id="Grupo_85" data-name="Grupo 85" transform="translate(3.228 281.318)" opacity="0.35">
          <g id="Grupo_84" data-name="Grupo 84">
            <g id="Grupo_83" data-name="Grupo 83" clip-path="url(#clip-path-19)">
              <path id="Trazado_90" data-name="Trazado 90" d="M18.753,1571.116l20.625-81.6a12.856,12.856,0,0,1,12.477-9.715H295.382l1.6-6.684H51.855a12.856,12.856,0,0,0-12.477,9.715l-20.625,81.6-1.849,7.324h1.688Z" transform="translate(-16.904 -1473.112)" fill="#fff"/>
            </g>
          </g>
        </g>
        <g id="Grupo_88" data-name="Grupo 88" transform="translate(3.23 290.146)" opacity="0.35">
          <g id="Grupo_87" data-name="Grupo 87">
            <g id="Grupo_86" data-name="Grupo 86" clip-path="url(#clip-path-20)">
              <path id="Trazado_91" data-name="Trazado 91" d="M16.915,1609.154H273.35l21.53-89.818c-17.193,28.516-20.345,63.393-33.474,73.856-17.243,13.742-65.935,5.983-119.913,7.177-59.638,1.32-118.726,5.934-118.769-14.2Z" transform="translate(-16.915 -1519.337)" fill="#fff"/>
            </g>
          </g>
        </g>
        <path id="Trazado_92" data-name="Trazado 92" d="M259.668,1561.292H3.23A3.229,3.229,0,0,1,.1,1557.27l22.471-88.932a16.085,16.085,0,0,1,15.611-12.157H283.308a3.23,3.23,0,0,1,3.141,3.983l-23.64,98.651a3.231,3.231,0,0,1-3.142,2.478m-252.289-6.46H257.12l22.091-92.191H38.182a9.632,9.632,0,0,0-9.348,7.281Z" transform="translate(0 -1178.096)" fill="#1e1b24"/>
        <path id="Trazado_93" data-name="Trazado 93" d="M1483.531,1351.278l30.445,97.662,96.1-38.689-27.85-84.282a5.019,5.019,0,0,0-6.245-3.221Z" transform="translate(-1200.223 -1069.964)" fill="#ff9b39"/>
        <path id="Trazado_94" data-name="Trazado 94" d="M1511.953,1447.407a.488.488,0,0,1-.2-.046.48.48,0,0,1-.251-.29l-30.445-97.661a.477.477,0,0,1,.315-.6l92.445-28.53a5.522,5.522,0,0,1,6.839,3.527l27.85,84.282a.477.477,0,0,1-.275.593l-96.1,38.689a.469.469,0,0,1-.178.035m-29.847-97.824,30.148,96.71,95.2-38.329-27.709-83.856a4.565,4.565,0,0,0-5.651-2.915Z" transform="translate(-1198.201 -1067.953)" fill="#1e1b24"/>
        <g id="Grupo_91" data-name="Grupo 91" transform="translate(283.311 252.562)" opacity="0.35">
          <g id="Grupo_90" data-name="Grupo 90">
            <g id="Grupo_89" data-name="Grupo 89" clip-path="url(#clip-path-21)">
              <path id="Trazado_95" data-name="Trazado 95" d="M1483.546,1351.289l30.445,97.659,2.544-1.026,93.548-37.665-72.1,18.878c-13.326,2.626-24.65-3.874-28.284-15.527l-15.158-48.627a10.068,10.068,0,0,1,6.643-12.615l79.282-24.464a5,5,0,0,1,2.358-.145l-.589-1.777a5.011,5.011,0,0,0-6.243-3.222l-86.3,26.642Z" transform="translate(-1483.547 -1322.532)" fill="#fff"/>
            </g>
          </g>
        </g>
        <path id="Trazado_96" data-name="Trazado 96" d="M1500.292,1438.721a3.23,3.23,0,0,1-3.084-2.269l-30.445-97.661a3.229,3.229,0,0,1,2.131-4.048l92.25-28.469a8.5,8.5,0,0,1,10.525,5.428l27.786,84.087a3.231,3.231,0,0,1-1.861,4.01l-96.1,38.689a3.236,3.236,0,0,1-1.207.233m-26.4-98.76,28.439,91.226,90.037-36.25-26.836-81.208a2.007,2.007,0,0,0-2.484-1.282Z" transform="translate(-1186.539 -1056.515)" fill="#1e1b24"/>
        <g id="Grupo_94" data-name="Grupo 94" transform="translate(57.509 281.318)" opacity="0.3">
          <g id="Grupo_93" data-name="Grupo 93">
            <g id="Grupo_92" data-name="Grupo 92" clip-path="url(#clip-path-22)">
              <path id="Trazado_97" data-name="Trazado 97" d="M374.555,1479.921c-1.647,7.882-5.273,18.429-13.212,26.763-13.131,13.785-46.144,13.914-54.365.355-5.669-9.36-6.888-22.8-5.023-33.926H375.08a26.222,26.222,0,0,1-.525,6.808" transform="translate(-301.143 -1473.112)" fill="#1e1b24"/>
            </g>
          </g>
        </g>
        <path id="Trazado_98" data-name="Trazado 98" d="M364.011,1347.51a21.529,21.529,0,0,1,3.787,17.335c-1.366,6.522-4.362,15.248-10.935,22.147-10.865,11.405-38.182,11.514-44.985.292-7.4-12.209-5.634-32.8.833-41.1,13.26-17.016,32.628-15.485,43.458-6.85a45.456,45.456,0,0,1,7.842,8.177" transform="translate(-248.412 -1078.466)" fill="#fff"/>
        <path id="Trazado_99" data-name="Trazado 99" d="M330.617,1394.065a41.547,41.547,0,0,1-4.468-.235c-7.875-.855-13.936-3.891-16.627-8.331-7.442-12.277-5.745-33.158.865-41.642,5.91-7.584,13.512-12.122,21.986-13.125a30.037,30.037,0,0,1,22.147,6.2,45.707,45.707,0,0,1,7.925,8.263,21.946,21.946,0,0,1,3.873,17.72c-1.319,6.3-4.308,15.294-11.056,22.378-5.925,6.22-15.959,8.775-24.645,8.775m5.2-62.58a28.247,28.247,0,0,0-3.334.2c-8.215.972-15.6,5.386-21.345,12.764-6.428,8.249-8.06,28.586-.8,40.56,2.536,4.183,8.336,7.053,15.913,7.876,9.23,1,21.565-1.161,28.318-8.25,6.593-6.922,9.519-15.738,10.813-21.916a20.994,20.994,0,0,0-3.7-16.95,44.783,44.783,0,0,0-7.758-8.091,29.417,29.417,0,0,0-18.106-6.19" transform="translate(-246.465 -1076.434)" fill="#1e1b24"/>
        <g id="Grupo_97" data-name="Grupo 97" transform="translate(59.185 270.302)" opacity="0.3">
          <g id="Grupo_96" data-name="Grupo 96">
            <g id="Grupo_95" data-name="Grupo 95" clip-path="url(#clip-path-23)">
              <path id="Trazado_100" data-name="Trazado 100" d="M370.122,1431.51c-1.365,6.517-4.369,15.247-10.934,22.144-10.87,11.4-38.182,11.516-44.99.291a34.164,34.164,0,0,1-4.28-12.582c.283.565.59,1.123.913,1.656,6.808,11.225,34.128,11.12,44.99-.291,6.574-6.9,9.57-15.618,10.934-22.143a21.812,21.812,0,0,0,.452-5.152,21.593,21.593,0,0,1,2.915,16.079" transform="translate(-309.918 -1415.431)" fill="#1e1b24"/>
            </g>
          </g>
        </g>
        <path id="Trazado_101" data-name="Trazado 101" d="M318.792,1385.153a43.849,43.849,0,0,1-4.7-.247c-8.863-.962-15.5-4.385-18.684-9.64-8.2-13.527-6.132-35.547,1.048-44.761,8.05-10.331,17.4-13.407,23.833-14.168a32.819,32.819,0,0,1,24.187,6.777,49.144,49.144,0,0,1,9.246,9.9,22.914,22.914,0,0,1,3.8,17.441c-1.313,7.056-4.465,17.134-12.025,25.07-6.5,6.821-17.364,9.625-26.707,9.626m5.286-62.578a25.772,25.772,0,0,0-3.026.177c-7.468.885-14.209,4.938-19.5,11.723-5.78,7.419-7.231,26.534-.619,37.441,2.057,3.393,7.237,5.848,13.856,6.566,10.12,1.094,20.825-1.95,26.028-7.411,6.467-6.789,9.2-15.6,10.351-21.8a16.42,16.42,0,0,0-2.7-12.5h0a42.691,42.691,0,0,0-8.017-8.607,26.594,26.594,0,0,0-16.373-5.59" transform="translate(-234.708 -1064.774)" fill="#1e1b24"/>
        <g id="Grupo_100" data-name="Grupo 100" transform="translate(154.459 281.318)" opacity="0.3">
          <g id="Grupo_99" data-name="Grupo 99">
            <g id="Grupo_98" data-name="Grupo 98" clip-path="url(#clip-path-24)">
              <path id="Trazado_102" data-name="Trazado 102" d="M891.4,1473.113a8.459,8.459,0,0,0-6.784,6.985c-1.219,7.793-4.651,20.448-14.294,30.082-13.462,13.47-47.315,13.591-55.746.347-7.228-11.354-7.074-26.69-2.689-37.415Z" transform="translate(-808.821 -1473.112)" fill="#1e1b24"/>
            </g>
          </g>
        </g>
        <path id="Trazado_103" data-name="Trazado 103" d="M889.246,1381.61a7.147,7.147,0,0,0-7.071,6.024c-1.032,6.579-3.93,17.26-12.063,25.394-11.364,11.364-39.936,11.473-47.052.291-7.742-12.166-5.454-29.752,1.452-37.9,14.8-17.469,40.36-18.677,58.234-9.294,7.767,4.077,19.158,15.489,19.158,15.489Z" transform="translate(-661.953 -1100.532)" fill="#fff"/>
        <path id="Trazado_104" data-name="Trazado 104" d="M842.73,1420.471a45.657,45.657,0,0,1-4.974-.265c-8.091-.888-14.323-3.9-17.1-8.263-7.862-12.354-5.524-30.189,1.491-38.469,15.344-18.109,41.758-18.364,58.82-9.408,7.742,4.064,18.806,15.106,19.274,15.574a.478.478,0,0,1-.338.815H887.246a6.635,6.635,0,0,0-6.6,5.62c-1.143,7.284-4.187,17.648-12.2,25.658-6.2,6.2-16.631,8.738-25.719,8.738m14.062-61.232c-12.345,0-25.031,4.366-33.916,14.852-6.8,8.026-9.053,25.334-1.414,37.339,2.62,4.118,8.6,6.971,16.4,7.827,11.518,1.266,23.821-2.107,29.913-8.2,7.829-7.828,10.808-17.987,11.929-25.13a7.586,7.586,0,0,1,7.543-6.427h11.489c-2.758-2.678-11.8-11.223-18.212-14.589a51.8,51.8,0,0,0-23.732-5.672" transform="translate(-659.953 -1098.9)" fill="#1e1b24"/>
        <g id="Grupo_103" data-name="Grupo 103" transform="translate(157.013 271.483)" opacity="0.3">
          <g id="Grupo_102" data-name="Grupo 102">
            <g id="Grupo_101" data-name="Grupo 101" clip-path="url(#clip-path-25)">
              <path id="Trazado_105" data-name="Trazado 105" d="M890.926,1423.454l7.3,7.753h-5.75a7.154,7.154,0,0,0-7.074,6.024c-1.034,6.582-3.933,17.266-12.065,25.4-11.363,11.363-39.934,11.468-47.049.291a30.765,30.765,0,0,1-4.094-10.321c7.648,10.668,35.517,10.394,46.71-.8,8.132-8.132,11.031-18.808,12.057-25.39a.483.483,0,0,0,.016-.1,5.807,5.807,0,0,1,9.949-2.851" transform="translate(-822.194 -1421.614)" fill="#1e1b24"/>
            </g>
          </g>
        </g>
        <g id="Grupo_106" data-name="Grupo 106" transform="translate(231.92 280.598)" opacity="0.3">
          <g id="Grupo_105" data-name="Grupo 105">
            <g id="Grupo_104" data-name="Grupo 104" clip-path="url(#clip-path-26)">
              <path id="Trazado_106" data-name="Trazado 106" d="M1220.553,1472.07l-.218-.226h.121a1.921,1.921,0,0,1,.1.226" transform="translate(-1219.209 -1471.366)" fill="#6b184e"/>
              <path id="Trazado_107" data-name="Trazado 107" d="M1216.714,1471.7l-2.274-2.352h1.552l.128.276a2.3,2.3,0,0,1,.126.3Z" transform="translate(-1214.44 -1469.344)" fill="#1e1b24"/>
            </g>
          </g>
        </g>
        <g id="Grupo_109" data-name="Grupo 109" transform="translate(63.896 426.995)" opacity="0.27" style="mix-blend-mode: multiply;isolation: isolate">
          <g id="Grupo_108" data-name="Grupo 108">
            <g id="Grupo_107" data-name="Grupo 107" clip-path="url(#clip-path-27)">
              <path id="Trazado_108" data-name="Trazado 108" d="M516.133,2296.483H339.048a4.459,4.459,0,0,1-4.459-4.459V2240.4a4.459,4.459,0,0,1,4.459-4.459H516.133a4.459,4.459,0,0,1,4.459,4.459v51.62a4.459,4.459,0,0,1-4.459,4.459" transform="translate(-334.589 -2235.946)" fill="#513e2a"/>
            </g>
          </g>
        </g>
        <path id="Trazado_109" data-name="Trazado 109" d="M498.133,2267.483H321.048a4.459,4.459,0,0,1-4.459-4.459V2211.4a4.459,4.459,0,0,1,4.459-4.459H498.133a4.458,4.458,0,0,1,4.459,4.459v51.619a4.459,4.459,0,0,1-4.459,4.459" transform="translate(-256.13 -1785.489)" fill="#4dbfa8"/>
        <path id="Trazado_110" data-name="Trazado 110" d="M830.779,1410.942a47.624,47.624,0,0,1-5.2-.276c-9.056-.994-15.847-4.376-19.121-9.522-8.631-13.564-6.083-32.525,1.713-41.726,16.446-19.41,43.74-19.757,62.2-10.066,8.11,4.257,19.463,15.587,19.943,16.067a3.23,3.23,0,0,1-2.286,5.512h-12.35a4.283,4.283,0,0,0-4.239,3.615c-1.235,7.593-4.479,18.416-12.919,26.857-6.765,6.765-18.011,9.539-27.738,9.539M844.9,1349.7c-11.6,0-23.489,4.084-31.8,13.9-6.168,7.28-7.988,23.4-1.192,34.081,2.138,3.36,7.512,5.816,14.376,6.569,10.748,1.18,22.124-1.868,27.667-7.411,7.223-7.222,10.028-16.671,11.11-23.324a10.718,10.718,0,0,1,10.616-9.039h4.182c-3.772-3.363-8.662-7.389-12.49-9.4A49.05,49.05,0,0,0,844.9,1349.7" transform="translate(-648.075 -1086.623)" fill="#1e1b24"/>
        <path id="Trazado_111" data-name="Trazado 111" d="M1135.829,1436.3a29.173,29.173,0,0,0,.7-3.245c.2-1.176.4-2.409.652-3.673a27.459,27.459,0,0,1,1.033-3.87,13.3,13.3,0,0,1,2.043-3.813,1.962,1.962,0,0,1,3.274,2.133l-.048.091a14,14,0,0,0-1.147,6.058c-.025,1.14-.006,2.32,0,3.555a35.513,35.513,0,0,1-.155,3.96l-.009.083a3.247,3.247,0,0,1-6.457-.7,3.482,3.482,0,0,1,.117-.582" transform="translate(-918.811 -1149.601)" fill="#1e1b24"/>
        <path id="Trazado_112" data-name="Trazado 112" d="M627.03,519.855a21.75,21.75,0,0,1-.186-8.4,20.355,20.355,0,0,1,3.241-8.229,17.878,17.878,0,0,1,7.118-6.075,22.056,22.056,0,0,1,8.887-2.042,17.744,17.744,0,0,1,15.959,8.426,22.882,22.882,0,0,1,3.144,8.049,21.562,21.562,0,0,1,.059,8.366,1.289,1.289,0,0,1-2.528-.027l-.015-.085a27.075,27.075,0,0,0-5.755-12.577,13.531,13.531,0,0,0-4.829-3.617,12.508,12.508,0,0,0-5.731-.949,18.435,18.435,0,0,0-6.079,1.3,15.916,15.916,0,0,0-2.6,1.417,15.274,15.274,0,0,0-2.268,1.987c-2.837,3-4.691,7.606-5.876,12.354l-.031.126a1.292,1.292,0,0,1-2.513-.027" transform="translate(-506.878 -400.548)" fill="#1e1b24"/>
        <path id="Trazado_113" data-name="Trazado 113" d="M1128.282,519.755c-1.185-4.748-3.04-9.351-5.877-12.354a15.273,15.273,0,0,0-2.268-1.987,15.919,15.919,0,0,0-2.6-1.417,18.434,18.434,0,0,0-6.079-1.3,12.506,12.506,0,0,0-5.731.949,13.532,13.532,0,0,0-4.829,3.617,27.075,27.075,0,0,0-5.755,12.577l-.016.083a1.288,1.288,0,0,1-2.528.028,21.559,21.559,0,0,1,.059-8.366,22.886,22.886,0,0,1,3.144-8.049,17.744,17.744,0,0,1,15.959-8.426,22.053,22.053,0,0,1,8.887,2.042,17.88,17.88,0,0,1,7.118,6.075,20.354,20.354,0,0,1,3.241,8.229,21.741,21.741,0,0,1-.186,8.4,1.292,1.292,0,0,1-2.513.028Z" transform="translate(-883.641 -400.548)" fill="#1e1b24"/>
      </g>
    </g>
    <text id="COMENZAR" transform="translate(69.412 462.13)" fill="#fff" font-size="28" font-family="Poppins-Bold, Poppins" font-weight="700"><tspan x="0" y="0">COMENZAR</tspan></text>
  </g>
</svg>
