<svg xmlns="http://www.w3.org/2000/svg" xmlns:xlink="http://www.w3.org/1999/xlink" width="1920" height="1005" viewBox="0 0 1920 1005">
  <defs>
    <clipPath id="clip-path">
      <rect id="Rectángulo_126" data-name="Rectángulo 126" width="1920" height="1005" transform="translate(0 75)" fill="#fff" stroke="#707070" stroke-width="1"/>
    </clipPath>
    <clipPath id="clip-path-2">
      <rect id="Rectángulo_112" data-name="Rectángulo 112" width="64.388" height="80.615" fill="none"/>
    </clipPath>
    <clipPath id="clip-path-3">
      <rect id="Rectángulo_113" data-name="Rectángulo 113" width="109.069" height="113.972" fill="none"/>
    </clipPath>
    <clipPath id="clip-path-4">
      <rect id="Rectángulo_113-2" data-name="Rectángulo 113" width="109.069" height="113.972" fill="#4dbfa8"/>
    </clipPath>
    <clipPath id="clip-path-5">
      <rect id="Rectángulo_113-3" data-name="Rectángulo 113" width="109.069" height="113.972" fill="#fff"/>
    </clipPath>
    <clipPath id="clip-path-6">
      <rect id="Rectángulo_115" data-name="Rectángulo 115" width="73.113" height="72.608" fill="none"/>
    </clipPath>
    <clipPath id="clip-path-8">
      <rect id="Rectángulo_115-3" data-name="Rectángulo 115" width="93.637" height="92.99" fill="#6f63b7"/>
    </clipPath>
    <clipPath id="clip-path-9">
      <rect id="Rectángulo_116" data-name="Rectángulo 116" width="68.911" height="55.746" fill="none"/>
    </clipPath>
    <clipPath id="clip-path-10">
      <rect id="Rectángulo_116-2" data-name="Rectángulo 116" width="68.911" height="55.746" fill="#fff"/>
    </clipPath>
    <clipPath id="clip-path-11">
      <rect id="Rectángulo_116-3" data-name="Rectángulo 116" width="68.911" height="55.746" fill="#ff9b39"/>
    </clipPath>
    <clipPath id="clip-path-12">
      <rect id="Rectángulo_117" data-name="Rectángulo 117" width="34.027" height="37.211" fill="none"/>
    </clipPath>
    <clipPath id="clip-path-13">
      <rect id="Rectángulo_117-2" data-name="Rectángulo 117" width="34.027" height="37.211" fill="#fff"/>
    </clipPath>
    <clipPath id="clip-path-14">
      <rect id="Rectángulo_112-2" data-name="Rectángulo 112" width="64.354" height="80.572" fill="#afdce2"/>
    </clipPath>
    <clipPath id="clip-path-15">
      <rect id="Rectángulo_108" data-name="Rectángulo 108" width="99.81" height="43.741" transform="translate(668.623 323.982)" fill="#a5dfd3"/>
    </clipPath>
    <clipPath id="clip-path-16">
      <rect id="Rectángulo_103" data-name="Rectángulo 103" width="108.7" height="84.791" fill="#ffcd9b"/>
    </clipPath>
    <clipPath id="clip-path-17">
      <rect id="Rectángulo_99" data-name="Rectángulo 99" width="64.195" height="64.079" transform="translate(505.76 171.094)" fill="#b6b0db"/>
    </clipPath>
    <clipPath id="clip-path-18">
      <rect id="Rectángulo_102" data-name="Rectángulo 102" width="120.614" height="133.834" fill="#d3ecef"/>
    </clipPath>
    <clipPath id="clip-path-19">
      <rect id="Rectángulo_61" data-name="Rectángulo 61" width="84.234" height="73.671" fill="#b6b0db"/>
    </clipPath>
    <clipPath id="clip-path-20">
      <rect id="Rectángulo_61-2" data-name="Rectángulo 61" width="101.157" height="88.472" fill="#d3ecef"/>
    </clipPath>
    <clipPath id="clip-path-21">
      <rect id="Rectángulo_61-3" data-name="Rectángulo 61" width="84.234" height="73.671" fill="#ffcd9b"/>
    </clipPath>
    <clipPath id="clip-path-22">
      <rect id="Rectángulo_61-4" data-name="Rectángulo 61" width="55.365" height="48.423" fill="#b6b0db"/>
    </clipPath>
  </defs>
  <g id="fondo_home" data-name="fondo home" transform="translate(0 -75)" clip-path="url(#clip-path)">
    <g id="Grupo_199" data-name="Grupo 199">
      <g id="Rectángulo_127" data-name="Rectángulo 127" transform="translate(0 75)" fill="#fff" stroke="#707070" stroke-width="1">
        <rect width="1920" height="1005" stroke="none"/>
        <rect x="0.5" y="0.5" width="1919" height="1004" fill="none"/>
      </g>
      <path id="Trazado_152" data-name="Trazado 152" d="M71.594,999.7H344.371c8.367-19.951,13.122-41.331,12.013-62.854-1.537-29.692-15.3-59.475-39.738-76.439a77.336,77.336,0,0,0-52.071-13.037,78.267,78.267,0,0,0-32.542-7.608,88.891,88.891,0,0,0-23.371,3.085c-16.319,4.178-32.089,11.437-49.092,12.449a55.147,55.147,0,0,1-13.324-.818c-2.377-6.518-4.811-12.995-8.366-18.92-13.122-21.863-42.027-32.517-66.286-25.24Zm80.794-129.774a41.988,41.988,0,0,0,6.25,4.844c6.116,3.835,13.387,5.892,20.579,4.506,7.357-1.418,13.525-6.09,19.7-10.039a63.376,63.376,0,0,1,20.707-8.687,62.125,62.125,0,0,1,14.016-1.42c-.17.123-.344.239-.513.365-17.983,13.46-33.232,37.987-55.309,33.839-11.759-2.226-20.279-12.561-25.428-23.409m107-21.771a64.331,64.331,0,0,0-21.721,8.263,65.575,65.575,0,0,0-21.171,1.915,68.836,68.836,0,0,0-20.736,9.551c-6.165,4.083-12.621,8.8-20.288,9.164-7.375.352-14.485-3.033-20.056-7.655a48.116,48.116,0,0,1-5.694-5.675c-.9-2.276-1.766-4.57-2.605-6.874a59.3,59.3,0,0,0,14.99.6c16.843-1.461,32.4-8.457,48.692-12.388a83.117,83.117,0,0,1,23.264-2.507,76.7,76.7,0,0,1,21.482,4.125c1.3.448,2.573.963,3.844,1.48" transform="translate(-87.646 81.692)" fill="#4dbfa8" opacity="0.5"/>
      <g id="Grupo_153" data-name="Grupo 153" transform="translate(-43.775 945.916)" opacity="0.92">
        <g id="Grupo_152" data-name="Grupo 152">
          <g id="Grupo_151" data-name="Grupo 151" clip-path="url(#clip-path-2)">
            <path id="Trazado_153" data-name="Trazado 153" d="M67.733,926.609a37.523,37.523,0,0,1-6.121-1.6c-1.358-.425-.778-2.57.591-2.141a36.24,36.24,0,0,0,5.545,1.059,35.777,35.777,0,0,0,5.428.356,39.766,39.766,0,0,0,10.95-1.613,40.287,40.287,0,0,0,18.56-11.7c9.977-11.063,14.492-27.982,10.19-42.4a27.024,27.024,0,0,0-12.23-15.773,31.147,31.147,0,0,0-18.232-4.125C68.8,849.79,58.371,861.122,55.559,874.043a30.406,30.406,0,0,0,2.11,19.682c2.859,5.91,7.757,11.223,14.082,13.4,14.724,5.064,28.187-9.271,29.83-23,.884-7.388-1.521-14.873-7.394-19.634a17.1,17.1,0,0,0-9.309-3.861,18.2,18.2,0,0,0-11.05,2.991,21.309,21.309,0,0,0-9.838,18.815,16.737,16.737,0,0,0,12.542,15.1,13.707,13.707,0,0,0,15.911-9.371c1.906-6.276-2.166-12.29-8.323-13.9a9.7,9.7,0,0,0-8.336,1.423c-2.9,2.182-4.562,6.229-3.337,9.749,1.131,3.253,4.789,5.8,8.267,4.852,3.192-.869,5.832-4.693,4.317-7.932-1.257-2.686-4.935-4.091-7.546-2.563a.622.622,0,0,1-.629-1.073,6.719,6.719,0,0,1,8.4,1.427c2.394,2.638,2,6.448-.218,9.063a7.686,7.686,0,0,1-9.429,1.826,9.2,9.2,0,0,1-4.976-8.741,10.931,10.931,0,0,1,5.891-8.8,11.778,11.778,0,0,1,9.04-.385c6.508,2.252,10.495,8.881,8.393,15.632a15.249,15.249,0,0,1-16.907,10.489,18.37,18.37,0,0,1-14.558-15.4c-1.1-8.011,2.83-16.155,9.23-20.913,6.678-4.966,15.559-5.6,22.512-.843,14.844,10.159,11.008,32.457-1.69,42.675-6,4.825-13.921,7.045-21.372,4.478-7.105-2.45-12.668-8.377-15.722-15.131-6.291-13.919-1.471-31.393,10.329-40.876a30.934,30.934,0,0,1,20.249-6.826,33.13,33.13,0,0,1,19.854,7.192c13.59,10.953,13.343,31.6,6.941,46.384A45.918,45.918,0,0,1,97.24,919.35,42.477,42.477,0,0,1,73.7,926.993a39.684,39.684,0,0,1-5.97-.384" transform="translate(-52.675 -846.382)" fill="#dcf3ff"/>
          </g>
        </g>
      </g>
      <path id="Trazado_154" data-name="Trazado 154" d="M219.008,981.507a37.523,37.523,0,0,1-6.121-1.6c-1.36-.425-.78-2.57.591-2.141a36.241,36.241,0,0,0,5.545,1.059,35.762,35.762,0,0,0,5.428.356,39.761,39.761,0,0,0,10.95-1.613,40.287,40.287,0,0,0,18.56-11.7c9.977-11.063,14.492-27.982,10.19-42.4a27.02,27.02,0,0,0-12.23-15.773,31.147,31.147,0,0,0-18.232-4.125c-13.612,1.114-24.043,12.445-26.855,25.366a30.406,30.406,0,0,0,2.11,19.682c2.859,5.91,7.757,11.223,14.082,13.4,14.724,5.064,28.187-9.271,29.83-23,.884-7.387-1.521-14.872-7.394-19.633a17.1,17.1,0,0,0-9.309-3.861,18.2,18.2,0,0,0-11.05,2.991,21.309,21.309,0,0,0-9.838,18.815,16.737,16.737,0,0,0,12.542,15.1,13.707,13.707,0,0,0,15.911-9.371c1.906-6.276-2.166-12.29-8.323-13.9a9.705,9.705,0,0,0-8.338,1.423c-2.894,2.182-4.56,6.229-3.335,9.749,1.13,3.253,4.789,5.8,8.267,4.852,3.191-.869,5.832-4.695,4.317-7.932-1.257-2.686-4.935-4.091-7.548-2.563a.622.622,0,0,1-.627-1.073,6.719,6.719,0,0,1,8.4,1.427c2.394,2.638,2,6.448-.22,9.063a7.684,7.684,0,0,1-9.428,1.826,9.2,9.2,0,0,1-4.976-8.741,10.931,10.931,0,0,1,5.891-8.8,11.778,11.778,0,0,1,9.04-.385c6.508,2.252,10.495,8.881,8.393,15.632a15.249,15.249,0,0,1-16.907,10.489,18.368,18.368,0,0,1-14.558-15.4c-1.1-8.011,2.828-16.155,9.23-20.913,6.678-4.966,15.559-5.6,22.512-.843,14.844,10.159,11.008,32.457-1.69,42.675-6,4.825-13.921,7.045-21.372,4.478-7.105-2.45-12.668-8.377-15.722-15.131-6.292-13.919-1.471-31.393,10.329-40.876A30.934,30.934,0,0,1,237.3,901.29a33.13,33.13,0,0,1,19.854,7.192c13.59,10.953,13.343,31.6,6.94,46.384a45.9,45.9,0,0,1-15.581,19.382,42.477,42.477,0,0,1-23.538,7.643,39.683,39.683,0,0,1-5.97-.384" transform="translate(-26.057 125.08)" fill="#4dbfa8"/>
      <g id="Grupo_156" data-name="Grupo 156" transform="translate(46.483 1011.437)" opacity="0.92">
        <g id="Grupo_155" data-name="Grupo 155">
          <g id="Grupo_154" data-name="Grupo 154" clip-path="url(#clip-path-3)">
            <path id="Trazado_155" data-name="Trazado 155" d="M188.706,1003.242q12.645-28.053,25.287-56.106l6.692-14.831A450.565,450.565,0,0,0,179.7,906.822q-10.865-5.959-22.052-11.3c-3.306-1.574-7.085-3.392-10.594-1.332-2.695,1.584-4.351,4.563-5.68,7.286-3.69,7.561-6.881,15.42-10.089,23.195q-4.862,11.786-9.3,23.744-2.216,5.979-4.323,12c-.673,1.92-1.52,4.032-1.168,6.1a6.708,6.708,0,0,0,2.317,3.811c2.583,2.3,6.124,3.511,9.237,4.891l11.992,5.316,12.2,5.406c3.786,1.678,7.605,3.76,11.619,4.839a8.769,8.769,0,0,0,5.483,0,7.594,7.594,0,0,0,3.586-3.392c1.95-3.3,3.065-7.189,4.443-10.751q4.754-12.289,9.52-24.575,1.161-2.994,2.323-5.989a32.7,32.7,0,0,0,1.986-5.959c.68-3.81-1.41-6.648-4.312-8.843-3.145-2.378-6.672-4.315-10.011-6.4q-5.655-3.539-11.312-7.076c-1.78-1.114-3.545-2.261-5.35-3.334-1.571-.933-3.561-2.026-5.447-1.5-1.735.481-2.6,2.315-3.253,3.832-.844,1.946-1.628,3.92-2.44,5.879q-5.029,12.137-10.06,24.273c-1.556,3.756-3.338,7.706-3.253,11.856a14.273,14.273,0,0,0,4.074,9.18,46.662,46.662,0,0,0,7.769,6.569,13.92,13.92,0,0,0,5.13,2.57,4.765,4.765,0,0,0,4.888-2.047c1.133-1.465,2.059-3.123,3.041-4.691,1.077-1.72,2.138-3.451,3.148-5.212a64.361,64.361,0,0,0,5.127-10.936c1.226-3.558,2.254-7.532,1.4-11.292a8.17,8.17,0,0,0-6.421-6.491c-3.553-.568-5.7,2.28-6.679,5.321-1.218,3.776-1.884,7.778-2.768,11.643q-1.433,6.275-2.964,12.527c-.17.7-1.218.4-1.077-.3q1.42-7.084,2.938-14.145.747-3.475,1.493-6.952a24.59,24.59,0,0,1,1.525-5.066c1.306-2.869,3.905-5,7.186-4.721a9.473,9.473,0,0,1,7.363,4.976c1.829,3.493,1.581,7.649.693,11.372a52.309,52.309,0,0,1-4.588,11.726c-1.986,3.844-4.27,7.525-6.566,11.188a12.306,12.306,0,0,1-3.493,4.128,6.46,6.46,0,0,1-5.082.668c-3.628-.9-6.842-3.69-9.681-6a24.936,24.936,0,0,1-6.9-7.97,16.077,16.077,0,0,1-.759-11.551c1.218-4.463,3.306-8.732,5.07-13l8.1-19.584c.828-2,1.564-4.072,2.544-6a6.91,6.91,0,0,1,3.5-3.53,7.129,7.129,0,0,1,5.438.485,45.46,45.46,0,0,1,5.678,3.328l6.04,3.762,12.269,7.642c3.1,1.928,6.461,3.824,8.588,6.884,2.412,3.467,1.707,7.429.315,11.15-1.65,4.4-3.382,8.777-5.074,13.165-3.438,8.917-6.852,17.843-10.334,26.744-1.207,3.09-2.706,6.532-5.832,8.118-3.726,1.89-7.926.513-11.51-1.018-8.744-3.734-17.4-7.7-26.087-11.55-4.06-1.8-8.262-3.427-12.2-5.488-2.863-1.5-5.8-3.678-6.59-7a11.242,11.242,0,0,1,.57-6c.7-2.166,1.5-4.305,2.265-6.446q2.369-6.612,4.871-13.176,4.937-12.955,10.38-25.708,2.754-6.462,5.639-12.866c1.439-3.194,2.922-6.5,5.416-9.029a9.775,9.775,0,0,1,9.648-2.746,32.058,32.058,0,0,1,5.858,2.4q3.007,1.438,5.993,2.916A449.38,449.38,0,0,1,211.909,923.5q5.486,3.6,10.863,7.355a1.232,1.232,0,0,1,.426,1.625q-12.632,28.06-25.277,56.112-3.576,7.926-7.154,15.852c-.63,1.4-2.689.186-2.062-1.2" transform="translate(-114.271 -891.096)" fill="#dcf3ff"/>
          </g>
        </g>
      </g>
      <g id="Grupo_188" data-name="Grupo 188" transform="translate(432.931 503.437)" opacity="0.92">
        <g id="Grupo_155-2" data-name="Grupo 155">
          <g id="Grupo_154-2" data-name="Grupo 154" clip-path="url(#clip-path-4)">
            <path id="Trazado_155-2" data-name="Trazado 155" d="M188.706,1003.242q12.645-28.053,25.287-56.106l6.692-14.831A450.565,450.565,0,0,0,179.7,906.822q-10.865-5.959-22.052-11.3c-3.306-1.574-7.085-3.392-10.594-1.332-2.695,1.584-4.351,4.563-5.68,7.286-3.69,7.561-6.881,15.42-10.089,23.195q-4.862,11.786-9.3,23.744-2.216,5.979-4.323,12c-.673,1.92-1.52,4.032-1.168,6.1a6.708,6.708,0,0,0,2.317,3.811c2.583,2.3,6.124,3.511,9.237,4.891l11.992,5.316,12.2,5.406c3.786,1.678,7.605,3.76,11.619,4.839a8.769,8.769,0,0,0,5.483,0,7.594,7.594,0,0,0,3.586-3.392c1.95-3.3,3.065-7.189,4.443-10.751q4.754-12.289,9.52-24.575,1.161-2.994,2.323-5.989a32.7,32.7,0,0,0,1.986-5.959c.68-3.81-1.41-6.648-4.312-8.843-3.145-2.378-6.672-4.315-10.011-6.4q-5.655-3.539-11.312-7.076c-1.78-1.114-3.545-2.261-5.35-3.334-1.571-.933-3.561-2.026-5.447-1.5-1.735.481-2.6,2.315-3.253,3.832-.844,1.946-1.628,3.92-2.44,5.879q-5.029,12.137-10.06,24.273c-1.556,3.756-3.338,7.706-3.253,11.856a14.273,14.273,0,0,0,4.074,9.18,46.662,46.662,0,0,0,7.769,6.569,13.92,13.92,0,0,0,5.13,2.57,4.765,4.765,0,0,0,4.888-2.047c1.133-1.465,2.059-3.123,3.041-4.691,1.077-1.72,2.138-3.451,3.148-5.212a64.361,64.361,0,0,0,5.127-10.936c1.226-3.558,2.254-7.532,1.4-11.292a8.17,8.17,0,0,0-6.421-6.491c-3.553-.568-5.7,2.28-6.679,5.321-1.218,3.776-1.884,7.778-2.768,11.643q-1.433,6.275-2.964,12.527c-.17.7-1.218.4-1.077-.3q1.42-7.084,2.938-14.145.747-3.475,1.493-6.952a24.59,24.59,0,0,1,1.525-5.066c1.306-2.869,3.905-5,7.186-4.721a9.473,9.473,0,0,1,7.363,4.976c1.829,3.493,1.581,7.649.693,11.372a52.309,52.309,0,0,1-4.588,11.726c-1.986,3.844-4.27,7.525-6.566,11.188a12.306,12.306,0,0,1-3.493,4.128,6.46,6.46,0,0,1-5.082.668c-3.628-.9-6.842-3.69-9.681-6a24.936,24.936,0,0,1-6.9-7.97,16.077,16.077,0,0,1-.759-11.551c1.218-4.463,3.306-8.732,5.07-13l8.1-19.584c.828-2,1.564-4.072,2.544-6a6.91,6.91,0,0,1,3.5-3.53,7.129,7.129,0,0,1,5.438.485,45.46,45.46,0,0,1,5.678,3.328l6.04,3.762,12.269,7.642c3.1,1.928,6.461,3.824,8.588,6.884,2.412,3.467,1.707,7.429.315,11.15-1.65,4.4-3.382,8.777-5.074,13.165-3.438,8.917-6.852,17.843-10.334,26.744-1.207,3.09-2.706,6.532-5.832,8.118-3.726,1.89-7.926.513-11.51-1.018-8.744-3.734-17.4-7.7-26.087-11.55-4.06-1.8-8.262-3.427-12.2-5.488-2.863-1.5-5.8-3.678-6.59-7a11.242,11.242,0,0,1,.57-6c.7-2.166,1.5-4.305,2.265-6.446q2.369-6.612,4.871-13.176,4.937-12.955,10.38-25.708,2.754-6.462,5.639-12.866c1.439-3.194,2.922-6.5,5.416-9.029a9.775,9.775,0,0,1,9.648-2.746,32.058,32.058,0,0,1,5.858,2.4q3.007,1.438,5.993,2.916A449.38,449.38,0,0,1,211.909,923.5q5.486,3.6,10.863,7.355a1.232,1.232,0,0,1,.426,1.625q-12.632,28.06-25.277,56.112-3.576,7.926-7.154,15.852c-.63,1.4-2.689.186-2.062-1.2" transform="translate(-114.271 -891.096)" fill="#4dbfa8"/>
          </g>
        </g>
      </g>
      <rect id="Rectángulo_114" data-name="Rectángulo 114" width="345.05" height="242" transform="translate(-1.738 842)" fill="none"/>
      <path id="Trazado_152-2" data-name="Trazado 152" d="M71.594,999.7l267.019,28.567c8.367-19.951,18.88-69.9,17.77-91.421-1.537-29.692-15.3-59.475-39.738-76.439a77.336,77.336,0,0,0-52.071-13.037,78.267,78.267,0,0,0-32.542-7.608,88.891,88.891,0,0,0-23.371,3.085c-16.319,4.178-32.089,11.437-49.092,12.449a55.147,55.147,0,0,1-13.324-.818c-2.377-6.518-4.811-12.995-8.366-18.92-13.122-21.863-42.027-32.517-66.286-25.24Zm80.794-129.774a41.988,41.988,0,0,0,6.25,4.844c6.116,3.835,13.387,5.892,20.579,4.506,7.357-1.418,13.525-6.09,19.7-10.039a63.376,63.376,0,0,1,20.707-8.687,62.125,62.125,0,0,1,14.016-1.42c-.17.123-.344.239-.513.365-17.983,13.46-33.232,37.987-55.309,33.839-11.759-2.226-20.279-12.561-25.428-23.409m107-21.771a64.331,64.331,0,0,0-21.721,8.263,65.575,65.575,0,0,0-21.171,1.915,68.836,68.836,0,0,0-20.736,9.551c-6.165,4.083-12.621,8.8-20.288,9.164-7.375.352-14.485-3.033-20.056-7.655a48.116,48.116,0,0,1-5.694-5.675c-.9-2.276-1.766-4.57-2.605-6.874a59.3,59.3,0,0,0,14.99.6c16.843-1.461,32.4-8.457,48.692-12.388a83.117,83.117,0,0,1,23.264-2.507,76.7,76.7,0,0,1,21.482,4.125c1.3.448,2.573.963,3.844,1.48" transform="translate(2229.29 1035.501) rotate(169)" fill="#afdce2" opacity="0.55"/>
      <path id="Trazado_154-2" data-name="Trazado 154" d="M219.008,981.507a37.523,37.523,0,0,1-6.121-1.6c-1.36-.425-.78-2.57.591-2.141a36.241,36.241,0,0,0,5.545,1.059,35.762,35.762,0,0,0,5.428.356,39.761,39.761,0,0,0,10.95-1.613,40.287,40.287,0,0,0,18.56-11.7c9.977-11.063,14.492-27.982,10.19-42.4a27.02,27.02,0,0,0-12.23-15.773,31.147,31.147,0,0,0-18.232-4.125c-13.612,1.114-24.043,12.445-26.855,25.366a30.406,30.406,0,0,0,2.11,19.682c2.859,5.91,7.757,11.223,14.082,13.4,14.724,5.064,28.187-9.271,29.83-23,.884-7.387-1.521-14.872-7.394-19.633a17.1,17.1,0,0,0-9.309-3.861,18.2,18.2,0,0,0-11.05,2.991,21.309,21.309,0,0,0-9.838,18.815,16.737,16.737,0,0,0,12.542,15.1,13.707,13.707,0,0,0,15.911-9.371c1.906-6.276-2.166-12.29-8.323-13.9a9.705,9.705,0,0,0-8.338,1.423c-2.894,2.182-4.56,6.229-3.335,9.749,1.13,3.253,4.789,5.8,8.267,4.852,3.191-.869,5.832-4.695,4.317-7.932-1.257-2.686-4.935-4.091-7.548-2.563a.622.622,0,0,1-.627-1.073,6.719,6.719,0,0,1,8.4,1.427c2.394,2.638,2,6.448-.22,9.063a7.684,7.684,0,0,1-9.428,1.826,9.2,9.2,0,0,1-4.976-8.741,10.931,10.931,0,0,1,5.891-8.8,11.778,11.778,0,0,1,9.04-.385c6.508,2.252,10.495,8.881,8.393,15.632a15.249,15.249,0,0,1-16.907,10.489,18.368,18.368,0,0,1-14.558-15.4c-1.1-8.011,2.828-16.155,9.23-20.913,6.678-4.966,15.559-5.6,22.512-.843,14.844,10.159,11.008,32.457-1.69,42.675-6,4.825-13.921,7.045-21.372,4.478-7.105-2.45-12.668-8.377-15.722-15.131-6.292-13.919-1.471-31.393,10.329-40.876A30.934,30.934,0,0,1,237.3,901.29a33.13,33.13,0,0,1,19.854,7.192c13.59,10.953,13.343,31.6,6.94,46.384a45.9,45.9,0,0,1-15.581,19.382,42.477,42.477,0,0,1-23.538,7.643,39.683,39.683,0,0,1-5.97-.384" transform="translate(2152.389 1029.102) rotate(169)" fill="#afdce2"/>
      <g id="Grupo_156-2" data-name="Grupo 156" transform="translate(1920.221 148.431) rotate(169)" opacity="0.98">
        <g id="Grupo_155-3" data-name="Grupo 155">
          <g id="Grupo_154-3" data-name="Grupo 154" clip-path="url(#clip-path-5)">
            <path id="Trazado_155-3" data-name="Trazado 155" d="M188.706,1003.242q12.645-28.053,25.287-56.106l6.692-14.831A450.565,450.565,0,0,0,179.7,906.822q-10.865-5.959-22.052-11.3c-3.306-1.574-7.085-3.392-10.594-1.332-2.695,1.584-4.351,4.563-5.68,7.286-3.69,7.561-6.881,15.42-10.089,23.195q-4.862,11.786-9.3,23.744-2.216,5.979-4.323,12c-.673,1.92-1.52,4.032-1.168,6.1a6.708,6.708,0,0,0,2.317,3.811c2.583,2.3,6.124,3.511,9.237,4.891l11.992,5.316,12.2,5.406c3.786,1.678,7.605,3.76,11.619,4.839a8.769,8.769,0,0,0,5.483,0,7.594,7.594,0,0,0,3.586-3.392c1.95-3.3,3.065-7.189,4.443-10.751q4.754-12.289,9.52-24.575,1.161-2.994,2.323-5.989a32.7,32.7,0,0,0,1.986-5.959c.68-3.81-1.41-6.648-4.312-8.843-3.145-2.378-6.672-4.315-10.011-6.4q-5.655-3.539-11.312-7.076c-1.78-1.114-3.545-2.261-5.35-3.334-1.571-.933-3.561-2.026-5.447-1.5-1.735.481-2.6,2.315-3.253,3.832-.844,1.946-1.628,3.92-2.44,5.879q-5.029,12.137-10.06,24.273c-1.556,3.756-3.338,7.706-3.253,11.856a14.273,14.273,0,0,0,4.074,9.18,46.662,46.662,0,0,0,7.769,6.569,13.92,13.92,0,0,0,5.13,2.57,4.765,4.765,0,0,0,4.888-2.047c1.133-1.465,2.059-3.123,3.041-4.691,1.077-1.72,2.138-3.451,3.148-5.212a64.361,64.361,0,0,0,5.127-10.936c1.226-3.558,2.254-7.532,1.4-11.292a8.17,8.17,0,0,0-6.421-6.491c-3.553-.568-5.7,2.28-6.679,5.321-1.218,3.776-1.884,7.778-2.768,11.643q-1.433,6.275-2.964,12.527c-.17.7-1.218.4-1.077-.3q1.42-7.084,2.938-14.145.747-3.475,1.493-6.952a24.59,24.59,0,0,1,1.525-5.066c1.306-2.869,3.905-5,7.186-4.721a9.473,9.473,0,0,1,7.363,4.976c1.829,3.493,1.581,7.649.693,11.372a52.309,52.309,0,0,1-4.588,11.726c-1.986,3.844-4.27,7.525-6.566,11.188a12.306,12.306,0,0,1-3.493,4.128,6.46,6.46,0,0,1-5.082.668c-3.628-.9-6.842-3.69-9.681-6a24.936,24.936,0,0,1-6.9-7.97,16.077,16.077,0,0,1-.759-11.551c1.218-4.463,3.306-8.732,5.07-13l8.1-19.584c.828-2,1.564-4.072,2.544-6a6.91,6.91,0,0,1,3.5-3.53,7.129,7.129,0,0,1,5.438.485,45.46,45.46,0,0,1,5.678,3.328l6.04,3.762,12.269,7.642c3.1,1.928,6.461,3.824,8.588,6.884,2.412,3.467,1.707,7.429.315,11.15-1.65,4.4-3.382,8.777-5.074,13.165-3.438,8.917-6.852,17.843-10.334,26.744-1.207,3.09-2.706,6.532-5.832,8.118-3.726,1.89-7.926.513-11.51-1.018-8.744-3.734-17.4-7.7-26.087-11.55-4.06-1.8-8.262-3.427-12.2-5.488-2.863-1.5-5.8-3.678-6.59-7a11.242,11.242,0,0,1,.57-6c.7-2.166,1.5-4.305,2.265-6.446q2.369-6.612,4.871-13.176,4.937-12.955,10.38-25.708,2.754-6.462,5.639-12.866c1.439-3.194,2.922-6.5,5.416-9.029a9.775,9.775,0,0,1,9.648-2.746,32.058,32.058,0,0,1,5.858,2.4q3.007,1.438,5.993,2.916A449.38,449.38,0,0,1,211.909,923.5q5.486,3.6,10.863,7.355a1.232,1.232,0,0,1,.426,1.625q-12.632,28.06-25.277,56.112-3.576,7.926-7.154,15.852c-.63,1.4-2.689.186-2.062-1.2" transform="translate(-114.271 -891.096)" fill="#fff"/>
          </g>
        </g>
      </g>
      <path id="Trazado_156" data-name="Trazado 156" d="M436.724,995.071H876.557V792.858a147.858,147.858,0,0,0-109.945,28.831A93.1,93.1,0,0,0,696.544,873.4c-4.775,9.715-8.344,19.954-12.472,29.947-4.08,9.875-8.8,19.718-15.825,27.871a62.223,62.223,0,0,1-27.615,18.133,74.338,74.338,0,0,1-12.307,2.949,124.462,124.462,0,0,1-15.755-7.326c-18.633-10.232-36.1-23.631-56.827-28.38-29.651-6.8-61.329,5.913-83.4,26.849-15.283,14.5-26.6,32.477-35.616,51.633m325.94-170.308a155.123,155.123,0,0,0-26.439,27.21c-10.49,6.307-19.1,15.9-26.047,25.736-9.75,13.794-16.682,29.231-24.88,43.937-7.427,13.325-16.181,26.53-28.383,35.917a69.632,69.632,0,0,1-24.891-3.952,73.036,73.036,0,0,0,14.111-4.14,62.489,62.489,0,0,0,25.733-19.28c6.536-8.361,11-18.045,14.991-27.818,4.064-9.956,7.658-20.133,12.582-29.715a90.86,90.86,0,0,1,63.223-47.9M673.454,953.815a44.621,44.621,0,0,1-12.722,3.437c12.077-10.234,20.655-23.908,28.135-37.726,8.03-14.834,15.056-30.27,25.132-43.889a92.106,92.106,0,0,1,19.4-19.8,146.982,146.982,0,0,0-14.837,26.225c-11.62,26.627-18.5,60.046-45.1,71.757" transform="translate(1101.546 87.504)" fill="#6f63b7" opacity="0.5"/>
      <path id="Trazado_259" data-name="Trazado 259" d="M436.724,995.071l167.552,138.4L920.363,828.331l-43.806-35.473a147.858,147.858,0,0,0-109.945,28.831A93.1,93.1,0,0,0,696.544,873.4c-4.775,9.715-8.344,19.954-12.472,29.947-4.08,9.875-8.8,19.718-15.825,27.871a62.223,62.223,0,0,1-27.615,18.133,74.338,74.338,0,0,1-12.307,2.949,124.462,124.462,0,0,1-15.755-7.326c-18.633-10.232-36.1-23.631-56.827-28.38-29.651-6.8-61.329,5.913-83.4,26.849-15.283,14.5-26.6,32.477-35.616,51.633m325.94-170.308a155.123,155.123,0,0,0-26.439,27.21c-10.49,6.307-19.1,15.9-26.047,25.736-9.75,13.794-16.682,29.231-24.88,43.937-7.427,13.325-16.181,26.53-28.383,35.917a69.632,69.632,0,0,1-24.891-3.952,73.036,73.036,0,0,0,14.111-4.14,62.489,62.489,0,0,0,25.733-19.28c6.536-8.361,11-18.045,14.991-27.818,4.064-9.956,7.658-20.133,12.582-29.715a90.86,90.86,0,0,1,63.223-47.9M673.454,953.815a44.621,44.621,0,0,1-12.722,3.437c12.077-10.234,20.655-23.908,28.135-37.726,8.03-14.834,15.056-30.27,25.132-43.889a92.106,92.106,0,0,1,19.4-19.8,146.982,146.982,0,0,0-14.837,26.225c-11.62,26.627-18.5,60.046-45.1,71.757" transform="translate(1180.833 498.476) rotate(141)" fill="#ff9b39" opacity="0.5"/>
      <g id="Grupo_161" data-name="Grupo 161" transform="translate(1833.363 1007.392)" opacity="0.76">
        <g id="Grupo_160" data-name="Grupo 160">
          <g id="Grupo_159" data-name="Grupo 159" clip-path="url(#clip-path-6)">
            <path id="Trazado_157" data-name="Trazado 157" d="M647.843,940.527q5.924-4.224,11.907-8.367,11.964-8.284,24.163-16.223,13.79-8.967,27.842-17.528a.958.958,0,0,1,1.428.819c1.17,18.167,1.578,36.363,1.117,54.562-.129,5.1-.35,10.184-.818,15.266a.445.445,0,0,1-.89,0c-.071-9.1.2-18.191.15-27.289s-.247-18.2-.631-27.288q-.289-6.808-.728-13.605-23.2,14.235-45.634,29.669-5.87,4.03-11.683,8.138-2.843,2.008-5.672,4.034c-1.5,1.074-3.277,2.137-4.284,3.733-2.046,3.243,1.556,5.807,4.118,7.1,3.923,1.982,8.132,3.526,12.218,5.133q13.962,5.494,28.375,9.711a309.845,309.845,0,0,1,5.635-30.553c.534-2.242,1.119-4.47,1.7-6.7l-17.386,9.17c-3.231,1.7-6.509,3.339-9.7,5.117-.456.255-1.165.6-1.353,1.135-.208.585.434,1.063.845,1.363,1.411,1.022,2.979,1.872,4.456,2.793l10.522,6.557c1.17.729.094,2.587-1.082,1.854l-10.25-6.384c-1.605-1-3.3-1.926-4.828-3.032-1.209-.872-2.236-2.182-1.729-3.755.493-1.527,2.088-2.259,3.4-2.949l5.467-2.886,10.649-5.618,12.089-6.379a1.091,1.091,0,0,1,1.584,1.219,307.9,307.9,0,0,0-6.73,31.313q-.732,4.555-1.325,9.133a1.1,1.1,0,0,1-1.37,1.043q-13.8-3.989-27.217-9.157-6.683-2.584-13.251-5.451c-2.975-1.3-6.806-3.25-7.475-6.787-.806-4.275,3.414-6.806,6.37-8.913" transform="translate(-641.373 -898.273)" fill="#e9e9ff"/>
          </g>
        </g>
      </g>
      <g id="Grupo_191" data-name="Grupo 191" transform="translate(33.2 244.135) rotate(141)" opacity="0.49">
        <g id="Grupo_160-2" data-name="Grupo 160">
          <g id="Grupo_159-2" data-name="Grupo 159" clip-path="url(#clip-path-6)">
            <path id="Trazado_157-2" data-name="Trazado 157" d="M647.843,940.527q5.924-4.224,11.907-8.367,11.964-8.284,24.163-16.223,13.79-8.967,27.842-17.528a.958.958,0,0,1,1.428.819c1.17,18.167,1.578,36.363,1.117,54.562-.129,5.1-.35,10.184-.818,15.266a.445.445,0,0,1-.89,0c-.071-9.1.2-18.191.15-27.289s-.247-18.2-.631-27.288q-.289-6.808-.728-13.605-23.2,14.235-45.634,29.669-5.87,4.03-11.683,8.138-2.843,2.008-5.672,4.034c-1.5,1.074-3.277,2.137-4.284,3.733-2.046,3.243,1.556,5.807,4.118,7.1,3.923,1.982,8.132,3.526,12.218,5.133q13.962,5.494,28.375,9.711a309.845,309.845,0,0,1,5.635-30.553c.534-2.242,1.119-4.47,1.7-6.7l-17.386,9.17c-3.231,1.7-6.509,3.339-9.7,5.117-.456.255-1.165.6-1.353,1.135-.208.585.434,1.063.845,1.363,1.411,1.022,2.979,1.872,4.456,2.793l10.522,6.557c1.17.729.094,2.587-1.082,1.854l-10.25-6.384c-1.605-1-3.3-1.926-4.828-3.032-1.209-.872-2.236-2.182-1.729-3.755.493-1.527,2.088-2.259,3.4-2.949l5.467-2.886,10.649-5.618,12.089-6.379a1.091,1.091,0,0,1,1.584,1.219,307.9,307.9,0,0,0-6.73,31.313q-.732,4.555-1.325,9.133a1.1,1.1,0,0,1-1.37,1.043q-13.8-3.989-27.217-9.157-6.683-2.584-13.251-5.451c-2.975-1.3-6.806-3.25-7.475-6.787-.806-4.275,3.414-6.806,6.37-8.913" transform="translate(-641.373 -898.273)" fill="#e9e9ff"/>
          </g>
        </g>
      </g>
      <g id="Grupo_187" data-name="Grupo 187" transform="translate(1607.989 712)" opacity="0.49">
        <g id="Grupo_160-3" data-name="Grupo 160">
          <g id="Grupo_159-3" data-name="Grupo 159" clip-path="url(#clip-path-8)">
            <path id="Trazado_157-3" data-name="Trazado 157" d="M649.66,952.389q7.588-5.409,15.249-10.716,15.322-10.609,30.945-20.777,17.661-11.485,35.658-22.448a1.227,1.227,0,0,1,1.828,1.049c1.5,23.266,2.021,46.571,1.431,69.879-.166,6.533-.449,13.043-1.048,19.551a.57.57,0,0,1-1.139,0c-.091-11.65.257-23.3.192-34.949s-.316-23.308-.808-34.949q-.37-8.719-.932-17.424-29.713,18.231-58.445,38-7.518,5.161-14.963,10.422-3.641,2.571-7.265,5.167c-1.92,1.376-4.2,2.736-5.486,4.781-2.621,4.154,1.992,7.437,5.274,9.1,5.024,2.538,10.415,4.516,15.648,6.574q17.881,7.036,36.34,12.437a396.824,396.824,0,0,1,7.216-39.13c.684-2.871,1.433-5.725,2.18-8.58L689.27,952.114c-4.138,2.182-8.337,4.276-12.421,6.553-.584.327-1.492.77-1.733,1.454-.266.749.556,1.362,1.082,1.745,1.807,1.308,3.815,2.4,5.708,3.577q6.738,4.2,13.476,8.4c1.5.934.121,3.313-1.386,2.374q-6.565-4.089-13.127-8.176c-2.056-1.279-4.221-2.467-6.184-3.883-1.549-1.117-2.864-2.8-2.215-4.81.632-1.956,2.674-2.893,4.352-3.777l7-3.7q6.821-3.6,13.638-7.2,7.743-4.084,15.482-8.169a1.4,1.4,0,0,1,2.029,1.561,394.34,394.34,0,0,0-8.62,40.1q-.937,5.834-1.7,11.7A1.409,1.409,0,0,1,702.9,991.2q-17.669-5.109-34.857-11.727-8.558-3.309-16.97-6.981c-3.81-1.664-8.717-4.162-9.573-8.692-1.032-5.474,4.373-8.717,8.159-11.415" transform="translate(-641.373 -898.273)" fill="#6f63b7"/>
          </g>
        </g>
      </g>
      <g id="Grupo_164" data-name="Grupo 164" transform="translate(1633.5 1037.262)" opacity="0.49">
        <g id="Grupo_163" data-name="Grupo 163">
          <g id="Grupo_162" data-name="Grupo 162" clip-path="url(#clip-path-9)">
            <path id="Trazado_158" data-name="Trazado 158" d="M507.418,959.482c1.473-3.3,2.866-6.623,4.385-9.9s3.042-6.527,4.579-9.784c3.071-6.507,6.211-12.982,9.328-19.469q2.62-5.453,5.242-10.906a1.042,1.042,0,0,1,1.63-.21Q549.49,930.108,566.4,951q4.816,5.951,9.634,11.9c.487.6.255,1.854-.725,1.75l-31.11-3.323-7.777-.83a40.875,40.875,0,0,1-6.578-.844,4.548,4.548,0,0,1-3.6-3.99,11.664,11.664,0,0,1,.314-3.188q.36-1.929.721-3.855,1.619-8.67,3.262-17.338a1,1,0,0,1,1.662-.439q10.166,10.737,20.379,21.429c.888.934-.527,2.355-1.417,1.417q-9.517-10.029-19.046-20.046-1.165,6.315-2.339,12.628c-.456,2.441-.937,4.877-1.365,7.322a4.71,4.71,0,0,0,.065,2.765,2.782,2.782,0,0,0,1.91,1.33,41.4,41.4,0,0,0,6.683.839l7.129.76,14.584,1.553,14.183,1.512q-16.105-19.888-32.214-39.773-4.339-5.356-8.68-10.715c-6.019,12.494-12.02,25-18.231,37.4-1.8,3.6-3.722,7.136-5.575,10.711-.3.57-1.1.07-.848-.495" transform="translate(-507.37 -908.911)" fill="#e9e9ff"/>
          </g>
        </g>
      </g>
      <g id="Grupo_190" data-name="Grupo 190" transform="translate(169.726 95.144) rotate(141)">
        <g id="Grupo_163-2" data-name="Grupo 163">
          <g id="Grupo_162-2" data-name="Grupo 162" clip-path="url(#clip-path-10)">
            <path id="Trazado_158-2" data-name="Trazado 158" d="M507.418,959.482c1.473-3.3,2.866-6.623,4.385-9.9s3.042-6.527,4.579-9.784c3.071-6.507,6.211-12.982,9.328-19.469q2.62-5.453,5.242-10.906a1.042,1.042,0,0,1,1.63-.21Q549.49,930.108,566.4,951q4.816,5.951,9.634,11.9c.487.6.255,1.854-.725,1.75l-31.11-3.323-7.777-.83a40.875,40.875,0,0,1-6.578-.844,4.548,4.548,0,0,1-3.6-3.99,11.664,11.664,0,0,1,.314-3.188q.36-1.929.721-3.855,1.619-8.67,3.262-17.338a1,1,0,0,1,1.662-.439q10.166,10.737,20.379,21.429c.888.934-.527,2.355-1.417,1.417q-9.517-10.029-19.046-20.046-1.165,6.315-2.339,12.628c-.456,2.441-.937,4.877-1.365,7.322a4.71,4.71,0,0,0,.065,2.765,2.782,2.782,0,0,0,1.91,1.33,41.4,41.4,0,0,0,6.683.839l7.129.76,14.584,1.553,14.183,1.512q-16.105-19.888-32.214-39.773-4.339-5.356-8.68-10.715c-6.019,12.494-12.02,25-18.231,37.4-1.8,3.6-3.722,7.136-5.575,10.711-.3.57-1.1.07-.848-.495" transform="translate(-507.37 -908.911)" fill="#fff"/>
          </g>
        </g>
      </g>
      <g id="Grupo_193" data-name="Grupo 193" transform="translate(361.726 238.906) rotate(141)" opacity="0.49">
        <g id="Grupo_163-3" data-name="Grupo 163">
          <g id="Grupo_162-3" data-name="Grupo 162" clip-path="url(#clip-path-11)">
            <path id="Trazado_158-3" data-name="Trazado 158" d="M507.418,959.482c1.473-3.3,2.866-6.623,4.385-9.9s3.042-6.527,4.579-9.784c3.071-6.507,6.211-12.982,9.328-19.469q2.62-5.453,5.242-10.906a1.042,1.042,0,0,1,1.63-.21Q549.49,930.108,566.4,951q4.816,5.951,9.634,11.9c.487.6.255,1.854-.725,1.75l-31.11-3.323-7.777-.83a40.875,40.875,0,0,1-6.578-.844,4.548,4.548,0,0,1-3.6-3.99,11.664,11.664,0,0,1,.314-3.188q.36-1.929.721-3.855,1.619-8.67,3.262-17.338a1,1,0,0,1,1.662-.439q10.166,10.737,20.379,21.429c.888.934-.527,2.355-1.417,1.417q-9.517-10.029-19.046-20.046-1.165,6.315-2.339,12.628c-.456,2.441-.937,4.877-1.365,7.322a4.71,4.71,0,0,0,.065,2.765,2.782,2.782,0,0,0,1.91,1.33,41.4,41.4,0,0,0,6.683.839l7.129.76,14.584,1.553,14.183,1.512q-16.105-19.888-32.214-39.773-4.339-5.356-8.68-10.715c-6.019,12.494-12.02,25-18.231,37.4-1.8,3.6-3.722,7.136-5.575,10.711-.3.57-1.1.07-.848-.495" transform="translate(-507.37 -908.911)" fill="#ff9b39"/>
          </g>
        </g>
      </g>
      <g id="Grupo_167" data-name="Grupo 167" transform="translate(1852.906 946.216)" opacity="0.77">
        <g id="Grupo_166" data-name="Grupo 166">
          <g id="Grupo_165" data-name="Grupo 165" clip-path="url(#clip-path-12)">
            <path id="Trazado_159" data-name="Trazado 159" d="M670.837,862.543a50.714,50.714,0,0,1,3.712-6.753,60.834,60.834,0,0,1,9.673-11.653q1.4-1.312,2.885-2.529c.969-.8,2.366.586,1.388,1.387a59.605,59.605,0,0,0-9.356,9.595,58.871,58.871,0,0,0-3.734,5.447,30.125,30.125,0,0,0-3.2,6.184c-.662,2.085.462,3.4,2.271,4.276a46.123,46.123,0,0,0,6.406,2.135q7.609,2.382,15.219,4.761c1.109.346,2.213.717,3.33,1.039.784.226,2.19.65,2.684-.282.446-.846.088-2.251.011-3.145l-.328-3.87-1.343-15.8-.658-7.74c-.016-.2.009-1.581-.179-1.657.17.067-.309.328-.345.357a8.613,8.613,0,0,0-.616.619q-1.355,1.383-2.715,2.758l-5.55,5.621-2.6,2.638a19.961,19.961,0,0,0-2.619,2.793c-1.36,2.075,1.131,3.5,2.77,4.2,1.671.714,4.088,1.62,5.865.763,1.866-.9,1.574-3.246,1.384-4.948-.21-1.892-.472-3.885.652-5.56a.526.526,0,0,1,.909.531c-.938,1.775-.218,4.018.008,5.888.229,1.887-.008,3.894-1.636,5.114-1.688,1.264-4,.966-5.895.412-1.87-.547-4.008-1.353-5.284-2.9-1.576-1.9-.759-4.014.767-5.639,2.035-2.169,4.15-4.268,6.225-6.4q3.15-3.235,6.3-6.466c.751-.766,1.705-1.831,2.912-1.527,1.154.291,1.333,1.421,1.421,2.434.527,6.019,1.029,12.04,1.543,18.06l.772,9.03c.181,2.107,1.018,5.481-1.476,6.581a4.914,4.914,0,0,1-3.245.007c-1.406-.379-2.792-.861-4.181-1.3l-8.542-2.665-8.7-2.712c-2.112-.659-4.451-1.225-6.129-2.762-1.9-1.736-1.743-4.131-.775-6.326" transform="translate(-670.137 -841.368)" fill="#e9e9ff"/>
          </g>
        </g>
      </g>
      <g id="Grupo_192" data-name="Grupo 192" transform="translate(56.512 303.977) rotate(141)">
        <g id="Grupo_166-2" data-name="Grupo 166">
          <g id="Grupo_165-2" data-name="Grupo 165" clip-path="url(#clip-path-13)">
            <path id="Trazado_159-2" data-name="Trazado 159" d="M670.837,862.543a50.714,50.714,0,0,1,3.712-6.753,60.834,60.834,0,0,1,9.673-11.653q1.4-1.312,2.885-2.529c.969-.8,2.366.586,1.388,1.387a59.605,59.605,0,0,0-9.356,9.595,58.871,58.871,0,0,0-3.734,5.447,30.125,30.125,0,0,0-3.2,6.184c-.662,2.085.462,3.4,2.271,4.276a46.123,46.123,0,0,0,6.406,2.135q7.609,2.382,15.219,4.761c1.109.346,2.213.717,3.33,1.039.784.226,2.19.65,2.684-.282.446-.846.088-2.251.011-3.145l-.328-3.87-1.343-15.8-.658-7.74c-.016-.2.009-1.581-.179-1.657.17.067-.309.328-.345.357a8.613,8.613,0,0,0-.616.619q-1.355,1.383-2.715,2.758l-5.55,5.621-2.6,2.638a19.961,19.961,0,0,0-2.619,2.793c-1.36,2.075,1.131,3.5,2.77,4.2,1.671.714,4.088,1.62,5.865.763,1.866-.9,1.574-3.246,1.384-4.948-.21-1.892-.472-3.885.652-5.56a.526.526,0,0,1,.909.531c-.938,1.775-.218,4.018.008,5.888.229,1.887-.008,3.894-1.636,5.114-1.688,1.264-4,.966-5.895.412-1.87-.547-4.008-1.353-5.284-2.9-1.576-1.9-.759-4.014.767-5.639,2.035-2.169,4.15-4.268,6.225-6.4q3.15-3.235,6.3-6.466c.751-.766,1.705-1.831,2.912-1.527,1.154.291,1.333,1.421,1.421,2.434.527,6.019,1.029,12.04,1.543,18.06l.772,9.03c.181,2.107,1.018,5.481-1.476,6.581a4.914,4.914,0,0,1-3.245.007c-1.406-.379-2.792-.861-4.181-1.3l-8.542-2.665-8.7-2.712c-2.112-.659-4.451-1.225-6.129-2.762-1.9-1.736-1.743-4.131-.775-6.326" transform="translate(-670.137 -841.368)" fill="#fff"/>
          </g>
        </g>
      </g>
      <g id="Grupo_153-2" data-name="Grupo 153" transform="translate(1339.546 267.491) rotate(169)" opacity="0.92">
        <g id="Grupo_152-2" data-name="Grupo 152">
          <g id="Grupo_151-2" data-name="Grupo 151" clip-path="url(#clip-path-14)">
            <path id="Trazado_153-2" data-name="Trazado 153" d="M67.725,926.567a37.509,37.509,0,0,1-6.117-1.6c-1.358-.425-.778-2.569.59-2.14a36.217,36.217,0,0,0,5.542,1.059,35.771,35.771,0,0,0,5.425.356,39.747,39.747,0,0,0,10.945-1.613,40.266,40.266,0,0,0,18.55-11.692c9.972-11.057,14.484-27.967,10.185-42.377A27.01,27.01,0,0,0,100.62,852.8,31.131,31.131,0,0,0,82.4,848.676c-13.6,1.113-24.03,12.438-26.841,25.353A30.39,30.39,0,0,0,57.666,893.7c2.857,5.907,7.753,11.217,14.074,13.39,14.716,5.062,28.172-9.266,29.814-22.989.883-7.384-1.52-14.865-7.39-19.624a17.092,17.092,0,0,0-9.3-3.859,18.194,18.194,0,0,0-11.044,2.989,21.3,21.3,0,0,0-9.833,18.8A16.728,16.728,0,0,0,76.518,897.5a13.7,13.7,0,0,0,15.9-9.366c1.905-6.273-2.165-12.283-8.319-13.894a9.7,9.7,0,0,0-8.332,1.422c-2.894,2.181-4.559,6.226-3.335,9.744,1.131,3.251,4.786,5.8,8.263,4.849,3.19-.869,5.829-4.691,4.315-7.928-1.257-2.685-4.933-4.089-7.542-2.562a.622.622,0,0,1-.628-1.072,6.715,6.715,0,0,1,8.4,1.427c2.393,2.636,2,6.444-.218,9.058a7.682,7.682,0,0,1-9.424,1.825,9.194,9.194,0,0,1-4.974-8.736,10.925,10.925,0,0,1,5.888-8.8,11.773,11.773,0,0,1,9.035-.385c6.5,2.251,10.489,8.877,8.389,15.624a15.241,15.241,0,0,1-16.9,10.483,18.36,18.36,0,0,1-14.55-15.39c-1.1-8.007,2.828-16.147,9.225-20.9,6.674-4.963,15.551-5.6,22.5-.842,14.836,10.154,11,32.44-1.689,42.652-5.994,4.823-13.913,7.042-21.361,4.476-7.1-2.449-12.661-8.373-15.713-15.123-6.287-13.912-1.47-31.377,10.324-40.854a30.917,30.917,0,0,1,20.239-6.822,33.113,33.113,0,0,1,19.843,7.188c13.582,10.948,13.336,31.579,6.938,46.359a45.893,45.893,0,0,1-15.574,19.372,42.453,42.453,0,0,1-23.525,7.639,39.658,39.658,0,0,1-5.967-.384" transform="translate(-52.675 -846.382)" fill="#afdce2"/>
          </g>
        </g>
      </g>
      <g id="Grupo_143" data-name="Grupo 143" transform="translate(1481.912 13.106) rotate(69)" opacity="0.58">
        <g id="Grupo_142" data-name="Grupo 142">
          <g id="Grupo_141" data-name="Grupo 141" clip-path="url(#clip-path-15)">
            <path id="Trazado_145" data-name="Trazado 145" d="M763.819,345.852a12.339,12.339,0,1,0-19.711-6.8H692.946a12.324,12.324,0,1,0-19.711,6.8,12.3,12.3,0,1,0,20.041,9.543c0-.34-.073-.66-.1-.995h50.7c-.027.335-.1.655-.1.995a12.327,12.327,0,1,0,20.041-9.543" fill="#a5dfd3"/>
          </g>
        </g>
      </g>
      <g id="Grupo_129" data-name="Grupo 129" transform="translate(981.421 -134.192)" opacity="0.84">
        <g id="Grupo_128" data-name="Grupo 128" transform="translate(502.499 444.516)">
          <g id="Grupo_127" data-name="Grupo 127" clip-path="url(#clip-path-16)">
            <path id="Trazado_122" data-name="Trazado 122" d="M556.543,494.637c28.665,0,51.9-11.669,51.9-26.064s-23.24-24.056-51.9-24.056-51.9,9.66-51.9,24.056,23.237,26.064,51.9,26.064" transform="translate(-501.817 -444.516)" fill="#ffcd9b"/>
            <path id="Trazado_123" data-name="Trazado 123" d="M556.848,491.75c-30.016,0-54.349-12.148-54.349-27.132v31.153c0,14.984,24.333,27.131,54.349,27.131S611.2,510.755,611.2,495.771V464.618c0,14.984-24.333,27.132-54.351,27.132m21.687,18.214a5.357,5.357,0,1,1-10.715,0c0-.146.032-.286.044-.431H545.833c.012.145.044.285.044.431a5.357,5.357,0,1,1-8.709-4.146,5.363,5.363,0,1,1,8.565-2.956h22.231a5.356,5.356,0,1,1,8.566,2.956,5.321,5.321,0,0,1,2.006,4.146" transform="translate(-502.499 -438.112)" fill="#ffcd9b"/>
          </g>
        </g>
      </g>
      <g id="Grupo_121" data-name="Grupo 121" transform="translate(-255 186)" opacity="0.51">
        <g id="Grupo_120" data-name="Grupo 120">
          <g id="Grupo_119" data-name="Grupo 119" clip-path="url(#clip-path-17)">
            <path id="Trazado_115" data-name="Trazado 115" d="M534.1,231.292A16.908,16.908,0,0,1,538.1,217.41c.557-.673,1.143-1.356,1.738-2.049,3.37-3.92,6.857-7.976,6.437-11.857-.26-2.412-2.1-4.934-5.463-7.5-3.39-2.523-6.321-3.6-8.713-3.183-3.845.666-6.782,5.135-9.622,9.455-.5.763-1,1.516-1.49,2.237a16.914,16.914,0,0,1-12.241,7.678c-.552.063-1.11.1-1.672.1a32.111,32.111,0,0,0,28.174,22.877,17.462,17.462,0,0,1-1.155-3.881" fill="#b6b0db"/>
            <path id="Trazado_116" data-name="Trazado 116" d="M537.858,171.094a32.1,32.1,0,0,0-32.1,32.1c0,1.028.055,2.044.149,3.047a11.49,11.49,0,0,0,2.165-.023,11.065,11.065,0,0,0,7.948-5.093c.473-.693.948-1.415,1.431-2.148,3.378-5.141,7.209-10.967,13.624-12.079,4.091-.71,8.407.667,13.176,4.175l.006-.008a.357.357,0,0,1,.04.028c.051.037.091.075.14.112s.1.066.146.1c.014.01.025.02.038.031l-.007.009c4.688,3.617,7.2,7.386,7.648,11.514.7,6.474-3.846,11.761-7.857,16.426-.572.666-1.134,1.322-1.671,1.967a11.059,11.059,0,0,0-2.7,9.045,12.512,12.512,0,0,0,1.917,4.722,32.093,32.093,0,0,0-4.092-63.924" fill="#b6b0db"/>
          </g>
        </g>
      </g>
      <g id="Grupo_126" data-name="Grupo 126" transform="translate(218.361 469)" opacity="0.78">
        <g id="Grupo_125" data-name="Grupo 125" transform="translate(192.079 434.428)">
          <g id="Grupo_124" data-name="Grupo 124" clip-path="url(#clip-path-18)">
            <path id="Trazado_120" data-name="Trazado 120" d="M252.487,434.428l-60.409,58.426,6.585,6.807,53.814-52.049L306.1,499.656l6.592-6.8Z" transform="translate(-192.079 -434.428)" fill="#d3ecef"/>
            <path id="Trazado_121" data-name="Trazado 121" d="M202.205,486.991v74.374h17.459V538.682h.024c0-.168-.024-.333-.024-.5a27.42,27.42,0,1,1,54.841,0c0,.165-.021.329-.023.5h.023v22.683h15.486V486.991L246.1,445.367Zm54.048,2.4a4.475,4.475,0,1,1,7.273,3.466,4.466,4.466,0,1,1-7.273,3.465,3.513,3.513,0,0,1,.036-.359H237.878a3.5,3.5,0,0,1,.039.359,4.477,4.477,0,1,1-7.277-3.465,4.483,4.483,0,1,1,7.156-2.472h18.574a4.538,4.538,0,0,1-.117-.995" transform="translate(-185.695 -427.531)" fill="#d3ecef"/>
          </g>
        </g>
      </g>
      <g id="Grupo_195" data-name="Grupo 195" transform="matrix(0.985, 0.174, -0.174, 0.985, 1193.513, 496.41)">
        <g id="Grupo_18" data-name="Grupo 18" clip-path="url(#clip-path-19)">
          <path id="Trazado_21" data-name="Trazado 21" d="M63.02,96.245c-9.36-.042-11.788,7.76-20.477,14.68-12.747,10.151-10.686,19.32-3.152,21.421s14.261-5.412,22.5-5.035l.077,0h.077c8.25.087,14.456,7.964,22.118,6.29s10.339-10.709-1.7-21.558c-8.2-7.394-10.1-15.318-19.446-15.8" transform="translate(-20.853 -60.167)" fill="#b6b0db"/>
          <path id="Trazado_22" data-name="Trazado 22" d="M20.377,66.068c2.178,7.906-.446,15.064-5.862,15.986S2.944,77.314.766,69.408s.446-15.064,5.862-15.986S18.2,58.161,20.377,66.068" transform="translate(0 -33.335)" fill="#b6b0db"/>
          <path id="Trazado_23" data-name="Trazado 23" d="M166.876,70.048c-3.3,7.557-1.759,15.027,3.448,16.686s12.105-3.122,15.407-10.679,1.759-15.027-3.448-16.686-12.105,3.122-15.407,10.679" transform="translate(-103.236 -36.909)" fill="#b6b0db"/>
          <path id="Trazado_24" data-name="Trazado 24" d="M72.2,14.985c.366,8.348-4.175,15.175-10.144,15.247s-11.1-6.637-11.47-14.985S54.764.072,60.732,0s11.1,6.637,11.47,14.985" transform="translate(-31.612 0)" fill="#b6b0db"/>
          <path id="Trazado_25" data-name="Trazado 25" d="M120.2,15.934c-1.369,8.262,2.316,15.546,8.23,16.27s11.818-5.387,13.187-13.649S139.3,3.009,133.39,2.285,121.572,7.672,120.2,15.934" transform="translate(-74.966 -1.392)" fill="#b6b0db"/>
        </g>
      </g>
      <g id="Grupo_196" data-name="Grupo 196" transform="matrix(0.985, 0.174, -0.174, 0.985, 802.417, 77.407)">
        <g id="Grupo_18-2" data-name="Grupo 18" clip-path="url(#clip-path-20)">
          <path id="Trazado_21-2" data-name="Trazado 21" d="M68.98,96.245c-11.24-.05-14.156,9.319-24.59,17.629-15.308,12.191-12.833,23.2-3.785,25.725s17.126-6.5,27.021-6.047l.092,0h.092c9.907.1,17.36,9.565,26.561,7.554s12.416-12.861-2.039-25.889c-9.853-8.88-12.13-18.4-23.352-18.977" transform="translate(-18.341 -52.919)" fill="#d3ecef"/>
          <path id="Trazado_22-2" data-name="Trazado 22" d="M24.471,68.628c2.615,9.495-.536,18.09-7.04,19.2S3.536,82.134.92,72.639s.536-18.09,7.039-19.2,13.9,5.692,16.511,15.187" transform="translate(0 -29.319)" fill="#d3ecef"/>
          <path id="Trazado_23-2" data-name="Trazado 23" d="M167.225,72.259c-3.966,9.075-2.112,18.046,4.141,20.039s14.537-3.749,18.5-12.824,2.112-18.046-4.141-20.039-14.537,3.75-18.5,12.824" transform="translate(-90.8 -32.463)" fill="#d3ecef"/>
          <path id="Trazado_24-2" data-name="Trazado 24" d="M76.548,18c.439,10.025-5.014,18.223-12.182,18.31s-13.334-7.97-13.774-18S55.607.087,62.774,0,76.108,7.97,76.548,18" transform="translate(-27.804 0)" fill="#d3ecef"/>
          <path id="Trazado_25-2" data-name="Trazado 25" d="M120.26,18.687c-1.644,9.921,2.781,18.669,9.884,19.539s14.192-6.469,15.836-16.391S143.2,3.166,136.1,2.3,121.9,8.766,120.26,18.687" transform="translate(-65.935 -1.224)" fill="#d3ecef"/>
        </g>
      </g>
      <g id="Grupo_197" data-name="Grupo 197" transform="matrix(0.985, 0.174, -0.174, 0.985, 732.046, 1011)">
        <g id="Grupo_18-3" data-name="Grupo 18" clip-path="url(#clip-path-21)">
          <path id="Trazado_21-3" data-name="Trazado 21" d="M63.02,96.245c-9.36-.042-11.788,7.76-20.477,14.68-12.747,10.151-10.686,19.32-3.152,21.421s14.261-5.412,22.5-5.035l.077,0h.077c8.25.087,14.456,7.964,22.118,6.29s10.339-10.709-1.7-21.558c-8.2-7.394-10.1-15.318-19.446-15.8" transform="translate(-20.853 -60.167)" fill="#ffcd9b"/>
          <path id="Trazado_22-3" data-name="Trazado 22" d="M20.377,66.068c2.178,7.906-.446,15.064-5.862,15.986S2.944,77.314.766,69.408s.446-15.064,5.862-15.986S18.2,58.161,20.377,66.068" transform="translate(0 -33.335)" fill="#ffcd9b"/>
          <path id="Trazado_23-3" data-name="Trazado 23" d="M166.876,70.048c-3.3,7.557-1.759,15.027,3.448,16.686s12.105-3.122,15.407-10.679,1.759-15.027-3.448-16.686-12.105,3.122-15.407,10.679" transform="translate(-103.236 -36.909)" fill="#ffcd9b"/>
          <path id="Trazado_24-3" data-name="Trazado 24" d="M72.2,14.985c.366,8.348-4.175,15.175-10.144,15.247s-11.1-6.637-11.47-14.985S54.764.072,60.732,0s11.1,6.637,11.47,14.985" transform="translate(-31.612 0)" fill="#ffcd9b"/>
          <path id="Trazado_25-3" data-name="Trazado 25" d="M120.2,15.934c-1.369,8.262,2.316,15.546,8.23,16.27s11.818-5.387,13.187-13.649S139.3,3.009,133.39,2.285,121.572,7.672,120.2,15.934" transform="translate(-74.966 -1.392)" fill="#ffcd9b"/>
        </g>
      </g>
      <g id="Grupo_198" data-name="Grupo 198" transform="matrix(0.985, 0.174, -0.174, 0.985, 68.214, 723.275)">
        <g id="Grupo_18-4" data-name="Grupo 18" clip-path="url(#clip-path-22)">
          <path id="Trazado_21-4" data-name="Trazado 21" d="M52.854,96.245c-6.152-.027-7.748,5.1-13.459,9.649-8.378,6.672-7.024,12.7-2.072,14.08s9.373-3.558,14.789-3.309l.051,0h.051c5.422.057,9.5,5.235,14.538,4.135s6.8-7.039-1.116-14.17C60.243,101.771,59,96.563,52.854,96.245" transform="translate(-25.138 -72.532)" fill="#b6b0db"/>
          <path id="Trazado_22-4" data-name="Trazado 22" d="M13.394,61.7c1.431,5.2-.293,9.9-3.853,10.507S1.935,69.092.5,63.9s.293-9.9,3.853-10.507S11.962,56.5,13.394,61.7" transform="translate(0 -40.185)" fill="#b6b0db"/>
          <path id="Trazado_23-4" data-name="Trazado 23" d="M166.28,66.275c-2.171,4.967-1.156,9.877,2.266,10.968s7.956-2.052,10.127-7.019,1.156-9.877-2.266-10.968-7.956,2.052-10.127,7.019" transform="translate(-124.451 -44.494)" fill="#b6b0db"/>
          <path id="Trazado_24-4" data-name="Trazado 24" d="M64.788,9.849c.24,5.487-2.744,9.974-6.667,10.022s-7.3-4.362-7.539-9.85S53.326.047,57.248,0s7.3,4.362,7.539,9.849" transform="translate(-38.109 0)" fill="#b6b0db"/>
          <path id="Trazado_25-4" data-name="Trazado 25" d="M120.1,11.236c-.9,5.43,1.522,10.218,5.41,10.694s7.768-3.541,8.667-8.971-1.522-10.218-5.41-10.694S121,5.806,120.1,11.236" transform="translate(-90.372 -1.678)" fill="#b6b0db"/>
        </g>
      </g>
    </g>
  </g>
</svg>
