<svg id="Grupo_349" data-name="Grupo 349" xmlns="http://www.w3.org/2000/svg" xmlns:xlink="http://www.w3.org/1999/xlink" width="166.155" height="205.285" viewBox="0 0 166.155 205.285">
  <defs>
    <clipPath id="clip-path">
      <rect id="Rectángulo_184" data-name="Rectángulo 184" width="166.155" height="205.285" fill="#4dbfa8"/>
    </clipPath>
  </defs>
  <g id="Grupo_335" data-name="Grupo 335" clip-path="url(#clip-path)">
    <path id="Trazado_417" data-name="Trazado 417" d="M55.092,0H59.5c1.11.421,2.257.766,3.325,1.276a6.81,6.81,0,0,1,3.561,8.25C65.342,12.8,62,15.05,58.775,14.241a3.746,3.746,0,0,0-4.252,1.338c-2.937,3.783-5.818,7.616-8.536,11.557a66.4,66.4,0,0,0-3.5,6.488c2.043.414,3.741,1.106,5.406,1.033a27.966,27.966,0,0,1,16.028,4.167,5.1,5.1,0,0,0,3.108.633c4.733-.674,8.858.321,12.34,3.751a3.809,3.809,0,0,0,2.392,1.027q13.43.108,26.862,0a3.806,3.806,0,0,0,2.389-1.032c3.481-3.432,7.609-4.417,12.341-3.743a5.061,5.061,0,0,0,3.105-.64,28.674,28.674,0,0,1,15.029-4.232,59.232,59.232,0,0,0,6.778-.864c-2.808-4.627-5.125-8.751-7.756-12.665a35.5,35.5,0,0,0-5.288-5.973,4.309,4.309,0,0,0-3.208-.809,7.047,7.047,0,0,1-8.025-4.756A6.783,6.783,0,0,1,127.74,1.2c1.019-.46,2.092-.8,3.14-1.2h4.411c5.963,1.395,10.289,5.143,14.029,9.741,6.04,7.427,10.374,15.832,14.072,24.6,2.013,4.77.5,8.365-4.306,10.283-8.8,3.513-17.613,6.976-26.394,10.528a4.65,4.65,0,0,0-2.239,1.786c-3.112,5.591-6.273,11.167-9.067,16.918a26.7,26.7,0,0,0-2.942,11.506c-.151,12.58.6,25.1,1.68,37.615,1.056,12.176,2.048,24.359,3.051,36.54.938,11.383,1.89,22.764,2.76,34.152a10.144,10.144,0,0,1-4.421,9.54,28.328,28.328,0,0,1-4.268,2.08h-4.01c-5.371-1.756-8.322-5.306-8.762-11.081-1.438-18.833-3.112-37.649-4.448-56.49-.377-5.324-1.477-10.189-5.15-14.806-1.387,3.142-3.5,5.991-3.837,9.035-1.326,12.07-2.083,24.2-3.074,36.309-.756,9.246-1.464,18.5-2.358,27.73-.418,4.315-3.023,7.136-7.019,8.7-.484.19-.961.4-1.441.6h-4.01a2.32,2.32,0,0,0-.5-.312c-5.929-1.883-8.713-6.192-8.12-12.3.542-5.584.934-11.182,1.387-16.774,1.12-13.848,2.2-27.7,3.365-41.542,1.434-17.039,3.185-34.059,2.559-51.2a12.554,12.554,0,0,0-.585-3.318,94.45,94.45,0,0,0-10.992-22.4A6.752,6.752,0,0,0,57.32,55c-8.77-3.577-17.593-7.022-26.4-10.513-4.1-1.627-5.868-5.407-4.239-9.407a105.082,105.082,0,0,1,11.7-21.836C42.678,7.253,47.459,1.809,55.092,0" transform="translate(-12.138)" fill="#4dbfa8"/>
    <path id="Trazado_418" data-name="Trazado 418" d="M20.106,215.893c.814,4.222,1.512,7.846,2.273,11.8-1.275-.2-2.61-.353-3.92-.627C8.443,224.973,1.9,217.961.445,207.844-.836,198.961.8,190.4,3.481,182.019c7.619-23.811,18.377-46.194,31.177-67.625,1.676-2.807,3.455-5.553,5.126-8.363.55-.924,1.063-1.009,2.1-.7a8,8,0,0,1,5.34,4.379c2.992,6.316,6.137,12.561,9.073,18.9a11.414,11.414,0,0,1,.732,4.281c.662,17.736-1.25,35.343-2.713,52.974-.878,10.579-1.705,21.163-2.559,31.744-.058.718-.14,1.433-.219,2.239l-31.433-3.964" transform="translate(0 -48.947)" fill="#4dbfa8"/>
    <path id="Trazado_419" data-name="Trazado 419" d="M238.77,227.477l2.3-11.579-31.431,3.935c-.19-1.98-.4-3.94-.563-5.905-1.393-17.235-2.961-34.458-4.092-51.71-.659-10.047-.821-20.143-.754-30.213.019-2.854,1.314-5.85,2.584-8.513,2.464-5.168,5.384-10.117,7.993-15.218,1.15-2.247,3.447-2.3,5.33-3.131.252-.111,1.1.748,1.449,1.3a347.722,347.722,0,0,1,23.142,42.5c5.534,12.146,10.686,24.45,14.151,37.369,2.178,8.122,3.358,16.367,1.1,24.711a22.2,22.2,0,0,1-20.721,16.584,1.5,1.5,0,0,1-.49-.128" transform="translate(-95.043 -48.929)" fill="#4dbfa8"/>
    <path id="Trazado_420" data-name="Trazado 420" d="M119.039,20.383A19.415,19.415,0,1,1,138.6,39.745a19.477,19.477,0,0,1-19.56-19.362" transform="translate(-55.401 -0.411)" fill="#4dbfa8"/>
    <path id="Trazado_421" data-name="Trazado 421" d="M151.513,240.684a32.566,32.566,0,0,1,1.185,4.91c1.154,13.351,2.215,26.709,3.3,40.066a2.488,2.488,0,0,1-.151.577H145.87c.246-3.311.46-6.485.721-9.654.877-10.631,1.737-21.263,2.7-31.887a20.2,20.2,0,0,1,1.232-4.037l.99.026" transform="translate(-67.888 -112.003)" fill="#4dbfa8"/>
  </g>
</svg>
