<svg xmlns="http://www.w3.org/2000/svg" width="22.764" height="18.948" viewBox="0 0 22.764 18.948">
  <path id="medida_de_perro" data-name="medida de perro" d="M8243.635-3975.052c-.28,0-.394-.112-.394-.387v-17.176c0-.275.111-.385.394-.385h2.512c.261,0,.414.124.414.331s-.151.333-.412.333h-2.236v.78c.261,0,.515,0,.77,0,.074,0,.151,0,.228,0a.323.323,0,0,1,.323.313.328.328,0,0,1-.321.342c-.155.01-.311.008-.468.006h-.521v.77c.279,0,.563,0,.843,0a.916.916,0,0,1,.228.023.3.3,0,0,1,.235.342.3.3,0,0,1-.316.3c-.325.006-.647,0-.989,0v.78h.209q1.009,0,2.016,0c.263,0,.414.122.414.329s-.151.333-.412.333q-1,0-2,0h-.235v.778h.764c.076,0,.151,0,.228,0a.323.323,0,0,1,.323.313.328.328,0,0,1-.321.342c-.157.01-.314.008-.474.006h-.518v.77c.283,0,.565,0,.847,0a.826.826,0,0,1,.226.023.3.3,0,0,1,.235.344.3.3,0,0,1-.318.294c-.323.006-.647,0-.987,0v.78h.209q1.012,0,2.016,0c.263,0,.414.124.414.331s-.151.331-.412.331c-.666,0-1.33,0-2,0h-.235v.78h.764c.076,0,.153,0,.228,0a.325.325,0,0,1,.323.315.329.329,0,0,1-.321.341c-.155.008-.311.006-.468.006-.064,0-.13,0-.2,0h-.327v.768c.29,0,.577,0,.867,0a.693.693,0,0,1,.244.035.3.3,0,0,1,.194.35.3.3,0,0,1-.316.275c-.323,0-.647,0-.989,0v.782h2.227c.263,0,.414.124.414.331s-.151.331-.414.333h-2.229v.778h.764c.076,0,.153,0,.228,0a.325.325,0,0,1,.323.315.328.328,0,0,1-.323.339c-.155.01-.311.008-.466.008-.066,0-.13,0-.2,0-.1,0-.207,0-.327,0v.77c.29,0,.579,0,.867,0a.681.681,0,0,1,.244.035.3.3,0,0,1,.194.35.3.3,0,0,1-.316.273c-.323.006-.647,0-.989,0v.782h.213c.673,0,1.344,0,2.016,0,.261,0,.414.124.412.331s-.151.331-.414.333Zm-4.6,0q-.763-1.139-1.529-2.279c-.355-.532-.716-1.064-1.089-1.612-.862.588-1.722,1.171-2.6,1.765,1.355.261,2.092,1.029,2.061,2.125h-5.89a.56.56,0,0,0-.114-.029,7.717,7.717,0,0,1-3.358-1.062,7.321,7.321,0,0,1-1.516-1.174c.251-.25.491-.495.737-.743a6.655,6.655,0,0,0,3.282,1.786,6.526,6.526,0,0,1-.139-.909c-.006-1.186-.01-2.372.022-3.558a4.712,4.712,0,0,1,.911-2.626,5.166,5.166,0,0,1,4.164-2.264.214.214,0,0,0,.222-.166c.449-1.194.906-2.388,1.359-3.58.445-1.161.886-2.322,1.331-3.481.021-.054.066-.136.1-.136.172-.006.341-.006.513-.006h.484c0,.565,0,1.1,0,1.639a.169.169,0,0,0,.143.195c.479.153.952.315,1.429.476.169.058.407.073.492.192s.041.356.039.54a.17.17,0,0,0,.146.195c.49.153.977.317,1.463.478.172.056.407.07.492.19s.046.358.035.542a.356.356,0,0,1-.109.23c-.358.3-.745.567-1.085.886a1.46,1.46,0,0,1-1.239.437,10.609,10.609,0,0,0-1.091-.006c0,.068-.01.12-.01.17q0,3.7,0,7.4a.53.53,0,0,0,.085.273c.729,1.155,1.459,2.312,2.2,3.458a.9.9,0,0,1,.152.656Z" transform="translate(-8224.297 3993.499)" fill="#afdce2" stroke="rgba(0,0,0,0)" stroke-width="1"/>
</svg>
