<svg id="modo_elecci칩n" data-name="modo elecci칩n" xmlns="http://www.w3.org/2000/svg" xmlns:xlink="http://www.w3.org/1999/xlink" width="178.996" height="205.982" viewBox="0 0 178.996 205.982">
  <defs>
    <clipPath id="clip-path">
      <rect id="Rect치ngulo_185" data-name="Rect치ngulo 185" width="178.996" height="205.982" fill="#6f63b7"/>
    </clipPath>
  </defs>
  <g id="Grupo_339" data-name="Grupo 339" clip-path="url(#clip-path)">
    <path id="Trazado_422" data-name="Trazado 422" d="M56.258,236.341a31.481,31.481,0,0,1-4.962-2.86,9.207,9.207,0,0,1-3.259-8.087c1.6-19.972,3.006-39.962,4.937-59.9a617.694,617.694,0,0,0,2.518-69.876,6.58,6.58,0,0,0-.09-.726l-.612-.125c-.986,4.041-2.057,8.064-2.926,12.13-.544,2.548-.672,5.183-1.183,7.74a8.4,8.4,0,0,1-9.969,6.824,17.154,17.154,0,0,1-4.589-1.386,43.541,43.541,0,0,1-19.825-19c-2.5-4.754-3.045-9.719.172-14.488a6.294,6.294,0,0,1,6.408-2.913,6.68,6.68,0,0,1,5.385,9.015,3.324,3.324,0,0,0-.087,2.232c2.265,4.617,5.931,7.972,9.871,10.954,1.414-5.038,2.58-9.971,4.2-14.751a30.617,30.617,0,0,1,9.113-13.97,18.18,18.18,0,0,1,12.187-4.425c9.385.04,18.775.2,28.154-.052a20.86,20.86,0,0,1,16.283,6.473c3.757,3.891,7.094,8.187,10.6,12.315.471.554.859,1.179,1.456,2.007,2.42-4.75,4.267-9.412,4.181-14.62a3.158,3.158,0,0,0-1.016-1.794,6.675,6.675,0,0,1,8.043-10.579,11.9,11.9,0,0,1,6.184,10.02c.7,11.45-3.11,21.488-10.647,30.016a12.024,12.024,0,0,1-5.972,3.363c-3.678.868-6.584-.892-8.724-4-2.809-4.081-5.7-8.109-8.591-12.13-.657-.912-1.487-1.7-2.507-2.848v39.016c1.747-.694,3.408-1.342,5.059-2.013,2.852-1.159,5.684-2.368,8.549-3.5,5.761-2.266,11.422.169,13.583,5.961q7.929,21.253,15.723,42.557c2.083,5.686-.483,11.364-5.877,13.313-5.3,1.914-10.847-.766-12.934-6.355-3.816-10.218-7.566-20.46-11.349-30.691-.274-.742-.589-1.47-.941-2.343-6.24,2.55-12.362,5.049-18.482,7.554-3.159,1.293-6.311,2.6-9.471,3.89-4.24,1.729-6.082,1.739-10.565-.044-.241,2.635-.495,5.184-.7,7.737q-2.17,26.445-4.324,52.893c-.153,1.87-.441,3.74-.44,5.609,0,6.039-2.749,10.024-8.539,11.855Z" transform="translate(-6.6 -30.359)" fill="#6f63b7"/>
    <path id="Trazado_423" data-name="Trazado 423" d="M74.2,0C77,1.2,79.81,2.366,82.577,3.632A9.34,9.34,0,0,1,84.387,5.1c-3.819.93-7.5,1.593-11.021,2.732a73.2,73.2,0,0,0-21.1,11.434,5.8,5.8,0,0,1-2.884,1.078c-8.306.612-12.945,4.6-14.7,12.785C33.324,39.5,29.3,43.07,22.289,43.735c-6.8.645-13.277-.978-19.8-3.312l1.675-4.211c4.592.883,8.962,1.79,13.361,2.53a15.815,15.815,0,0,0,4.2-.031c5.2-.543,7.17-2.385,8.211-7.472a18.779,18.779,0,0,1,8.1-12.457c.656-.436,1.337-.834,2.317-1.442-4.278-.9-8.24-1.49-12.1.115a8.383,8.383,0,0,0-3.142,2.677c-3.918,5.113-8.661,6.391-14.519,3.7C6.432,21.911,3.15,18.88,0,15.364l3.587-3.223c1.7,1.553,3.239,3.157,4.985,4.485a24.184,24.184,0,0,0,4.975,2.966c2.928,1.265,5.319.679,7.064-1.956,3.333-5.032,8.208-6.355,13.771-6.193a49.275,49.275,0,0,1,16.381,3.677c.621.24,1.249.461,1.953.72a5.094,5.094,0,0,0,.445-.917q3-12.006,15.088-14.605A3.835,3.835,0,0,0,68.969,0Z" fill="#6f63b7"/>
    <path id="Trazado_424" data-name="Trazado 424" d="M220.471,282.824l17.491,53.317H127.2c1.713-5.217,1.535-10.8,5.611-15.193,6.765-7.3,11.854-15.862,17.352-24.109a4.475,4.475,0,0,1,2.616-1.733c7.232-1.377,14.461-2.868,21.758-3.774,3.665-.455,7.473.227,11.216.411a20.192,20.192,0,0,1,3.4.287,7.639,7.639,0,0,0,6.546-1.612c1.124-.835,2.393-1.474,3.6-2.2,9.479-5.724,9.7-5.781,21.179-5.393" transform="translate(-58.967 -131.05)" fill="#6f63b7"/>
    <path id="Trazado_425" data-name="Trazado 425" d="M137.049,27.693A18.854,18.854,0,0,1,100.99,35.35c-.687-1.491-.385-2.19.838-3.086,8.4-6.156,17.283-11.319,27.8-12.683,6.094-.79,5.558-1.418,7.1,4.927a22.754,22.754,0,0,1,.326,3.186" transform="translate(-46.651 -8.852)" fill="#6f63b7"/>
  </g>
</svg>
