<svg id="perrito_super_heroe" data-name="perrito super heroe" xmlns="http://www.w3.org/2000/svg" xmlns:xlink="http://www.w3.org/1999/xlink" width="324.39" height="290.265" viewBox="0 0 324.39 290.265">
  <defs>
    <clipPath id="clip-path">
      <rect id="Rectángulo_257" data-name="Rectángulo 257" width="324.39" height="290.265" fill="none"/>
    </clipPath>
    <clipPath id="clip-path-2">
      <rect id="Rectángulo_256" data-name="Rectángulo 256" width="324.391" height="290.265" fill="none"/>
    </clipPath>
    <clipPath id="clip-path-3">
      <rect id="Rectángulo_233" data-name="Rectángulo 233" width="60.631" height="54.07" fill="none"/>
    </clipPath>
    <clipPath id="clip-path-4">
      <rect id="Rectángulo_234" data-name="Rectángulo 234" width="84.995" height="46.58" fill="none"/>
    </clipPath>
    <clipPath id="clip-path-5">
      <rect id="Rectángulo_235" data-name="Rectángulo 235" width="137.514" height="70.796" fill="none"/>
    </clipPath>
    <clipPath id="clip-path-6">
      <rect id="Rectángulo_236" data-name="Rectángulo 236" width="26.564" height="28.069" fill="none"/>
    </clipPath>
    <clipPath id="clip-path-7">
      <rect id="Rectángulo_237" data-name="Rectángulo 237" width="87.611" height="80.344" fill="none"/>
    </clipPath>
    <clipPath id="clip-path-8">
      <rect id="Rectángulo_238" data-name="Rectángulo 238" width="59.44" height="72.181" fill="none"/>
    </clipPath>
    <clipPath id="clip-path-9">
      <rect id="Rectángulo_239" data-name="Rectángulo 239" width="53.772" height="28.054" fill="none"/>
    </clipPath>
    <clipPath id="clip-path-10">
      <rect id="Rectángulo_240" data-name="Rectángulo 240" width="70.671" height="50.541" fill="none"/>
    </clipPath>
    <clipPath id="clip-path-11">
      <rect id="Rectángulo_241" data-name="Rectángulo 241" width="64.908" height="43.208" fill="none"/>
    </clipPath>
    <clipPath id="clip-path-12">
      <rect id="Rectángulo_242" data-name="Rectángulo 242" width="119.453" height="25.034" fill="none"/>
    </clipPath>
    <clipPath id="clip-path-13">
      <rect id="Rectángulo_243" data-name="Rectángulo 243" width="25.571" height="34.424" fill="none"/>
    </clipPath>
    <clipPath id="clip-path-14">
      <rect id="Rectángulo_244" data-name="Rectángulo 244" width="33.724" height="15.765" fill="none"/>
    </clipPath>
    <clipPath id="clip-path-15">
      <rect id="Rectángulo_245" data-name="Rectángulo 245" width="33.724" height="15.763" fill="none"/>
    </clipPath>
    <clipPath id="clip-path-16">
      <rect id="Rectángulo_246" data-name="Rectángulo 246" width="18.977" height="15.436" fill="none"/>
    </clipPath>
    <clipPath id="clip-path-17">
      <rect id="Rectángulo_247" data-name="Rectángulo 247" width="17.458" height="17.458" fill="none"/>
    </clipPath>
    <clipPath id="clip-path-18">
      <rect id="Rectángulo_248" data-name="Rectángulo 248" width="73.705" height="59.751" fill="none"/>
    </clipPath>
    <clipPath id="clip-path-19">
      <rect id="Rectángulo_249" data-name="Rectángulo 249" width="35.619" height="44.823" fill="none"/>
    </clipPath>
    <clipPath id="clip-path-20">
      <rect id="Rectángulo_250" data-name="Rectángulo 250" width="59.788" height="25.188" fill="none"/>
    </clipPath>
    <clipPath id="clip-path-21">
      <rect id="Rectángulo_251" data-name="Rectángulo 251" width="168.925" height="53.497" fill="none"/>
    </clipPath>
    <clipPath id="clip-path-22">
      <rect id="Rectángulo_252" data-name="Rectángulo 252" width="28.774" height="15.723" fill="none"/>
    </clipPath>
    <clipPath id="clip-path-23">
      <rect id="Rectángulo_253" data-name="Rectángulo 253" width="7.213" height="3.077" fill="none"/>
    </clipPath>
    <clipPath id="clip-path-24">
      <rect id="Rectángulo_254" data-name="Rectángulo 254" width="30.357" height="43.392" fill="none"/>
    </clipPath>
    <clipPath id="clip-path-25">
      <rect id="Rectángulo_255" data-name="Rectángulo 255" width="18.565" height="16.99" fill="none"/>
    </clipPath>
  </defs>
  <g id="Grupo_539" data-name="Grupo 539" clip-path="url(#clip-path)">
    <g id="Grupo_538" data-name="Grupo 538" transform="translate(0 0)">
      <g id="Grupo_537" data-name="Grupo 537" clip-path="url(#clip-path-2)">
        <path id="Trazado_650" data-name="Trazado 650" d="M744.623,2146.548a206.551,206.551,0,0,1-27.691,17.2c-12.884,6.419-26.478,10.426-31.569,2.426-4.678-7.355,3.342-19.214,13.123-29.691a220.264,220.264,0,0,1,24.13-21.743Z" transform="translate(-609.647 -1884.881)" fill="#ff9b39"/>
        <path id="Trazado_651" data-name="Trazado 651" d="M716.932,2342.042c-12.884,6.419-26.478,10.426-31.569,2.426-4.678-7.355,3.342-19.214,13.123-29.691.239,6.523,3.091,18.091,18.446,27.266" transform="translate(-609.647 -2063.175)" fill="#fff"/>
        <g id="Grupo_470" data-name="Grupo 470" transform="translate(74.345 229.859)" opacity="0.3">
          <g id="Grupo_469" data-name="Grupo 469">
            <g id="Grupo_468" data-name="Grupo 468" clip-path="url(#clip-path-3)">
              <path id="Trazado_652" data-name="Trazado 652" d="M702.357,2142.935a220.23,220.23,0,0,1,24.13-21.743l17.745,25.646c.253-.187.392-.291.392-.291l-22.007-31.808a220.238,220.238,0,0,0-24.13,21.743c-9.781,10.478-17.8,22.336-13.123,29.691a8.888,8.888,0,0,0,2.562,2.636c-.779-7.266,6.2-17.059,14.432-25.875" transform="translate(-683.993 -2114.74)" fill="#03036b"/>
            </g>
          </g>
        </g>
        <path id="Trazado_653" data-name="Trazado 653" d="M678.873,2156.627a17.742,17.742,0,0,1-3.169-.268,11.276,11.276,0,0,1-7.863-5.075c-4.66-7.322.437-18.746,15.149-33.955a228.206,228.206,0,0,1,22.569-20.068,1.94,1.94,0,0,1,2.77.441l22,31.812a1.941,1.941,0,0,1-.43,2.655c-1.4,1.055-32.75,24.457-51.031,24.457m27.433-55.025a222.95,222.95,0,0,0-20.553,18.453c-12.905,13.348-18.1,23.7-14.638,29.145a7.448,7.448,0,0,0,5.282,3.34,14.88,14.88,0,0,0,2.646.223c14.7,0,40.537-17.923,47.022-22.6Z" transform="translate(-593.762 -1868.95)" fill="#03036b"/>
        <path id="Trazado_654" data-name="Trazado 654" d="M21.9,2200.251c-3.63,1.162-7.284,2.263-10.926,3.4-3.657,1.094-7.3,2.219-10.97,3.284,3.435-1.669,6.894-3.277,10.34-4.918,3.462-1.6,6.911-3.234,10.384-4.805a1.633,1.633,0,0,1,1.347,2.976,1.781,1.781,0,0,1-.175.068" transform="translate(0 -1958.256)" fill="#03036b"/>
        <path id="Trazado_655" data-name="Trazado 655" d="M303.287,2264.9c-3.63,1.163-7.285,2.264-10.926,3.4-3.657,1.093-7.3,2.219-10.97,3.283,3.435-1.669,6.894-3.277,10.341-4.918,3.462-1.6,6.911-3.234,10.384-4.805a1.633,1.633,0,1,1,1.346,2.976,1.575,1.575,0,0,1-.175.067" transform="translate(-250.806 -2015.874)" fill="#03036b"/>
        <path id="Trazado_656" data-name="Trazado 656" d="M576.22,2378.089c-3.63,1.162-7.284,2.264-10.926,3.4-3.657,1.093-7.3,2.219-10.97,3.284,3.435-1.669,6.894-3.278,10.34-4.918,3.462-1.6,6.911-3.234,10.384-4.805a1.633,1.633,0,1,1,1.171,3.043" transform="translate(-494.073 -2116.764)" fill="#03036b"/>
        <path id="Trazado_657" data-name="Trazado 657" d="M294.577,1568.714s-.8,2.568-2.4,6.755c-.89,2.329-2.026,5.155-3.42,8.329-.607,1.387-1.265,2.845-1.968,4.355-8.691,18.594-24.691,45.015-48.1,53.46-37.408,13.491-42.156,5.213-51.357,1.994s-16.1,2.607-25.911,0-2.91-21.465,18.7-28.362,27.9-11.349,55.5-29.595a100.8,100.8,0,0,1,29.653-13.078,108.284,108.284,0,0,1,29.3-3.858" transform="translate(-139.981 -1398.187)" fill="#6f63b7"/>
        <g id="Grupo_473" data-name="Grupo 473" transform="translate(33.405 194.327)" opacity="0.3">
          <g id="Grupo_472" data-name="Grupo 472">
            <g id="Grupo_471" data-name="Grupo 471" clip-path="url(#clip-path-4)">
              <path id="Trazado_658" data-name="Trazado 658" d="M307.331,1826.246s9.886-3.275,19.2.951,21.032,15.379,47.771-3.018,15.815-36.335,15.815-36.335-70.94,26.557-82.786,38.4" transform="translate(-307.331 -1787.844)" fill="#03036b"/>
            </g>
          </g>
        </g>
        <g id="Grupo_476" data-name="Grupo 476" transform="translate(17.082 170.507)" opacity="0.6">
          <g id="Grupo_475" data-name="Grupo 475">
            <g id="Grupo_474" data-name="Grupo 474" clip-path="url(#clip-path-5)">
              <path id="Trazado_659" data-name="Trazado 659" d="M180.223,1619.116c21.62-6.9,27.9-11.349,55.5-29.595a100.8,100.8,0,0,1,29.653-13.078,112.5,112.5,0,0,1,27.977-3.879c.879-2.436,1.32-3.851,1.32-3.851a108.284,108.284,0,0,0-29.3,3.858,100.8,100.8,0,0,0-29.653,13.078c-27.595,18.246-33.879,22.691-55.5,29.595-16.578,5.29-24.49,17.611-22.854,24.244,1.352-6.8,9.135-15.995,22.854-20.373" transform="translate(-157.158 -1568.693)" fill="#fff"/>
            </g>
          </g>
        </g>
        <path id="Trazado_660" data-name="Trazado 660" d="M190.277,1635.062c-7.341,0-11.512-1.984-15.419-3.843a40.99,40.99,0,0,0-4.067-1.761c-4.245-1.486-8.052-.808-12.081-.091-4.178.744-8.5,1.513-13.686.135a7.519,7.519,0,0,1-5.811-7.551c-.2-8.165,8.879-19.575,24.424-24.536,20.551-6.559,27.214-10.967,52.005-27.366l3.013-1.993c27.8-18.38,58.794-17.316,60.1-17.261a1.941,1.941,0,0,1,1.773,2.515,182.206,182.206,0,0,1-14.074,31.765c-8.641,15.377-23.117,35.212-43,42.384-15.858,5.719-26.021,7.6-33.173,7.6m-24.843-10.376a19.754,19.754,0,0,1,6.64,1.109,44.562,44.562,0,0,1,4.452,1.919c7.028,3.344,14.994,7.134,45.607-3.906,31.729-11.443,49.822-57.775,53.833-69.132-8.021.175-32.991,1.955-55.17,16.619l-3.012,1.992c-25.144,16.634-31.9,21.1-52.966,27.827-15.05,4.8-21.86,15.217-21.724,20.743a3.723,3.723,0,0,0,2.928,3.9c4.356,1.157,8.074.5,12.009-.205a41.777,41.777,0,0,1,7.4-.859" transform="translate(-124.079 -1382.208)" fill="#03036b"/>
        <path id="Trazado_661" data-name="Trazado 661" d="M760.55,1841.41a23.229,23.229,0,1,1-43.246-11.791c-.006-.006-.006-.012,0-.012a23.233,23.233,0,0,1,43.246,11.8" transform="translate(-636.476 -1620.554)" fill="#ff9b39"/>
        <path id="Trazado_662" data-name="Trazado 662" d="M775.8,1822.008a23.141,23.141,0,0,0-12.784-3.829q-.456,0-.909.017c-13.269.51-22.127,13.757-18.278,26.466,2.8,9.252,10.7,15.863,27.648,11l-2.271-1.98s-16.8,3.146-19.765-10.311c0,0-.535-9.645,8.265-9.645,6.549,0,5.174,5.984,4.046,9.04a1.472,1.472,0,0,0,1.326,1.979c3.808.126,11.791-1.052,14.655-12.5a11.6,11.6,0,0,0-1.932-10.239" transform="translate(-662.171 -1620.555)" fill="#fff"/>
        <g id="Grupo_479" data-name="Grupo 479" transform="translate(84.085 212.811)" opacity="0.3">
          <g id="Grupo_478" data-name="Grupo 478">
            <g id="Grupo_477" data-name="Grupo 477" clip-path="url(#clip-path-6)">
              <path id="Trazado_663" data-name="Trazado 663" d="M781.227,1957.9s-12.575,5.662-5.44,17.672,24.373,10.315,24.373,10.315l-3.038-7.7s-9.838,3.249-16.483-3.4-3.894-12.409.587-16.89" transform="translate(-773.596 -1957.899)" fill="#03036b"/>
            </g>
          </g>
        </g>
        <path id="Trazado_664" data-name="Trazado 664" d="M826.223,1953.348c-.434.859-.857,1.548-1.31,2.292-.451.727-.92,1.438-1.416,2.129a43.315,43.315,0,0,1-3.208,3.971,28.6,28.6,0,0,1-8.15,6.261,20.119,20.119,0,0,1-4.946,1.7,20.394,20.394,0,0,1-5.2.331,20.122,20.122,0,0,1-9.874-2.955,14.213,14.213,0,0,1-3.9-3.631,12.042,12.042,0,0,1-2.141-4.988,10.551,10.551,0,0,1-.13-2.766,9.943,9.943,0,0,1,.586-2.72,10.674,10.674,0,0,1,1.266-2.468,9.828,9.828,0,0,1,1.885-2.084,7.959,7.959,0,0,1,5.412-1.794,7.71,7.71,0,0,1,5.167,2.335,6.615,6.615,0,0,1,1.77,5.258,8.132,8.132,0,0,1-2.228,4.627.094.094,0,0,1-.132,0,.1.1,0,0,1-.025-.1,11.735,11.735,0,0,0,.626-4.556,5.569,5.569,0,0,0-1.715-3.544,5.291,5.291,0,0,0-3.556-1.418,5.466,5.466,0,0,0-3.581,1.3,8.052,8.052,0,0,0-1.341,1.531,7.913,7.913,0,0,0-.942,1.847,8.118,8.118,0,0,0-.365,4.092,9.374,9.374,0,0,0,1.623,3.885,11.569,11.569,0,0,0,3.143,2.988,15.076,15.076,0,0,0,4.07,1.8,19.838,19.838,0,0,0,4.5.65,16.5,16.5,0,0,0,8.645-2.021,23.6,23.6,0,0,0,6.908-5.862,31.483,31.483,0,0,0,2.671-3.765c.4-.657.781-1.329,1.137-2.008.351-.663.7-1.4.943-2.016l.011-.027a2.084,2.084,0,1,1,3.865,1.558c-.022.054-.047.11-.073.161" transform="translate(-700.495 -1735.027)" fill="#03036b"/>
        <path id="Trazado_665" data-name="Trazado 665" d="M721.387,1850.675a25.169,25.169,0,1,1,25.169-25.169,25.2,25.2,0,0,1-25.169,25.169m0-46.457a21.288,21.288,0,1,0,21.288,21.288,21.312,21.312,0,0,0-21.288-21.288" transform="translate(-620.544 -1604.651)" fill="#03036b"/>
        <path id="Trazado_666" data-name="Trazado 666" d="M2247.525,970.453c-2.039,6.613-7.878,13.536-23.382,13.575,0,0-4.123,3.213-10.291,8.052-16.278,12.787-46.782,36.943-53.183,43.344,0,0,.865-8.549,1.5-19.93.774-13.994,1.213-32.272-.736-44.234,0,0,17.381-7.742,34.085-14.872,9.31-3.968,18.414-7.749,24.175-9.891a24.246,24.246,0,0,1,21.678,4.768,18.271,18.271,0,0,1,3.594,3.813,17.685,17.685,0,0,1,2.555,15.375" transform="translate(-1925.819 -842.894)" fill="#ff9b39"/>
        <path id="Trazado_667" data-name="Trazado 667" d="M2522.612,970.453c-2.039,6.613-7.878,13.536-23.382,13.575,0,0-4.123,3.213-10.291,8.052-21.2-7.729-21.13-24.569-18.33-35.692,9.31-3.968,18.414-7.749,24.175-9.891a24.246,24.246,0,0,1,21.678,4.768,17.931,17.931,0,0,1,6.149,19.188" transform="translate(-2200.907 -842.894)" fill="#fff"/>
        <g id="Grupo_482" data-name="Grupo 482" transform="translate(234.851 112.184)" opacity="0.3">
          <g id="Grupo_481" data-name="Grupo 481">
            <g id="Grupo_480" data-name="Grupo 480" clip-path="url(#clip-path-7)">
              <path id="Trazado_668" data-name="Trazado 668" d="M2247.525,1047.482c-2.039,6.613-7.878,13.536-23.382,13.575,0,0-4.123,3.213-10.291,8.052-16.278,12.787-46.782,36.943-53.183,43.344,0,0,.865-8.549,1.5-19.93a236.852,236.852,0,0,0,39.969-30.227s13.22-12.31,1.652-18.246c0,0,.058-8.22,11.9-7.355a11.062,11.062,0,0,0-.678,9.22s7.671,10.149,20.014,6.723c9.517-2.639,10.923-12.859,9.942-20.53a17.685,17.685,0,0,1,2.555,15.375" transform="translate(-2160.67 -1032.107)" fill="#03036b"/>
            </g>
          </g>
        </g>
        <path id="Trazado_669" data-name="Trazado 669" d="M2512.867,1124.956a15.352,15.352,0,0,1,1.888-1.145,17.952,17.952,0,0,1,2.005-.912,16.988,16.988,0,0,1,4.416-1.09,10.535,10.535,0,0,1,5.053.625,8.051,8.051,0,0,1,2.455,1.592,8.217,8.217,0,0,1,1.675,2.424,8.356,8.356,0,0,1,.708,2.794,8.758,8.758,0,0,1-.247,2.773,11.835,11.835,0,0,1-2.259,4.414,16.727,16.727,0,0,1-3.3,3.111,15.308,15.308,0,0,1-3.909,2.074.52.52,0,0,1-.6-.778l.018-.027a65.11,65.11,0,0,0,4.23-6.718,15.954,15.954,0,0,0,.7-1.6,9.536,9.536,0,0,0,.4-1.513,4.68,4.68,0,0,0,.057-1.345,3.426,3.426,0,0,0-.3-1.2,3.271,3.271,0,0,0-1.559-1.739,7.8,7.8,0,0,0-3.045-.8,38.043,38.043,0,0,0-7.793.455l-.04.005a.775.775,0,0,1-.552-1.4" transform="translate(-2239.446 -999.817)" fill="#03036b"/>
        <path id="Trazado_670" data-name="Trazado 670" d="M2637.56,1239.374h-.064c-.375-.012-9.209-.37-12.734-6.47a1.941,1.941,0,1,1,3.361-1.942c2.419,4.186,9.429,4.53,9.5,4.532a1.941,1.941,0,0,1-.062,3.881" transform="translate(-2339.235 -1096.299)" fill="#03036b"/>
        <path id="Trazado_671" data-name="Trazado 671" d="M2590.955,1079.369c0-.156.013-.216.021-.3s.019-.157.03-.232c.021-.15.052-.291.084-.426a7.483,7.483,0,0,1,.9-2.238,8.814,8.814,0,0,1,1.973-2.322,9.731,9.731,0,0,1,2.479-1.467c.432-.182.886-.294,1.317-.435.45-.1.9-.178,1.339-.242a.308.308,0,0,1,.242.541l-.024.02c-.338.282-.681.529-1.005.792-.31.284-.635.531-.911.828a10.877,10.877,0,0,0-1.47,1.777,8.033,8.033,0,0,0-.868,1.918,5.818,5.818,0,0,0-.2.963,4.292,4.292,0,0,0-.038.458,2.054,2.054,0,0,0,0,.208.723.723,0,0,0,0,.088c0,.019,0,.065.007.017a1.941,1.941,0,1,1-3.881.055" transform="translate(-2309.335 -955.214)" fill="#03036b"/>
        <path id="Trazado_672" data-name="Trazado 672" d="M2144.78,1021.344a1.941,1.941,0,0,1-1.93-2.136c.042-.422,4.226-42.463.782-63.654a1.94,1.94,0,0,1,1.126-2.084c.422-.188,42.4-18.875,58.372-24.807l.054-.019a26.036,26.036,0,0,1,23.512,5.083,19.966,19.966,0,0,1,6.79,21.277c-2.066,6.706-8.009,14.691-24.56,14.943-5.6,4.372-54.6,42.654-62.773,50.829a1.942,1.942,0,0,1-1.373.568m2.908-64.929c2.5,17.677.473,46.551-.517,58.166,14.868-13.013,57.871-46.53,59.888-48.1a1.941,1.941,0,0,1,1.187-.41c11.8-.031,19.044-4.139,21.53-12.209a16.055,16.055,0,0,0-5.5-17.1,22.388,22.388,0,0,0-19.832-4.448c-14.261,5.3-49.424,20.847-56.758,24.1" transform="translate(-1909.927 -826.877)" fill="#03036b"/>
        <path id="Trazado_673" data-name="Trazado 673" d="M1006.136,1599.656l-.019.039a1.154,1.154,0,0,0-.1.174c-.065.1-.116.206-.174.31a.023.023,0,0,1-.007.019c-1.406,2.452-8.1,12.736-25,20.388-3.291,1.49-6.555,2.871-9.729,4.09-.1.039-.194.077-.29.11-15.355,5.871-28.517,7.981-31.679.4a10.552,10.552,0,0,1-.394-1.1c-2.884-9.245,4.1-23.272,16.033-30.64a45.235,45.235,0,0,1-9.749-19.685h-.006c-3.161-14.839.794-36.227,34.433-57.583l83.429-9.5,11.549-1.316s12.878,71.751-68.3,94.287" transform="translate(-836.133 -1341.745)" fill="#ff9b39"/>
        <path id="Trazado_674" data-name="Trazado 674" d="M971.091,2346.954c-15.478,5.955-28.788,8.136-31.969.51-3.832-9.2,3.219-24.072,15.639-31.736,0,0-5.794,21.943,16.33,31.227" transform="translate(-836.115 -2064.022)" fill="#fff"/>
        <path id="Trazado_675" data-name="Trazado 675" d="M1564.061,1599.656c5.632-9.775.5-16.556.5-16.556-2.561-57.525,40.124-64.164,40.124-64.164s8.858-8.058,16.123-12.252l11.549-1.316s12.878,71.751-68.3,94.287" transform="translate(-1394.058 -1341.745)" fill="#fff"/>
        <g id="Grupo_485" data-name="Grupo 485" transform="translate(101.963 216.148)" opacity="0.3">
          <g id="Grupo_484" data-name="Grupo 484">
            <g id="Grupo_483" data-name="Grupo 483" clip-path="url(#clip-path-8)">
              <path id="Trazado_676" data-name="Trazado 676" d="M953.915,2010.243s6.94,3.765,21.377,1.726a1.567,1.567,0,0,1,1.151,2.807c-10.8,8.058-32.942,25.88-29.5,34.217,2.89,7.007,13.394,7.91,23.859,6.5-15.355,5.871-28.517,7.981-31.679.4-3.832-9.2,3.219-24.072,15.639-31.737a45.234,45.234,0,0,1-9.749-19.685c1,.264,23.3,5.839,52.505-15.872-.574.632-19.039,20.852-43.6,21.639" transform="translate(-938.077 -1988.604)" fill="#03036b"/>
            </g>
          </g>
        </g>
        <g id="Grupo_488" data-name="Grupo 488" transform="translate(164.828 229.859)" opacity="0.3">
          <g id="Grupo_487" data-name="Grupo 487">
            <g id="Grupo_486" data-name="Grupo 486" clip-path="url(#clip-path-9)">
              <path id="Trazado_677" data-name="Trazado 677" d="M1516.453,2122.672s7.747-2.179,13.236,4.077a9.764,9.764,0,0,0,10,2.967c7.475-2.124,19.621-6.557,30.532-14.976,0,0-17.437,21.27-48.6,28.054,0,0,8.279-16.9-5.174-20.122" transform="translate(-1516.453 -2114.74)" fill="#03036b"/>
            </g>
          </g>
        </g>
        <g id="Grupo_491" data-name="Grupo 491" transform="translate(102.614 237.788)" opacity="0.6">
          <g id="Grupo_490" data-name="Grupo 490">
            <g id="Grupo_489" data-name="Grupo 489" clip-path="url(#clip-path-10)">
              <path id="Trazado_678" data-name="Trazado 678" d="M1011.455,2207.814l-.019.039a1.16,1.16,0,0,0-.1.174c-.065.1-.116.206-.174.31a.023.023,0,0,1-.007.019c-1.406,2.452-8.1,12.736-25,20.388-3.29,1.49-6.555,2.871-9.729,4.09-.1.039-.194.077-.29.11-15.355,5.871-28.517,7.981-31.679.4a10.552,10.552,0,0,1-.394-1.1s19.992,6.657,48.415-12.328c28.633-19.125,13.8-32.229,13.8-32.229,15.291,5.174,5.174,20.123,5.174,20.123" transform="translate(-944.065 -2187.691)" fill="#fff"/>
            </g>
          </g>
        </g>
        <path id="Trazado_679" data-name="Trazado 679" d="M1516.629,2203.231c.18-.338.4-.8.589-1.21s.382-.858.552-1.3a27.263,27.263,0,0,0,.9-2.657,15.579,15.579,0,0,0,.65-5.361,8.836,8.836,0,0,0-.559-2.518,7.836,7.836,0,0,0-1.287-2.249,14.152,14.152,0,0,0-4.466-3.444l-.016-.009a.467.467,0,0,1,.3-.872,12.559,12.559,0,0,1,3.082.868,10.128,10.128,0,0,1,2.835,1.768,9.379,9.379,0,0,1,2.155,2.719,11.868,11.868,0,0,1,1.138,3.292,17.3,17.3,0,0,1-.22,6.69,23.728,23.728,0,0,1-.915,3.139c-.186.51-.39,1.013-.605,1.513s-.442.967-.743,1.52a1.94,1.94,0,0,1-3.417-1.841Z" transform="translate(-1348.32 -1946.265)" fill="#03036b"/>
        <path id="Trazado_680" data-name="Trazado 680" d="M1073.807,2225.933c1.682-1.055,3.317-2,5.027-2.9s3.422-1.744,5.175-2.525,3.525-1.519,5.334-2.156l1.36-.467c.458-.145.922-.272,1.381-.409.913-.287,1.86-.481,2.79-.7a.42.42,0,0,1,.281.786l-.015.007c-1.7.835-3.367,1.671-5.014,2.557s-3.272,1.8-4.862,2.776-3.16,1.979-4.706,3.014c-1.529,1.044-3.09,2.109-4.519,3.193l-.026.019a1.943,1.943,0,1,1-2.348-3.1c.045-.034.094-.068.141-.1" transform="translate(-956.28 -1975.817)" fill="#03036b"/>
        <path id="Trazado_681" data-name="Trazado 681" d="M933.149,1616.115a17.135,17.135,0,0,1-6.281-1.023,9.08,9.08,0,0,1-5.288-5.056c-4.031-9.675,2.71-24.579,14.549-32.906-3.42-4.4-11.428-16.643-9.368-32.749,2.119-16.572,14.194-31.959,35.891-45.735a1.937,1.937,0,0,1,.821-.29l94.976-10.809a1.942,1.942,0,0,1,2.13,1.586,87.579,87.579,0,0,1-3.778,39.649,79.227,79.227,0,0,1-20.163,32.133c-11.363,11.016-26.487,19.254-44.96,24.495-1.712,2.944-8.686,13.3-25.806,21.047-14.205,6.426-25.166,9.657-32.723,9.657m31.209-113.952c-20.415,13.048-31.767,27.4-33.74,42.66-2.337,18.076,9.691,31.278,9.812,31.409a1.942,1.942,0,0,1-.4,2.974c-11.277,6.961-18.363,20.944-14.866,29.337a5.264,5.264,0,0,0,3.128,2.938c5.878,2.318,18.657-.722,35.981-8.559,18.358-8.3,24.3-19.9,24.357-20.019a1.953,1.953,0,0,1,1.221-1.01c32.938-9.144,54.208-27.374,63.217-54.182A86.975,86.975,0,0,0,1057,1491.62Z" transform="translate(-820.366 -1325.85)" fill="#03036b"/>
        <path id="Trazado_682" data-name="Trazado 682" d="M972.626,1706.126c12.245,0,21.405,12.395,11.889,23-10.732,11.958-54.579,25.45-59.791,9.659s7.555-30.137,7.555-30.137,6.479-12.823,23.225-10.967a28.228,28.228,0,0,1,14.056,5.152Z" transform="translate(-823.098 -1512.99)" fill="#ff9b39"/>
        <path id="Trazado_683" data-name="Trazado 683" d="M1228.586,1777.236s-4.63,18.37,11.855,28.687c0,0,25.652-9.456,17.734-25.268s-29.589-3.419-29.589-3.419" transform="translate(-1094.513 -1579.945)" fill="#fff"/>
        <g id="Grupo_494" data-name="Grupo 494" transform="translate(100.179 189.536)" opacity="0.3">
          <g id="Grupo_493" data-name="Grupo 493">
            <g id="Grupo_492" data-name="Grupo 492" clip-path="url(#clip-path-11)">
              <path id="Trazado_684" data-name="Trazado 684" d="M981.813,1750.448s6.222,18.307-31.109,28.578-19.777-30.969-13.951-35.262c0,0-10.35,6.435-13.952,21.232s1.683,21.937,10.886,21.937,16.557.97,32.962-6.726,26.344-15.947,15.165-29.759" transform="translate(-921.66 -1743.765)" fill="#03036b"/>
            </g>
          </g>
        </g>
        <path id="Trazado_685" data-name="Trazado 685" d="M916.212,1764.55c-.466.556-.992,1.256-1.458,1.921s-.932,1.372-1.365,2.081a40.63,40.63,0,0,0-2.336,4.387,31.741,31.741,0,0,0-2.764,9.367,23.533,23.533,0,0,0,.717,9.484l.173.57a4.678,4.678,0,0,0,.176.526,7.083,7.083,0,0,0,.4.885,6.232,6.232,0,0,0,1.192,1.512,9.749,9.749,0,0,0,3.673,2.047,27.155,27.155,0,0,0,9.526.937,62.927,62.927,0,0,0,9.967-1.41,89.156,89.156,0,0,0,19.235-6.575,55.646,55.646,0,0,0,8.656-5.039,21.709,21.709,0,0,0,3.542-3.154,13.772,13.772,0,0,0,2.446-3.787,9.748,9.748,0,0,0-.246-8.332,13.088,13.088,0,0,0-6.52-5.953,15.805,15.805,0,0,0-9.093-1.052c-.385.066-.765.164-1.148.243s-.814.218-1.218.324c-.821.227-1.645.441-2.459.7-1.635.489-3.258,1.033-4.872,1.608s-3.215,1.191-4.805,1.839l-4.767,1.969c-3.2,1.286-6.43,2.517-9.841,3.511l-.009,0a.362.362,0,0,1-.348-.613,40.021,40.021,0,0,1,8.764-6c1.563-.822,3.173-1.546,4.8-2.236s3.266-1.351,4.923-1.973,3.33-1.21,5.024-1.746c.841-.285,1.7-.523,2.553-.774.436-.122.836-.256,1.3-.367s.931-.23,1.4-.319a19.781,19.781,0,0,1,11.388,1.151,17.028,17.028,0,0,1,8.669,7.78,14.947,14.947,0,0,1,1.111,2.844,14.194,14.194,0,0,1,.448,3.048,14.424,14.424,0,0,1-1.09,5.99,18.058,18.058,0,0,1-3.137,4.992,25.992,25.992,0,0,1-4.2,3.829,57.25,57.25,0,0,1-9.337,5.536,93.564,93.564,0,0,1-20.211,6.975,65.526,65.526,0,0,1-10.708,1.483,31.4,31.4,0,0,1-11.151-1.194,16.9,16.9,0,0,1-2.775-1.2,12.692,12.692,0,0,1-2.553-1.886,10.657,10.657,0,0,1-1.991-2.6,11.462,11.462,0,0,1-.66-1.5,7.415,7.415,0,0,1-.231-.714l-.2-.682a27.853,27.853,0,0,1-.722-11.22,35.906,35.906,0,0,1,3.242-10.565A43.121,43.121,0,0,1,910,1766.42q.738-1.151,1.552-2.254c.553-.747,1.084-1.433,1.756-2.2a1.94,1.94,0,0,1,2.945,2.526Z" transform="translate(-805.581 -1567.603)" fill="#03036b"/>
        <path id="Trazado_686" data-name="Trazado 686" d="M517.5,1522.11c-2.348,6.162-9.3,15.484-29.724,20.71-27.233,6.974-51.176,3.968-67.041-1.639a69.114,69.114,0,0,1-9.31-4.032s-16.007-6.923-28.317,9.723c0,0-13,2.581-23.233,9.71s-40.821,15.633-52.544,27.362c0,0,11.727-8.3,25.869-16.556,24.905-14.542,33.985-24.146,48.011-24.146a41.944,41.944,0,0,1,20.665-15.8,49.989,49.989,0,0,1,12.155-2.71,102.2,102.2,0,0,0,12.091,3.768c19.181,4.865,57.976,10.246,92.545-12.5a15.494,15.494,0,0,1-1.168,6.116" transform="translate(-273.926 -1351.215)" fill="#6f63b7"/>
        <g id="Grupo_497" data-name="Grupo 497" transform="translate(125.299 163.691)" opacity="0.3">
          <g id="Grupo_496" data-name="Grupo 496">
            <g id="Grupo_495" data-name="Grupo 495" clip-path="url(#clip-path-12)">
              <path id="Trazado_687" data-name="Trazado 687" d="M1271.044,1512.11c-3.723,4.039-20.317,18.917-62.841,18.917a113.873,113.873,0,0,1-31.956-4.2,76.153,76.153,0,0,1-20.827-9.387c-.942-.613-1.826-1.232-2.652-1.839a108.285,108.285,0,0,1,29.3-3.858s-.8,2.568-2.4,6.755c19.181,4.865,57.976,10.245,92.545-12.5a15.494,15.494,0,0,1-1.168,6.116" transform="translate(-1152.769 -1505.994)" fill="#03036b"/>
            </g>
          </g>
        </g>
        <path id="Trazado_688" data-name="Trazado 688" d="M519.33,1499.672c.018.295.014.445.015.652-.006.187-.008.379-.021.56-.02.369-.056.727-.1,1.082a19.776,19.776,0,0,1-.385,2.089,22.507,22.507,0,0,1-1.377,3.943,26.91,26.91,0,0,1-4.558,6.809,41.5,41.5,0,0,1-12.991,9.187,69.884,69.884,0,0,1-7.3,2.892c-1.245.381-2.48.806-3.738,1.129l-1.88.516-1.885.435-3.77.87c-1.257.289-2.535.477-3.8.72l-1.9.345c-.634.12-1.269.231-1.91.305l-3.837.511c-1.276.2-2.565.278-3.85.394-1.286.1-2.57.247-3.859.308-2.58.094-5.158.258-7.742.2l-1.937-.009-.968-.005-.968-.047-3.871-.189c-1.289-.081-2.574-.228-3.861-.339-.643-.065-1.288-.109-1.929-.19l-1.922-.263a101.314,101.314,0,0,1-15.2-3.153,78.772,78.772,0,0,1-14.538-5.726l.14.067-.356-.135q-.2-.074-.42-.142c-.284-.092-.577-.177-.872-.256-.592-.155-1.193-.294-1.8-.4a21.8,21.8,0,0,0-3.689-.333,20.751,20.751,0,0,0-7.242,1.227,20.2,20.2,0,0,0-3.349,1.549c-.547.286-1.051.653-1.577.98-.5.375-1.019.71-1.491,1.122a29.932,29.932,0,0,0-5.19,5.481,1.936,1.936,0,0,1-1.162.746l-.021,0h0c-1.6.359-3.3.858-4.931,1.349s-3.278,1.064-4.884,1.678a66.4,66.4,0,0,0-9.294,4.341c-.727.436-1.474.848-2.172,1.321l-2.246,1.458a53.592,53.592,0,0,1-4.845,2.613c-3.256,1.564-6.544,2.921-9.823,4.272-6.571,2.659-13.126,5.227-19.538,8.071q-2.415,1.045-4.782,2.178c-1.587.741-3.148,1.526-4.694,2.343a54.829,54.829,0,0,0-8.831,5.662l0,0a.163.163,0,0,1-.228-.232,40.05,40.05,0,0,1,8.091-7.036q2.23-1.5,4.544-2.858,2.322-1.34,4.691-2.582c6.335-3.275,12.879-6.045,19.318-8.914,3.223-1.42,6.431-2.859,9.516-4.42a49.918,49.918,0,0,0,4.448-2.481l2.178-1.462c.757-.531,1.557-.979,2.344-1.453a62.3,62.3,0,0,1,9.9-4.616c1.7-.631,3.419-1.207,5.158-1.716.869-.259,1.742-.5,2.625-.717s1.747-.422,2.7-.608h0l-1.183.75a33.8,33.8,0,0,1,5.877-6.2c.544-.47,1.153-.869,1.731-1.3.613-.387,1.2-.808,1.847-1.149a24.062,24.062,0,0,1,3.962-1.831,24.632,24.632,0,0,1,8.58-1.455,25.7,25.7,0,0,1,4.335.391c.717.122,1.427.284,2.135.471.354.094.707.2,1.062.312q.265.085.535.182c.189.068.343.124.585.225q.055.023.108.05l.033.017a74.947,74.947,0,0,0,13.8,5.425,97.368,97.368,0,0,0,14.638,3.034l1.856.255c.619.078,1.244.121,1.865.183,1.245.107,2.487.25,3.734.328l3.746.182.936.046.938.005,1.876.008c2.5.061,5-.1,7.5-.19,1.249-.059,2.494-.2,3.741-.3,1.246-.113,2.5-.191,3.734-.382l3.722-.5c.622-.072,1.239-.179,1.854-.3l1.848-.335c1.229-.236,2.47-.417,3.69-.7l3.661-.845,1.831-.422,1.8-.493c1.206-.308,2.375-.714,3.561-1.075a66.049,66.049,0,0,0,6.87-2.72,37.684,37.684,0,0,0,11.773-8.286,23.044,23.044,0,0,0,3.9-5.809,18.692,18.692,0,0,0,1.136-3.245,15.99,15.99,0,0,0,.306-1.659c.034-.274.062-.549.076-.815.011-.136.01-.262.015-.392l0-.3,0-.162a1.938,1.938,0,0,1,3.872-.141" transform="translate(-272.653 -1335.048)" fill="#03036b"/>
        <path id="Trazado_689" data-name="Trazado 689" d="M1733.707,1757.014s-12.878-2.99-16.1,10.693a101.464,101.464,0,0,1-8.624,23.457s31.046-10.348,24.721-34.15" transform="translate(-1523.23 -1565.792)" fill="#6f63b7"/>
        <g id="Grupo_500" data-name="Grupo 500" transform="translate(185.756 190.949)" opacity="0.3">
          <g id="Grupo_499" data-name="Grupo 499">
            <g id="Grupo_498" data-name="Grupo 498" clip-path="url(#clip-path-13)">
              <path id="Trazado_690" data-name="Trazado 690" d="M1733.707,1757.035a15.266,15.266,0,0,0-9.08,1.042,13.123,13.123,0,0,1,1.983.248c4.121,15.509-7.623,25.3-16.308,30.248-.8,1.682-1.317,2.611-1.317,2.611s31.046-10.348,24.721-34.15" transform="translate(-1708.986 -1756.761)" fill="#03036b"/>
            </g>
          </g>
        </g>
        <path id="Trazado_691" data-name="Trazado 691" d="M1693.073,1776.79a1.941,1.941,0,0,1-1.7-2.879,100.591,100.591,0,0,0,8.433-22.963c2.9-12.314,13.32-13.325,18.426-12.139a1.94,1.94,0,0,1,1.437,1.392c2.8,10.533-.885,20.221-10.655,28.016a55.475,55.475,0,0,1-15.329,8.474,1.935,1.935,0,0,1-.613.1m21.614-34.469c-3.467,0-9.172,1.317-11.1,9.516a108.525,108.525,0,0,1-6.508,19.225,50.422,50.422,0,0,0,9.592-5.939c8.154-6.538,11.359-14.176,9.538-22.718a13.782,13.782,0,0,0-1.521-.084" transform="translate(-1507.317 -1549.476)" fill="#03036b"/>
        <path id="Trazado_692" data-name="Trazado 692" d="M1972.216,1736.122s-26.117,8.5-33.724-10.717a13.146,13.146,0,0,1,4.5-3.174c2.942-1.232,7.084-1.555,11.7,2.361a85.33,85.33,0,0,0,17.523,11.529" transform="translate(-1727.791 -1534.296)" fill="#6f63b7"/>
        <g id="Grupo_503" data-name="Grupo 503" transform="translate(210.701 187.935)" opacity="0.3">
          <g id="Grupo_502" data-name="Grupo 502">
            <g id="Grupo_501" data-name="Grupo 501" clip-path="url(#clip-path-14)">
              <path id="Trazado_693" data-name="Trazado 693" d="M1972.216,1742.922s-26.117,8.5-33.724-10.716a13.146,13.146,0,0,1,4.5-3.174c9.084,14.349,29.227,13.891,29.227,13.891" transform="translate(-1938.492 -1729.031)" fill="#03036b"/>
            </g>
          </g>
        </g>
        <g id="Grupo_506" data-name="Grupo 506" transform="translate(210.701 187.105)" opacity="0.6">
          <g id="Grupo_505" data-name="Grupo 505">
            <g id="Grupo_504" data-name="Grupo 504" clip-path="url(#clip-path-15)">
              <path id="Trazado_694" data-name="Trazado 694" d="M1941.7,1724.811c2.942-1.232,7.084-1.555,11.7,2.361a89.6,89.6,0,0,0,14.534,9.992,39.023,39.023,0,0,0,4.279-1.043,85.33,85.33,0,0,1-17.523-11.529c-4.619-3.916-8.761-3.594-11.7-2.361a13.146,13.146,0,0,0-4.5,3.174c.139.35.285.688.435,1.019a12.947,12.947,0,0,1,2.771-1.613" transform="translate(-1938.492 -1721.401)" fill="#fff"/>
            </g>
          </g>
        </g>
        <path id="Trazado_695" data-name="Trazado 695" d="M1943.651,1723.914q-.71,0-1.433-.026c-10.616-.391-18.033-5.159-21.45-13.788a1.941,1.941,0,0,1,.327-1.973c2.925-3.43,10.647-8.06,18.932-1.038a83.79,83.79,0,0,0,17.079,11.243,1.941,1.941,0,0,1-.206,3.61,47.189,47.189,0,0,1-13.25,1.972m-18.777-14.091c3.01,6.42,8.855,9.844,17.391,10.182a41.267,41.267,0,0,0,8.543-.619,91.482,91.482,0,0,1-13.29-9.336c-5.916-5.013-10.732-1.923-12.644-.227" transform="translate(-1711.871 -1518.274)" fill="#03036b"/>
        <path id="Trazado_696" data-name="Trazado 696" d="M1867.711,1681.022a9.544,9.544,0,1,1-9.544-9.544,9.544,9.544,0,0,1,9.544,9.544" transform="translate(-1647.691 -1489.799)" fill="#6f63b7"/>
        <g id="Grupo_509" data-name="Grupo 509" transform="translate(200.933 185.33)" opacity="0.3">
          <g id="Grupo_508" data-name="Grupo 508">
            <g id="Grupo_507" data-name="Grupo 507" clip-path="url(#clip-path-16)">
              <path id="Trazado_697" data-name="Trazado 697" d="M1860.1,1715.991a9.476,9.476,0,0,1-9.433-10.92,9.537,9.537,0,1,0,16.931,7.268,9.519,9.519,0,0,1-7.5,3.651" transform="translate(-1848.624 -1705.071)" fill="#03036b"/>
            </g>
          </g>
        </g>
        <g id="Grupo_512" data-name="Grupo 512" transform="translate(202.562 181.679)" opacity="0.6">
          <g id="Grupo_511" data-name="Grupo 511">
            <g id="Grupo_510" data-name="Grupo 510" clip-path="url(#clip-path-17)">
              <path id="Trazado_698" data-name="Trazado 698" d="M1871.524,1671.478a9.534,9.534,0,0,0-7.915,4.209,9.545,9.545,0,0,1,13.249,13.249,9.544,9.544,0,0,0-5.334-17.458" transform="translate(-1863.609 -1671.478)" fill="#fff"/>
            </g>
          </g>
        </g>
        <path id="Trazado_699" data-name="Trazado 699" d="M1871.148,1696.025a1.087,1.087,0,0,1-.234-2.148c.534-.119,12.888-3.007,11-13.72a1.087,1.087,0,1,1,2.141-.378c2.256,12.773-12.517,16.187-12.667,16.22a1.093,1.093,0,0,1-.235.026" transform="translate(-1666.798 -1496.397)" fill="#03036b"/>
        <path id="Trazado_700" data-name="Trazado 700" d="M1865.17,1710.432a1.09,1.09,0,0,1-.247-.028c-.41-.1-10.065-2.4-11.463-8.615a1.087,1.087,0,1,1,2.121-.478c1.1,4.882,9.747,6.955,9.834,6.975a1.087,1.087,0,0,1-.245,2.146" transform="translate(-1651.977 -1515.633)" fill="#03036b"/>
        <path id="Trazado_701" data-name="Trazado 701" d="M1842.252,1676.591a11.484,11.484,0,1,1,11.484-11.484,11.5,11.5,0,0,1-11.484,11.484m0-19.087a7.6,7.6,0,1,0,7.6,7.6,7.611,7.611,0,0,0-7.6-7.6" transform="translate(-1631.775 -1473.884)" fill="#03036b"/>
        <path id="Trazado_702" data-name="Trazado 702" d="M1452.2,81.093l35.036.9,47.415,1.215c4.309-14.842-3.361-50.932-16.35-59.743-3.921-2.657-8.324-2.829-13.032.82-11.847,9.185-24.6,39.586-53.069,56.806" transform="translate(-1294.355 -19.168)" fill="#ff9b39"/>
        <g id="Grupo_515" data-name="Grupo 515" transform="translate(157.845 3.969)" opacity="0.5">
          <g id="Grupo_514" data-name="Grupo 514">
            <g id="Grupo_513" data-name="Grupo 513" clip-path="url(#clip-path-18)">
              <path id="Trazado_703" data-name="Trazado 703" d="M1452.2,96.093l6.294.164C1483.9,78.714,1495.929,51,1507.145,42.309c4.708-3.648,9.111-3.477,13.032-.82a22.9,22.9,0,0,1,5.728,6.018c-2.241-3.96-4.8-7.136-7.6-9.04-3.921-2.657-8.324-2.829-13.032.82-11.847,9.185-24.6,39.586-53.069,56.806" transform="translate(-1452.2 -36.507)" fill="#fff"/>
            </g>
          </g>
        </g>
        <path id="Trazado_704" data-name="Trazado 704" d="M1515.594,66.368a2.326,2.326,0,0,1-2.233-2.973c4.2-14.469-3.878-49.324-15.417-57.164-3.408-2.316-6.684-2.086-10.308.724-4.04,3.133-8.435,9.229-13.523,16.287-9.463,13.127-21.241,29.464-39.769,40.674a2.325,2.325,0,0,1-2.406-3.978c17.717-10.72,29.187-26.63,38.4-39.415,5.3-7.351,9.875-13.7,14.446-17.242,6.6-5.115,12.217-3.31,15.77-.9,9.074,6.166,13.934,22.312,15.6,28.968,3.241,12.935,3.88,25.709,1.667,33.337a2.325,2.325,0,0,1-2.231,1.677" transform="translate(-1275.296 0.001)" fill="#03036b"/>
        <path id="Trazado_705" data-name="Trazado 705" d="M1857.28,129.314l35.619,19.28a155.815,155.815,0,0,0-2.451-16.731,72.167,72.167,0,0,0-3.121-10.941c-3.366-8.684-7-14.167-9.543-16.227a3.572,3.572,0,0,0-1.869-.92c-4.07-.238-7.975,9.927-18.636,25.539" transform="translate(-1655.406 -92.492)" fill="#fff3e9"/>
        <g id="Grupo_518" data-name="Grupo 518" transform="translate(201.874 11.279)" opacity="0.3">
          <g id="Grupo_517" data-name="Grupo 517">
            <g id="Grupo_516" data-name="Grupo 516" clip-path="url(#clip-path-19)">
              <path id="Trazado_706" data-name="Trazado 706" d="M1857.28,129.314l35.619,19.28a155.815,155.815,0,0,0-2.451-16.731,13.539,13.539,0,0,1-5.571-1.9c-3.072-1.813-9.054-6.367-10.474-12.2-.753-3.089,1.013-8.541,3.382-13.069a3.572,3.572,0,0,0-1.869-.92c-4.07-.238-7.975,9.927-18.636,25.539" transform="translate(-1857.28 -103.771)" fill="#03036b"/>
            </g>
          </g>
        </g>
        <path id="Trazado_707" data-name="Trazado 707" d="M1877.328,134.906a1.949,1.949,0,0,1-.927-.236l-35.617-19.281a1.9,1.9,0,0,1-.666-2.745c3.683-5.394,6.584-10.183,8.916-14.032,5.063-8.358,7.594-12.551,11.4-12.332,4.5.264,9.858,10.054,13.075,18.358,2.594,6.7,4.479,15.895,5.6,27.343.037.371.06.619.074.723a1.886,1.886,0,0,1-1.858,2.2m-32.888-21.863,30.595,16.562c-1.378-12.174-3.491-19.51-5.073-23.593-4.47-11.539-8.736-15.72-9.784-15.938h-.037c-1.487,0-4.58,5.106-7.854,10.51-2.1,3.469-4.662,7.7-7.847,12.459" transform="translate(-1639.814 -76.895)" fill="#03036b"/>
        <path id="Trazado_708" data-name="Trazado 708" d="M1857.28,238.826l13.408,7.259c2.918-2.4,6.068-5.543,6.352-8.11.69-6.28-7.155-3.923-7.364-3.887s4.091-5.163.067-7.141c-1.613-.794-3.709.039-5.71,1.4-1.907,3.111-4.125,6.629-6.753,10.481" transform="translate(-1655.406 -202.004)" fill="#fff3e9"/>
        <path id="Trazado_709" data-name="Trazado 709" d="M1859.548,236.3a1.355,1.355,0,0,1-.647-.164l-13.408-7.259a1.359,1.359,0,0,1-.476-1.961c2.87-4.206,5.208-7.964,6.718-10.425a1.347,1.347,0,0,1,.395-.414c2.817-1.914,5.2-2.417,7.073-1.492a4.193,4.193,0,0,1,2.326,2.647,6.026,6.026,0,0,1-.47,3.918,6.509,6.509,0,0,1,4.722,1.224,4.984,4.984,0,0,1,1.47,4.605c-.273,2.471-2.575,5.5-6.84,9.011a1.355,1.355,0,0,1-.863.309m-11.442-9.1,11.276,6.105c3.124-2.679,5-5.07,5.168-6.625a2.508,2.508,0,0,0-.547-2.253c-.819-.709-2.749-.782-5.037-.191-.107.027-.175.042-.2.046a1.372,1.372,0,0,1-1.369-.587,1.554,1.554,0,0,1,.178-1.823c1.12-1.759,1.569-3.074,1.335-3.907a1.49,1.49,0,0,0-.909-.943c-.873-.431-2.324-.022-4.109,1.143-1.371,2.232-3.365,5.43-5.789,9.035" transform="translate(-1644.266 -190.86)" fill="#03036b"/>
        <path id="Trazado_710" data-name="Trazado 710" d="M929.869,291.993,944.193,274.1l31.665-39.551c-20.383-20.29-47.589-26.541-55.407-21.548a7.684,7.684,0,0,0-2.74,3.683c-4.132,9.943-1.942,36.5,12.158,75.31" transform="translate(-816.301 -188.392)" fill="#ff9b39"/>
        <g id="Grupo_521" data-name="Grupo 521" transform="translate(99.77 24.605)" opacity="0.5">
          <g id="Grupo_520" data-name="Grupo 520">
            <g id="Grupo_519" data-name="Grupo 519" clip-path="url(#clip-path-20)">
              <path id="Trazado_711" data-name="Trazado 711" d="M917.9,239.18a21.239,21.239,0,0,1,1.216-4.341,7.684,7.684,0,0,1,2.74-3.683c7.669-4.9,33.991,1.024,54.224,20.4l1.608-2.007C957.3,229.258,930.1,223.007,922.281,228a7.685,7.685,0,0,0-2.74,3.683,26.325,26.325,0,0,0-1.64,7.5" transform="translate(-917.9 -226.367)" fill="#fff"/>
            </g>
          </g>
        </g>
        <path id="Trazado_712" data-name="Trazado 712" d="M929.869,330.8,944.193,312.9c.912-7.908,1.108-19.619-3.341-29.851-6.7-15.39-14.549-31.434-23.141-27.565-4.132,9.943-1.942,36.5,12.158,75.31" transform="translate(-816.301 -227.197)" fill="#ff9b39"/>
        <path id="Trazado_713" data-name="Trazado 713" d="M910.762,275.131a2.325,2.325,0,0,1-2.185-1.531c-9.7-26.7-12.853-44.9-13.786-55.461-.874-9.888-.664-22.475,5.3-26.284,4.725-3.016,14.065-2.624,24.982,1.05a88.144,88.144,0,0,1,33.314,20.809,2.325,2.325,0,0,1-3.28,3.295c-19.7-19.6-45.843-25.494-52.515-21.235-2.233,1.426-4.4,8.032-3.174,21.957.91,10.287,3.994,28.054,13.525,54.283a2.326,2.326,0,0,1-2.185,3.119" transform="translate(-797.195 -169.206)" fill="#03036b"/>
        <path id="Trazado_714" data-name="Trazado 714" d="M1107.31,384.315a36.134,36.134,0,0,1-.244,4.947c-2.415,21-22.8,39.756-59.767,51.884l-22.775,5.432c-37.646,6.513-69.627,3.015-81.989-20.976a73.564,73.564,0,0,1-5.8-16.018c-5.7-23.128-4.341-55.9,15.087-80.586,20.566-26.13,55.838-30.749,63.5-31.813,46.114-6.42,63.209,23.6,79.715,60.18a32.2,32.2,0,0,1,2.769,2.9c.673.786,1.422,1.733,2.2,2.822a37.956,37.956,0,0,1,7.3,21.225" transform="translate(-832.298 -264.107)" fill="#ff9b39"/>
        <path id="Trazado_715" data-name="Trazado 715" d="M1131.45,908.754c.42,22.983-20.162,43.758-60.011,56.831l-22.775,5.432c-37.646,6.513-69.627,3.015-81.989-20.976a73.564,73.564,0,0,1-5.8-16.018c4.775-4.138,14.494-10.216,26.112-13.476,25.719-7.217,27.895,3.711,43.071-.361,13.6-3.648,15.505-15.649,31.325-20.055,12.589-3.506,17.756,3.416,25.6,3.437,16.166.044,14.542-16.143,34.959-18.859,3.549,4.179,9.3,12.66,9.5,24.046" transform="translate(-856.438 -788.546)" fill="#fff3e9"/>
        <g id="Grupo_524" data-name="Grupo 524" transform="translate(104.44 131.861)" opacity="0.3">
          <g id="Grupo_523" data-name="Grupo 523">
            <g id="Grupo_522" data-name="Grupo 522" clip-path="url(#clip-path-21)">
              <path id="Trazado_716" data-name="Trazado 716" d="M960.863,1226.755a73.688,73.688,0,0,0,5.8,16.015c12.363,23.991,44.342,27.492,81.987,20.976l22.776-5.432c32.987-10.823,52.769-26.919,58.362-45.177-9.167,14.769-28.068,27.639-56.132,36.847l-23.743,5.659c-39.251,6.791-72.592,3.146-85.481-21.866a64.524,64.524,0,0,1-3.2-7.345c-.128.109-.252.218-.371.322" transform="translate(-960.863 -1213.137)" fill="#03036b"/>
            </g>
          </g>
        </g>
        <path id="Trazado_717" data-name="Trazado 717" d="M1826.608,1190.525c-2.534,5.8,2.135,17.647-7.125,18.594-9.573.979-9.084-11.671-14.606-16.115" transform="translate(-1608.699 -1061.123)" fill="#03036b"/>
        <path id="Trazado_718" data-name="Trazado 718" d="M1809.105,1074.71s2.44,4.054-1.026,7c-4.314,3.661-10.049.4-11.569-1.194a.759.759,0,0,0-1.229.346c-.3,2.772-2.789,8.787-9.508,8.335-2.64-.177-5.683-2.426-5.383-5.676l8.322-17.568Z" transform="translate(-1586.856 -950.087)" fill="#fff3e9"/>
        <g id="Grupo_527" data-name="Grupo 527" transform="translate(194.309 123.406)" opacity="0.3">
          <g id="Grupo_526" data-name="Grupo 526">
            <g id="Grupo_525" data-name="Grupo 525" clip-path="url(#clip-path-22)">
              <path id="Trazado_719" data-name="Trazado 719" d="M1787.683,1148.42a6.258,6.258,0,0,0,4.611,2.636c6.714.452,9.2-5.559,9.507-8.337a.759.759,0,0,1,1.23-.341c1.516,1.594,7.253,4.853,11.564,1.194a4.9,4.9,0,0,0,1.852-4.2c-5.6,3.019-11.81.7-13.184-3.041-.241-.655-6.536-1.373-6.312-.712,2.19,6.461-.071,13.422-9.242,12.8-.006,0-.019,0-.026,0" transform="translate(-1787.682 -1135.359)" fill="#03036b"/>
            </g>
          </g>
        </g>
        <path id="Trazado_720" data-name="Trazado 720" d="M1771.022,1147.108a3.82,3.82,0,0,0,.833,1.8,4.608,4.608,0,0,0,1.558,1.141,4.547,4.547,0,0,0,1.814.427c.073,0,.132,0,.214,0l.274-.024.543-.042c.35-.052.692-.107,1.02-.186a6.31,6.31,0,0,0,.936-.31,6.714,6.714,0,0,0,.875-.413,7.226,7.226,0,0,0,1.553-1.268,8.412,8.412,0,0,0,1.167-1.824,8.126,8.126,0,0,0,.624-2.067l.034-.239.019-.134q.02-.124.049-.247a2.636,2.636,0,0,1,.161-.471,2.8,2.8,0,0,1,.5-.769,3.062,3.062,0,0,1,1.193-.8,3.223,3.223,0,0,1,1.227-.2,3.044,3.044,0,0,1,1.416.391,2.78,2.78,0,0,1,.366.246c.06.048.118.1.175.151l.123.117.072.06a4.107,4.107,0,0,0,.343.276,9.283,9.283,0,0,0,1.911,1.058,7.557,7.557,0,0,0,4,.624,4.6,4.6,0,0,0,1.741-.632,4.008,4.008,0,0,0,1.364-1.138,3.155,3.155,0,0,0,.633-1.654,5.029,5.029,0,0,0,.012-1.083,5.6,5.6,0,0,0-.066-.576c-.025-.182-.074-.41-.09-.538l-.042-.348a1.124,1.124,0,0,1,2-.83,8.633,8.633,0,0,1,.518.715,8.339,8.339,0,0,1,.406.736,6.89,6.89,0,0,1,.548,1.647,6.546,6.546,0,0,1,.107,1.854c-.042.318-.094.642-.168.96a8.255,8.255,0,0,1-.316.937,7.45,7.45,0,0,1-2.357,2.937l-.357.283-.394.241c-.267.155-.529.323-.808.458a9.523,9.523,0,0,1-5.37.765,12.7,12.7,0,0,1-3.272-.956,13.048,13.048,0,0,1-2.893-1.746,8.537,8.537,0,0,1-.713-.633l-.181-.18c-.037-.038.033.037.058.059a1.36,1.36,0,0,0,.11.093,1.873,1.873,0,0,0,.221.149,1.59,1.59,0,0,0,.75.212,1.469,1.469,0,0,0,.543-.093,1.578,1.578,0,0,0,.615-.423,1.862,1.862,0,0,0,.311-.48,2.03,2.03,0,0,0,.1-.307,1.45,1.45,0,0,0,.031-.161l.008-.077,0,.028-.069.451a12.641,12.641,0,0,1-1.034,3.24,13.632,13.632,0,0,1-1.77,2.9,11.179,11.179,0,0,1-2.648,2.362,9.709,9.709,0,0,1-3.371,1.258,7.838,7.838,0,0,1-.876.091,7.475,7.475,0,0,1-.87.039l-.851-.054-.423-.031c-.149-.016-.32-.048-.478-.073a8.4,8.4,0,0,1-.934-.221,8.74,8.74,0,0,1-.868-.341,8.472,8.472,0,0,1-1.571-.928,7.322,7.322,0,0,1-2.262-2.845,5.646,5.646,0,0,1-.3-3.573,1.156,1.156,0,0,1,2.254.087Z" transform="translate(-1576.349 -1013.573)" fill="#03036b"/>
        <path id="Trazado_721" data-name="Trazado 721" d="M1827.511,1024.849c.92,3.3-1.95,7.248-4.292,9.791a6.312,6.312,0,0,1-6.4,1.783c-3.32-.967-7.815-2.86-8.735-6.164-1.494-5.366,17.938-10.777,19.432-5.411" transform="translate(-1611.479 -911.481)" fill="#03036b"/>
        <g id="Grupo_530" data-name="Grupo 530" transform="translate(203.902 113.22)" opacity="0.35">
          <g id="Grupo_529" data-name="Grupo 529">
            <g id="Grupo_528" data-name="Grupo 528" clip-path="url(#clip-path-23)">
              <path id="Trazado_722" data-name="Trazado 722" d="M1883.134,1041.909c.17.611-1.042,1.53-2,2.147a4.408,4.408,0,0,1-2.37.66c-1.138-.033-2.651-.194-2.821-.8-.276-.993,6.913-2.995,7.189-2" transform="translate(-1875.937 -1041.64)" fill="#fff"/>
            </g>
          </g>
        </g>
        <path id="Trazado_723" data-name="Trazado 723" d="M1887.045,1095.394l-4.27-1.632a.7.7,0,0,0-.032.091c.007-.027.738-2.732-1.679-9.45a2.286,2.286,0,0,1,4.3-1.548c2.986,8.3,1.923,11.9,1.679,12.539" transform="translate(-1676.484 -963.807)" fill="#03036b"/>
        <path id="Trazado_724" data-name="Trazado 724" d="M924.5,722.779a103.086,103.086,0,0,0-7.586,41.988A108.34,108.34,0,0,0,919.348,786a58.53,58.53,0,0,0,7.36,19.722,37.017,37.017,0,0,0,15.067,13.7,62.122,62.122,0,0,0,20.187,5.851,129.061,129.061,0,0,0,21.467.679c7.206-.27,14.422-.91,21.694-1.522a.947.947,0,0,1,.322,1.859A127.334,127.334,0,0,1,983.674,830c-3.685.3-7.393.442-11.108.38a106.573,106.573,0,0,1-11.153-.723,65.263,65.263,0,0,1-21.71-6.16,43.7,43.7,0,0,1-9.538-6.458,39.535,39.535,0,0,1-7.407-8.9,51.222,51.222,0,0,1-4.7-10.369c-.6-1.78-1.179-3.562-1.7-5.358-.063-.468-.473-.839-.551-1.3l-.357-1.357c-.244-.9-.457-1.814-.665-2.726a101.713,101.713,0,0,1-2.574-22.2,98.648,98.648,0,0,1,.619-11.166,101.708,101.708,0,0,1,1.893-11.012,82.645,82.645,0,0,1,7.843-20.8,1.077,1.077,0,0,1,1.941.927Z" transform="translate(-813.058 -642.885)" fill="#03036b"/>
        <path id="Trazado_725" data-name="Trazado 725" d="M1437.638,421.138c4.554-1.9,9.077-3.8,13.512-5.861s8.783-4.267,12.993-6.684a95.769,95.769,0,0,0,12.043-8.058,64.2,64.2,0,0,0,10.224-10.011,43.638,43.638,0,0,0,7.022-12.156,35.128,35.128,0,0,0,2.17-13.653,33.814,33.814,0,0,0-3.382-13.356,39.656,39.656,0,0,0-3.572-6.007q-1.024-1.421-2.168-2.745c-.379-.441-.77-.869-1.167-1.286l-.6-.611-.3-.292-.149-.141-.075-.07-.038-.035a2.649,2.649,0,0,1-.408-.476,2.523,2.523,0,0,1-.373-.916l.165.55c-4.78-10.9-9.893-21.637-16.47-31.339a82.054,82.054,0,0,0-11.165-13.362,55.48,55.48,0,0,0-14.042-9.861,51.234,51.234,0,0,0-16.427-4.752,73.894,73.894,0,0,0-17.363.21,137.962,137.962,0,0,0-34.406,7.9h0a1.144,1.144,0,0,1-.916-2.094,111.382,111.382,0,0,1,34.778-10.331,91.882,91.882,0,0,1,9.175-.674,67.006,67.006,0,0,1,9.275.412,55.878,55.878,0,0,1,17.912,5.133,60.159,60.159,0,0,1,15.256,10.637,86.759,86.759,0,0,1,11.857,14.1c6.918,10.105,12.081,21.124,16.894,32.121l.165.55a2.256,2.256,0,0,0-.33-.876,2.344,2.344,0,0,0-.366-.436l.047.044.095.088.188.177.364.353q.358.354.7.713c.456.48.9.965,1.324,1.462q1.284,1.488,2.425,3.078a44.349,44.349,0,0,1,3.992,6.736,38.553,38.553,0,0,1,3.82,15.216,39.49,39.49,0,0,1-2.556,15.445,48.177,48.177,0,0,1-7.843,13.378,68.608,68.608,0,0,1-11.008,10.632,96.744,96.744,0,0,1-12.666,8.325,109.631,109.631,0,0,1-13.653,6.343,117.114,117.114,0,0,1-14.277,4.526,1.079,1.079,0,0,1-.671-2.044" transform="translate(-1222.97 -245.121)" fill="#03036b"/>
        <path id="Trazado_726" data-name="Trazado 726" d="M1488.8,726.929c-1.454-2.863,5.444-15.645,12.06-14.857s7.589,7.58,4.566,10.505c-4.391,4.249-15.172,7.215-16.626,4.352" transform="translate(-1326.802 -634.643)" fill="#fff3e9"/>
        <path id="Trazado_727" data-name="Trazado 727" d="M1941.6,631.748c-.316-3.2-12.084-10.344-16.8-6.161s-2.055,10.448,1.755,11.317c5.534,1.262,15.365-1.96,15.049-5.155" transform="translate(-1713.332 -556.45)" fill="#fff3e9"/>
        <path id="Trazado_728" data-name="Trazado 728" d="M979.895,322.7a27.975,27.975,0,0,0,2.6,4.862c12.73-18.3,24.171-17.379,22.168-26.043-2.173-9.379-19.485-18.8-28.888-17.162-.584.1-1,1.285-1.24,3.224-.862,7.086.686,24.226,5.36,35.118" transform="translate(-868.407 -253.283)" fill="#fff3e9"/>
        <g id="Grupo_533" data-name="Grupo 533" transform="translate(106.128 30.888)" opacity="0.3">
          <g id="Grupo_532" data-name="Grupo 532">
            <g id="Grupo_531" data-name="Grupo 531" clip-path="url(#clip-path-24)">
              <path id="Trazado_729" data-name="Trazado 729" d="M981.759,322.7a27.975,27.975,0,0,0,2.6,4.862c12.73-18.3,24.171-17.379,22.168-26.043-2.173-9.379-19.485-18.8-28.888-17.162-.584.1-1,1.285-1.24,3.224,4.873.627,12.99,2.849,15.284,10.626,3.016,10.233-6.222,15.2-9.925,24.492" transform="translate(-976.399 -284.17)" fill="#03036b"/>
            </g>
          </g>
        </g>
        <path id="Trazado_730" data-name="Trazado 730" d="M1141.925,398.024c.623,2.551,4.594.9,4.776,3.529,5.159-3.879,8.237-5.728,7.118-10.572a14.6,14.6,0,0,0-3.375-6.064c-2.517-.582-5.335-.643-7.363.982-2.3,1.846-1.4,3.61-.258,4.565a9.843,9.843,0,0,0,4.591,1.7s-6.246,2.754-5.49,5.861" transform="translate(-1017.563 -342.745)" fill="#fff3e9"/>
        <path id="Trazado_731" data-name="Trazado 731" d="M967.28,313.895h-.006a1.9,1.9,0,0,1-1.562-.826c-7.989-11.643-9.825-38.95-7.6-44.24a2.845,2.845,0,0,1,2.12-1.918c10.152-1.767,28.586,7.906,31.064,18.609,1.319,5.7-2.233,8.348-6.731,11.7a63.415,63.415,0,0,0-15.727,15.855,1.9,1.9,0,0,1-1.561.816M961.5,270.572c-1.367,3.938-.212,26.255,5.927,37.971a67.051,67.051,0,0,1,14.862-14.368c4.7-3.509,6.026-4.661,5.3-7.8-1.908-8.244-17.695-16.725-26.089-15.806m-.616.087h0m-.327-1.874h0Z" transform="translate(-853.192 -237.712)" fill="#03036b"/>
        <path id="Trazado_732" data-name="Trazado 732" d="M1132.039,386.025a.517.517,0,0,0,.284.375,4.533,4.533,0,0,0,1.155.351,6.445,6.445,0,0,1,1.921.651,4.369,4.369,0,0,1,.567.432,2.82,2.82,0,0,1,.739,1.3c.043.215.079.432.106.649l-2.107-.963h0c1.389-1.047,2.792-2.054,4.053-3.107a13.64,13.64,0,0,0,1.664-1.642,4.705,4.705,0,0,0,.952-1.787,6.813,6.813,0,0,0-.544-4.2,15.463,15.463,0,0,0-2.585-3.984l.7.421h0a11.651,11.651,0,0,0-3.945-.117,5.29,5.29,0,0,0-1.656.562A4.242,4.242,0,0,0,1132.1,376a.988.988,0,0,0-.252.9,2.418,2.418,0,0,0,.835,1.12,13.562,13.562,0,0,0,3.589,1.808h0l.128.055a.676.676,0,0,1,.074,1.2,18.858,18.858,0,0,0-1.707,1.141,13.01,13.01,0,0,0-1.521,1.3,5.373,5.373,0,0,0-1.058,1.424,1.874,1.874,0,0,0-.177.626,1.506,1.506,0,0,0,.027.444m-2.64.644a3.313,3.313,0,0,1,.031-1.678,4.339,4.339,0,0,1,.659-1.334,7.674,7.674,0,0,1,1.81-1.732,14.932,14.932,0,0,1,1.972-1.169,18.864,18.864,0,0,1,2.071-.873l.2,1.26h0a8.767,8.767,0,0,1-2.456-.141,7.535,7.535,0,0,1-2.435-.923,4.652,4.652,0,0,1-1.961-2.33,3.583,3.583,0,0,1-.156-1.8,4.078,4.078,0,0,1,.659-1.569,6.784,6.784,0,0,1,2.132-1.924,7.784,7.784,0,0,1,2.6-.895,9.786,9.786,0,0,1,2.588-.065,13.5,13.5,0,0,1,2.428.457h0a1.263,1.263,0,0,1,.691.41l.009.01a18.043,18.043,0,0,1,3.022,4.684,11.358,11.358,0,0,1,.8,2.806,7.817,7.817,0,0,1-.137,3.1,7.353,7.353,0,0,1-1.448,2.761,16.127,16.127,0,0,1-2.013,2c-1.393,1.161-2.8,2.167-4.171,3.2h0a1.262,1.262,0,0,1-1.94-.534l-.168-.429a.428.428,0,0,1-.031-.142c-.009-.04-.032-.031-.025-.059-.01-.01-.023,0-.016-.02-.036-.005-.033-.022-.077-.044a4.631,4.631,0,0,0-1.124-.322,6.757,6.757,0,0,1-1.894-.615,4.344,4.344,0,0,1-.541-.368,3.579,3.579,0,0,1-.487-.506,3.912,3.912,0,0,1-.362-.6c-.082-.2-.156-.413-.222-.622" transform="translate(-1006.356 -331.067)" fill="#03036b"/>
        <path id="Trazado_733" data-name="Trazado 733" d="M1867.7,1284.121c6.439,4.16,2.97,17.895,12.9,15.39,3.872-.977,5.6-4.861,5.664-8.974.068-4.485-1.841-9.255-5.1-10.872-.929-.459-2.708-.773-5.141.764-4.564-.588-6.7,1.11-7.641,2.4a4.3,4.3,0,0,0-.68,1.3" transform="translate(-1664.697 -1140.238)" fill="#ff1d74"/>
        <g id="Grupo_536" data-name="Grupo 536" transform="translate(203.007 142.586)" opacity="0.3">
          <g id="Grupo_535" data-name="Grupo 535">
            <g id="Grupo_534" data-name="Grupo 534" clip-path="url(#clip-path-25)">
              <path id="Trazado_734" data-name="Trazado 734" d="M1867.7,1313.12c6.439,4.16,2.97,17.895,12.9,15.39,3.872-.977,5.6-4.861,5.664-8.974,0,0-2.268,6.023-6.118,5.741-4.769-.345-4.695-3.484-7.049-8.9a8.831,8.831,0,0,0-4.718-4.552,4.3,4.3,0,0,0-.68,1.3" transform="translate(-1867.703 -1311.823)" fill="#03036b"/>
            </g>
          </g>
        </g>
        <path id="Trazado_735" data-name="Trazado 735" d="M1865.041,1288.137c-5.2,0-6.632-4.928-7.718-8.658-.846-2.906-1.72-5.912-3.861-7.294a1.631,1.631,0,0,1-.691-1.791c.537-2.01,3.226-5.542,9.531-4.953,3.094-1.73,5.367-.972,6.229-.544,4.564,2.261,6.456,8.818,5.92,13.84-.512,4.787-2.992,8.085-6.8,9.047a10.678,10.678,0,0,1-2.6.353m-8.632-17.77c2.28,2.134,3.21,5.333,4.045,8.2,1.54,5.291,2.429,7.053,6.394,6.054,3.427-.865,4.191-4.646,4.36-6.231.477-4.466-1.374-9.208-4.125-10.572-.416-.205-1.592-.551-3.548.682a1.635,1.635,0,0,1-1.078.238c-3.673-.475-5.331.717-6.047,1.628" transform="translate(-1651.337 -1126.931)" fill="#03036b"/>
        <path id="Trazado_736" data-name="Trazado 736" d="M1917.834,1283.977a16.416,16.416,0,0,0-1.872-5.739,7.127,7.127,0,0,0-1.746-2.075,4.794,4.794,0,0,0-1.042-.606,4.7,4.7,0,0,0-1.1-.274,1.738,1.738,0,1,1,.926-3.315l.087.039a7.926,7.926,0,0,1,1.7,1.024,7.651,7.651,0,0,1,1.312,1.388,9.311,9.311,0,0,1,1.448,3.181,14.739,14.739,0,0,1,.438,3.227,19.633,19.633,0,0,1-.157,3.15" transform="translate(-1702.9 -1133.582)" fill="#03036b"/>
        <path id="Trazado_737" data-name="Trazado 737" d="M1446.562,986.77l-.066-.507-.041-.376c-.025-.244-.034-.478-.046-.713-.025-.469-.019-.93-.012-1.393a24.825,24.825,0,0,1,.225-2.761,23.4,23.4,0,0,1,.543-2.751,19.5,19.5,0,0,1,.9-2.733,15.574,15.574,0,0,1,3.357-5.2,10.511,10.511,0,0,1,1.251-1.067c.4-.311.83-.593,1.259-.875a16.378,16.378,0,0,1,2.82-1.391,13.312,13.312,0,0,1,6.43-.767,13.686,13.686,0,0,1,5.965,2.316,15.1,15.1,0,0,1,4.134,4.356,16.3,16.3,0,0,1,2.154,5.245,1.388,1.388,0,0,1-2.417,1.187l-.035-.042a41.265,41.265,0,0,0-3.235-3.586,16.637,16.637,0,0,0-3.466-2.624,8.612,8.612,0,0,0-7.469-.555,11.658,11.658,0,0,0-1.835.874,14,14,0,0,0-1.652,1.134,11.714,11.714,0,0,0-2.545,3.245c-.365.659-.717,1.351-1.049,2.067s-.639,1.46-.928,2.219-.568,1.532-.833,2.313l-.381,1.173-.177.577-.084.271c-.028.08-.047.175-.072.141a1.353,1.353,0,0,1-2.7.23" transform="translate(-1289.178 -861.11)" fill="#03036b"/>
        <path id="Trazado_738" data-name="Trazado 738" d="M2037.952,831.774c-1.184-1.043-2.264-2.054-3.394-2.943a22.02,22.02,0,0,0-3.424-2.279,12.438,12.438,0,0,0-3.563-1.266,13.915,13.915,0,0,0-1.838-.2,8.535,8.535,0,0,0-1.739.073,6.28,6.28,0,0,0-2.887,1.127,7.316,7.316,0,0,0-2.11,2.559,14.985,14.985,0,0,0-1.256,3.61,22.51,22.51,0,0,0-.477,4.136l0,.088a1.363,1.363,0,0,1-2.554.617,12.016,12.016,0,0,1-1.391-5.115,13.462,13.462,0,0,1,.851-5.439,12.068,12.068,0,0,1,3.411-4.859,11.09,11.09,0,0,1,5.613-2.451,13.551,13.551,0,0,1,2.918-.071,14.36,14.36,0,0,1,2.773.486,15.67,15.67,0,0,1,4.977,2.4,19.223,19.223,0,0,1,6.236,7.968,1.358,1.358,0,0,1-2.141,1.564Z" transform="translate(-1794.468 -730.254)" fill="#03036b"/>
      </g>
    </g>
  </g>
</svg>
