<svg id="perro_validador" data-name="perro validador" xmlns="http://www.w3.org/2000/svg" xmlns:xlink="http://www.w3.org/1999/xlink" width="443.857" height="399.556" viewBox="0 0 443.857 399.556">
  <defs>
    <clipPath id="clip-path">
      <rect id="Rectángulo_228" data-name="Rectángulo 228" width="443.857" height="399.556" fill="none"/>
    </clipPath>
    <clipPath id="clip-path-3">
      <rect id="Rectángulo_196" data-name="Rectángulo 196" width="380.719" height="42.312" fill="none"/>
    </clipPath>
    <clipPath id="clip-path-4">
      <rect id="Rectángulo_197" data-name="Rectángulo 197" width="279.444" height="261.187" fill="none"/>
    </clipPath>
    <clipPath id="clip-path-5">
      <rect id="Rectángulo_198" data-name="Rectángulo 198" width="118.472" height="65.431" fill="none"/>
    </clipPath>
    <clipPath id="clip-path-6">
      <rect id="Rectángulo_199" data-name="Rectángulo 199" width="127.732" height="58.849" fill="none"/>
    </clipPath>
    <clipPath id="clip-path-7">
      <rect id="Rectángulo_200" data-name="Rectángulo 200" width="101.231" height="101.221" fill="none"/>
    </clipPath>
    <clipPath id="clip-path-8">
      <rect id="Rectángulo_201" data-name="Rectángulo 201" width="97.976" height="142.784" fill="none"/>
    </clipPath>
    <clipPath id="clip-path-9">
      <rect id="Rectángulo_202" data-name="Rectángulo 202" width="0.183" height="4.815" fill="none"/>
    </clipPath>
    <clipPath id="clip-path-10">
      <rect id="Rectángulo_203" data-name="Rectángulo 203" width="50.933" height="29.733" fill="none"/>
    </clipPath>
    <clipPath id="clip-path-11">
      <rect id="Rectángulo_204" data-name="Rectángulo 204" width="30.736" height="15.096" fill="none"/>
    </clipPath>
    <clipPath id="clip-path-12">
      <rect id="Rectángulo_205" data-name="Rectángulo 205" width="98.459" height="64.184" fill="none"/>
    </clipPath>
    <clipPath id="clip-path-13">
      <rect id="Rectángulo_206" data-name="Rectángulo 206" width="102.228" height="101.663" fill="none"/>
    </clipPath>
    <clipPath id="clip-path-14">
      <rect id="Rectángulo_207" data-name="Rectángulo 207" width="190.071" height="231.315" fill="none"/>
    </clipPath>
    <clipPath id="clip-path-15">
      <rect id="Rectángulo_208" data-name="Rectángulo 208" width="55.987" height="32.504" fill="none"/>
    </clipPath>
    <clipPath id="clip-path-17">
      <rect id="Rectángulo_210" data-name="Rectángulo 210" width="168.166" height="37.496" fill="none"/>
    </clipPath>
    <clipPath id="clip-path-18">
      <rect id="Rectángulo_211" data-name="Rectángulo 211" width="148.384" height="138.017" fill="none"/>
    </clipPath>
    <clipPath id="clip-path-19">
      <rect id="Rectángulo_212" data-name="Rectángulo 212" width="24.391" height="29.226" fill="none"/>
    </clipPath>
    <clipPath id="clip-path-20">
      <rect id="Rectángulo_213" data-name="Rectángulo 213" width="22.632" height="13.707" fill="none"/>
    </clipPath>
    <clipPath id="clip-path-21">
      <rect id="Rectángulo_214" data-name="Rectángulo 214" width="30.774" height="22.407" fill="none"/>
    </clipPath>
    <clipPath id="clip-path-22">
      <rect id="Rectángulo_215" data-name="Rectángulo 215" width="22.636" height="13.766" fill="none"/>
    </clipPath>
    <clipPath id="clip-path-23">
      <rect id="Rectángulo_216" data-name="Rectángulo 216" width="148.384" height="152.233" fill="none"/>
    </clipPath>
    <clipPath id="clip-path-24">
      <rect id="Rectángulo_217" data-name="Rectángulo 217" width="0.785" height="0.82" fill="none"/>
    </clipPath>
    <clipPath id="clip-path-25">
      <rect id="Rectángulo_218" data-name="Rectángulo 218" width="40.575" height="28.648" fill="none"/>
    </clipPath>
    <clipPath id="clip-path-26">
      <rect id="Rectángulo_219" data-name="Rectángulo 219" width="41.972" height="29.678" fill="none"/>
    </clipPath>
    <clipPath id="clip-path-28">
      <rect id="Rectángulo_221" data-name="Rectángulo 221" width="42.403" height="28.68" fill="none"/>
    </clipPath>
    <clipPath id="clip-path-29">
      <rect id="Rectángulo_222" data-name="Rectángulo 222" width="175.288" height="76.785" fill="none"/>
    </clipPath>
    <clipPath id="clip-path-30">
      <rect id="Rectángulo_223" data-name="Rectángulo 223" width="65.226" height="142.677" fill="none"/>
    </clipPath>
    <clipPath id="clip-path-31">
      <rect id="Rectángulo_224" data-name="Rectángulo 224" width="44.614" height="141.044" fill="none"/>
    </clipPath>
  </defs>
  <g id="Grupo_461" data-name="Grupo 461" clip-path="url(#clip-path)">
    <g id="Grupo_460" data-name="Grupo 460" transform="translate(0 0)">
      <g id="Grupo_459" data-name="Grupo 459" clip-path="url(#clip-path)">
        <g id="Grupo_368" data-name="Grupo 368" transform="translate(45.206 357.243)" opacity="0.2">
          <g id="Grupo_367" data-name="Grupo 367">
            <g id="Grupo_366" data-name="Grupo 366" clip-path="url(#clip-path-3)">
              <path id="Trazado_429" data-name="Trazado 429" d="M686.573,2365.52c0-11.684-85.227-21.156-190.359-21.156s-190.36,9.472-190.36,21.156,85.227,21.156,190.36,21.156,190.359-9.472,190.359-21.156" transform="translate(-305.854 -2344.364)" fill="#231f20"/>
            </g>
          </g>
        </g>
        <path id="Trazado_430" data-name="Trazado 430" d="M1221.563,1548.9c10.669,13,21.514,23.1,18.06,39.08h29.219l-7.418-36.572" transform="translate(-1041.012 -1312.875)" fill="#fbb67f"/>
        <path id="Trazado_431" data-name="Trazado 431" d="M920.2,986.6s-.99,17.776,1.227,30.225c0,0,10.96,5.143,15.667,13.052a12.732,12.732,0,0,1,1.33,11.33c-5.173,13.966-33.995,7.619-44.829,3.3-14.041-12.953-8.92-75.141-2.476-91.674-.554.366-31.2,20.542-63.053-8.9,0,0-12.563,3.558-21.927.51,0,0-2.091,3.3-5.048,3.3H761.309a6.925,6.925,0,0,1-6.659-5.3c-.081-.328-.163-.663-.237-1.006a21.539,21.539,0,0,1-.34-7.764c.044-.29.111-.587.177-.884.037-.183.066-.335.089-.427a.028.028,0,0,1,.007-.023.27.27,0,0,1,.022-.1c1.035-4.107,3.865-8.092,10.132-10.583v-8.4c-.621-.3-1.256-.587-1.892-.869-19.207-8.518-43.8-8.77-46.011,20.869-.177,1.326-.377,2.629-.613,3.9-2.971,16.457-10.317,28.183-17.057,38.225-9.94,14.812-18.586,25.966-10.043,43.231a11.754,11.754,0,0,0,5.18,5.212,37.053,37.053,0,0,1,3.555,2.072,26.388,26.388,0,0,1,7.028,6.674,18.814,18.814,0,0,1,2.217,18.591c-4.8,10.1-35.222,11.7-41.2,1.714,0,0-4.2-11.04-8.225-23.01-2.195-6.514-4.331-13.311-5.713-18.751a.059.059,0,0,1-.007-.023c-.1-.389-.192-.762-.281-1.135-2.771-11.429,1.87-31.505,3.946-53.037a97.1,97.1,0,0,0-2.505-33.3c-18.283-71.613,15.5-131.5,90.2-121.229,28.8,4.861,57.215,18.675,70.857,13.28,4.545-1.791,7.457-5.714,8.188-12.823v-.015a41.277,41.277,0,0,0,.14-5.516l104.859-3.771a26.607,26.607,0,0,0,.31,5.669,48.881,48.881,0,0,0,5.9,16.777c.65,1.181,1.375,2.385,2.188,3.612.14.221.288.442.436.663,0,0,15.276,24.6,4.929,68.794S920.2,962.732,920.2,986.6" transform="translate(-552.226 -672.637)" fill="#fbb67f"/>
        <path id="Trazado_432" data-name="Trazado 432" d="M1890.052,847.541c-5.823,17.562-13.376,31.81-22.57,42.538-11.492,13.4-24.883,20.42-38.887,20.42-.953,0-1.907-.038-2.867-.1-14.559-.99-28.341-9.714-38.813-24.557-7.42-10.522-12.918-23.635-16.266-38.622,4.545-1.79,7.457-5.714,8.188-12.823,5.461,37.41,24.292,63.78,47.571,65.358,19.5,1.326,44.275-16.381,57.74-68.992a48.875,48.875,0,0,0,5.9,16.777" transform="translate(-1508.941 -704.168)" fill="#f43434"/>
        <g id="Grupo_371" data-name="Grupo 371" transform="translate(95.777 120.926)" opacity="0.6">
          <g id="Grupo_370" data-name="Grupo 370">
            <g id="Grupo_369" data-name="Grupo 369" clip-path="url(#clip-path-4)">
              <path id="Trazado_433" data-name="Trazado 433" d="M825.219,803a41.3,41.3,0,0,1-.14,5.516v.015c-.732,7.109-3.643,11.033-8.188,12.823-13.642,5.394-42.057-8.419-70.857-13.28-74.693-10.271-108.48,49.616-90.2,121.229a97.1,97.1,0,0,1,2.505,33.3c-2.077,21.532-6.718,41.609-3.946,53.037,2.86,11.779,9.8,30.995,12.807,39.109a8.222,8.222,0,0,1-1.537-1.859s-10.531-27.681-14.226-42.919c-2.771-11.429,1.87-31.505,3.946-53.037a97.1,97.1,0,0,0-2.505-33.3c-18.283-71.613,15.5-131.5,90.2-121.229,28.8,4.861,57.215,18.675,70.857,13.28,4.545-1.791,7.457-5.714,8.188-12.823v-.015a41.277,41.277,0,0,0,.14-5.516l104.859-3.771a26.607,26.607,0,0,0,.31,5.669c.007.031.007.061.015.091Z" transform="translate(-648.003 -793.563)" fill="#f1f2f2"/>
            </g>
          </g>
        </g>
        <path id="Trazado_434" data-name="Trazado 434" d="M142.732,912.35C76.708,897.61,51.951,961.612,15,965.231c6.485,16.9,31.938,37.06,61.578,1.335,1.045-1.259,2.038-2.554,3.023-3.863,3.614-4.8,20.384-25.574,46.432-34.81" transform="translate(-12.783 -771.458)" fill="#fbb67f"/>
        <g id="Grupo_374" data-name="Grupo 374" transform="translate(2.217 149.513)" opacity="0.3">
          <g id="Grupo_373" data-name="Grupo 373">
            <g id="Grupo_372" data-name="Grupo 372" clip-path="url(#clip-path-5)">
              <path id="Trazado_435" data-name="Trazado 435" d="M133.471,981.163l-7.442,6.926c-26.043,9.234-42.819,30-46.432,34.8-.983,1.31-1.973,2.606-3.023,3.863-29.635,35.726-55.094,15.566-61.575-1.333.68-.069,1.36-.152,2.032-.259,10.339,13.623,32.132,22.667,56.838-7.1,1.042-1.265,2.032-2.56,3.023-3.863,3.584-4.77,14.736-27.734,56.579-33.037" transform="translate(-14.999 -981.163)" fill="#231f20"/>
            </g>
          </g>
        </g>
        <g id="Grupo_377" data-name="Grupo 377" transform="translate(2.217 138.695)" opacity="0.6">
          <g id="Grupo_376" data-name="Grupo 376">
            <g id="Grupo_375" data-name="Grupo 375" clip-path="url(#clip-path-6)">
              <path id="Trazado_436" data-name="Trazado 436" d="M142.731,912.368l-3.518,3.269c-62.38-11.551-87.13,48.085-122.477,53.38A32.3,32.3,0,0,1,15,965.245c36.951-3.619,61.708-67.62,127.732-52.877" transform="translate(-14.999 -910.167)" fill="#f1f2f2"/>
            </g>
          </g>
        </g>
        <path id="Trazado_437" data-name="Trazado 437" d="M671.577,1049.18c-8.17,0-17.278-2.023-20.742-7.807a2.311,2.311,0,0,1-.177-.366c-.432-1.136-10.626-27.992-14.313-43.2-2.025-8.353-.367-20.564,1.553-34.7.838-6.17,1.7-12.551,2.338-19.113a94.373,94.373,0,0,0-2.443-32.489c-10.19-39.912-4.578-76.188,15.4-99.527,17.619-20.586,44.328-29.075,77.238-24.549,11.05,1.864,22.159,5.058,31.96,7.876,16.1,4.628,30,8.624,37.81,5.536,4.006-1.578,6.158-5.032,6.771-10.868,0-.023,0-.045.005-.066a39.075,39.075,0,0,0,.131-5.2,2.218,2.218,0,1,1,4.431-.173,44.009,44.009,0,0,1-.144,5.77c0,.031,0,.061-.007.089-.779,7.562-4.009,12.514-9.6,14.717-9.177,3.628-23.733-.557-40.586-5.4-10.165-2.922-20.676-5.944-31.421-7.758-31.31-4.305-56.667,3.664-73.262,23.052-18.98,22.176-24.24,56.926-14.433,95.339a99.084,99.084,0,0,1,2.567,34.1c-.642,6.653-1.515,13.079-2.358,19.295-1.856,13.667-3.459,25.471-1.643,32.962,3.451,14.231,13.088,39.857,14.06,42.431,2.367,3.647,10.181,5.875,19.131,5.422,8.844-.443,16.263-3.344,18.074-7.061,2.942-6.955,1.62-17.478-11.775-24.323a14.092,14.092,0,0,1-6.171-6.221c-8.7-17.581-.659-29.49,8.654-43.278,7.625-11.289,16.266-24.081,18.828-43.362.879-11.594,5.078-19.736,12.483-24.2,9.328-5.625,23.743-4.738,38.561,2.372a2.291,2.291,0,0,1,1.281,2.072v8.4a2.285,2.285,0,0,1-1.419,2.132c-7.893,3.139-10.754,9.219-8.5,18.073a4.7,4.7,0,0,0,4.514,3.589h39.781c1.4,0,2.815-1.684,3.2-2.274a2.2,2.2,0,0,1,2.517-.919c8.639,2.812,20.552-.5,20.672-.535a2.17,2.17,0,0,1,2.067.5c30.029,27.757,58.691,9.778,60.343,8.7a2.172,2.172,0,0,1,2.763.243,2.339,2.339,0,0,1,.479,2.63c-6.2,16.145-10.894,76.2,1.658,88.727,9.556,3.711,27.422,7.181,36.43,3.05a9.143,9.143,0,0,0,5.134-5.187c4.369-11.8-15.644-21.391-15.846-21.486a2.278,2.278,0,0,1-1.26-1.667c-2.194-12.317-1.338-29.319-1.263-30.7.013-16.966,5.172-36.789,11.7-61.875,2.786-10.7,5.943-22.837,9.054-36.122,9.814-41.918-4.045-66.02-4.626-67-.992-1.471-1.9-2.952-2.7-4.4a51.359,51.359,0,0,1-6.17-17.571,28.851,28.851,0,0,1-.324-6.227,2.229,2.229,0,0,1,2.422-2.053,2.268,2.268,0,0,1,1.992,2.488,25.144,25.144,0,0,0,.3,5.121,46.674,46.674,0,0,0,5.632,15.97c.749,1.358,1.595,2.736,2.523,4.11.016.024.032.049.048.074.644,1.038,15.665,25.937,5.217,70.562-3.123,13.34-6.289,25.5-9.081,36.233-6.453,24.794-11.549,44.378-11.549,60.756,0,.043,0,.087,0,.131-.009.17-.891,16.587,1,28.55,4.663,2.43,22.278,12.7,17.078,26.741a13.609,13.609,0,0,1-7.474,7.734c-12.3,5.641-33.7-.516-40.225-3.118a2.205,2.205,0,0,1-.679-.428c-8.953-8.259-9.895-32.515-9.659-46.238.269-15.659,2.237-32.26,4.907-42.572a53.629,53.629,0,0,1-21.971,4.815c-11.017,0-24.35-3.6-37.923-15.775-3.257.781-12.557,2.635-20.524.609a8.156,8.156,0,0,1-5.855,2.979H748.364a9.164,9.164,0,0,1-8.8-7c-2.657-10.455.9-18.711,9.778-22.885v-5.405c-13.029-5.933-25.352-6.685-33.169-1.971-6.089,3.672-9.557,10.627-10.306,20.674,0,.045-.008.089-.014.133-2.7,20.409-12.065,34.278-19.592,45.423-9.194,13.612-15.837,23.447-8.343,38.587a9.556,9.556,0,0,0,4.194,4.205c15.182,7.757,17.892,20.81,13.84,30.3-.012.029-.025.058-.039.086-3.076,6.464-13.309,9.225-21.859,9.654-.81.041-1.638.062-2.476.062" transform="translate(-539.282 -659.919)" fill="#231f20"/>
        <path id="Trazado_438" data-name="Trazado 438" d="M30.6,975.83a28.217,28.217,0,0,1-4.794-.408C13.136,973.24,3.793,962.7.155,953.219a2.348,2.348,0,0,1,.171-2.035A2.21,2.21,0,0,1,2.007,950.1c13.532-1.326,25.351-11.148,39.037-22.522,22.348-18.574,47.679-39.627,89.374-30.317a2.287,2.287,0,0,1,1.7,2.718,2.218,2.218,0,0,1-2.636,1.75C89.856,892.886,65.4,913.209,43.827,931.14,31.117,941.7,19.065,951.72,5.469,954.224c3.762,7.488,11.281,15,21.072,16.689,11.484,1.978,23.786-4.484,35.569-18.686,1.064-1.283,2.092-2.63,2.956-3.779,3.213-4.269,20.6-26.047,47.463-35.57a2.2,2.2,0,0,1,2.817,1.418,2.3,2.3,0,0,1-1.375,2.9c-25.669,9.1-42.324,29.961-45.4,34.05-.9,1.191-1.965,2.591-3.09,3.948C51.858,971.617,39.6,975.83,30.6,975.83" transform="translate(0 -758.605)" fill="#231f20"/>
        <path id="Trazado_439" data-name="Trazado 439" d="M898.286,2461.566c-.008.023.027-.016.057-.049a1.006,1.006,0,0,0,.093-.108c.064-.082.131-.161.193-.256.132-.177.247-.376.368-.574a8.2,8.2,0,0,0,.586-1.281,7.8,7.8,0,0,0,.455-2.86,9.258,9.258,0,0,0-.631-3.013,14.017,14.017,0,0,0-.676-1.477c-.274-.474-.585-.935-.88-1.413l-.052-.083a.774.774,0,0,1,.225-1.049.72.72,0,0,1,.916.1c.424.435.868.861,1.285,1.322a16.078,16.078,0,0,1,1.136,1.516,11.913,11.913,0,0,1,1.6,3.625,11.372,11.372,0,0,1,.23,4.157,12.435,12.435,0,0,1-.446,2.08c-.113.34-.225.681-.37,1.019-.065.169-.147.341-.229.512-.039.084-.083.172-.134.265s-.091.174-.183.316a2.174,2.174,0,0,1-3.1.449,2.333,2.333,0,0,1-.436-3.2" transform="translate(-765.003 -2076.052)" fill="#231f20"/>
        <path id="Trazado_440" data-name="Trazado 440" d="M986.389,2437.783c0,.013.035-.038.064-.079a1.514,1.514,0,0,0,.088-.137c.061-.1.123-.2.18-.31.122-.213.227-.446.338-.678a11.8,11.8,0,0,0,.536-1.471,11.125,11.125,0,0,0,.452-3.177,11.6,11.6,0,0,0-.461-3.286,13.25,13.25,0,0,0-.561-1.619c-.22-.533-.509-1.038-.764-1.568l-.046-.1a.77.77,0,0,1,.333-1.016.722.722,0,0,1,.9.208c.388.5.813.989,1.177,1.526a15.1,15.1,0,0,1,1.006,1.691,14.237,14.237,0,0,1,1.35,3.817,14.666,14.666,0,0,1,.253,4.167,16.066,16.066,0,0,1-.308,2.108c-.083.35-.164.7-.274,1.054-.049.175-.111.355-.174.535-.03.088-.063.18-.1.279s-.07.182-.142.33a2.181,2.181,0,0,1-3.026.845,2.324,2.324,0,0,1-.819-3.12" transform="translate(-840.346 -2054.846)" fill="#231f20"/>
        <path id="Trazado_441" data-name="Trazado 441" d="M1419.559,1166.888c-.091-.616-.135-1.094-.181-1.632s-.075-1.043-.1-1.562c-.05-1.038-.043-2.073-.022-3.109a42.663,42.663,0,0,1,.635-6.191,32.556,32.556,0,0,1,4.414-11.736,26.441,26.441,0,0,1,9.005-8.7,34.73,34.73,0,0,1,11.48-4.046h0l-1.813,1.821a69.8,69.8,0,0,1,2.573-10.427c1.086-3.379,2.354-6.686,3.731-9.939,1.395-3.245,2.868-6.449,4.519-9.556,1.593-3.134,3.382-6.159,5.24-9.121a.728.728,0,0,1,1.025-.227.777.777,0,0,1,.279.942l-.006.014c-1.337,3.217-2.67,6.414-3.895,9.653-.63,1.61-1.2,3.246-1.777,4.874s-1.13,3.264-1.669,4.9c-1.092,3.272-2.038,6.588-2.986,9.89-.926,3.289-1.858,6.654-2.678,9.862l-.02.078a2.365,2.365,0,0,1-1.792,1.743h0a30.424,30.424,0,0,0-10.01,3.507,23.641,23.641,0,0,0-4.175,3.158,23.275,23.275,0,0,0-3.319,4.073,27.913,27.913,0,0,0-3.763,10.061,37.979,37.979,0,0,0-.564,5.5c-.018.924-.025,1.85.02,2.771.021.46.048.919.086,1.372s.087.937.14,1.29l.007.048a2.277,2.277,0,0,1-1.857,2.6,2.227,2.227,0,0,1-2.526-1.914Z" transform="translate(-1209.473 -925.888)" fill="#231f20"/>
        <path id="Trazado_442" data-name="Trazado 442" d="M1580.226,1338.637c.923.081,1.658.215,2.463.36.784.154,1.559.321,2.324.517a45.5,45.5,0,0,1,4.5,1.379,46.324,46.324,0,0,1,4.306,1.805c1.405.656,2.757,1.416,4.083,2.2a.389.389,0,0,1,.138.521.366.366,0,0,1-.437.174l-.01,0c-1.432-.481-2.863-.931-4.319-1.269a43.681,43.681,0,0,0-4.372-.834,42.112,42.112,0,0,0-4.383-.387c-.728-.03-1.453-.032-2.172-.02-.7.019-1.47.052-2.056.13a2.246,2.246,0,0,1-2.5-1.987,2.287,2.287,0,0,1,1.927-2.576,2.172,2.172,0,0,1,.463-.012Z" transform="translate(-1344.575 -1134.641)" fill="#231f20"/>
        <path id="Trazado_443" data-name="Trazado 443" d="M1703.262,1559.788a34.52,34.52,0,0,0,1.7-8.811c.295-3.16.4-6.413.38-9.677s-.117-6.554-.262-9.848l-.559-9.907v-.008a.756.756,0,0,1,.7-.807.745.745,0,0,1,.766.595c.711,3.25,1.375,6.516,1.9,9.813.54,3.295,1,6.612,1.316,9.965a78.33,78.33,0,0,1,.367,10.194,25.846,25.846,0,0,1-2.325,10.517,2.184,2.184,0,0,1-2.984.983,2.315,2.315,0,0,1-1.047-2.865Z" transform="translate(-1451.335 -1288.994)" fill="#231f20"/>
        <path id="Trazado_444" data-name="Trazado 444" d="M1421.543,1615.484c.567-.147.98-.217,1.456-.3.46-.075.915-.146,1.369-.2.907-.115,1.808-.188,2.707-.236a51.6,51.6,0,0,1,5.355.006c1.772.116,3.531.277,5.271.555,1.742.255,3.462.617,5.166,1.01a.764.764,0,0,1,.561.912.744.744,0,0,1-.779.594h-.017c-1.7-.136-3.4-.239-5.1-.235-1.694-.019-3.382.077-5.056.213a48.57,48.57,0,0,0-4.954.729c-.811.165-1.615.352-2.4.572-.395.1-.781.226-1.161.347-.363.119-.787.265-1.043.379a2.2,2.2,0,0,1-2.926-1.2,2.322,2.322,0,0,1,1.16-3.017,2.149,2.149,0,0,1,.327-.116Z" transform="translate(-1209.957 -1368.632)" fill="#231f20"/>
        <path id="Trazado_445" data-name="Trazado 445" d="M1445.123,1715.2c-.148-.774-.208-1.381-.279-2.058-.06-.659-.107-1.313-.132-1.965-.052-1.3-.055-2.6.015-3.887s.176-2.566.361-3.83c.165-1.266.416-2.515.688-3.749a.742.742,0,0,1,.887-.577.761.761,0,0,1,.578.759v.024c-.021,1.221-.021,2.433.063,3.64.063,1.206.2,2.4.376,3.586s.413,2.352.691,3.5c.138.573.3,1.138.462,1.693.166.535.36,1.137.538,1.554a2.332,2.332,0,0,1-1.144,3.036,2.209,2.209,0,0,1-2.945-1.18,2.375,2.375,0,0,1-.145-.47Z" transform="translate(-1231.146 -1440.193)" fill="#231f20"/>
        <path id="Trazado_446" data-name="Trazado 446" d="M1577.722,1718.864c.218-1.1.413-2.277.589-3.426s.33-2.318.464-3.482a58.569,58.569,0,0,0,.42-7.005v-.011a.741.741,0,0,1,1.467-.174,60.624,60.624,0,0,1,1.07,7.215q.168,1.815.271,3.636c.066,1.223.119,2.415.134,3.681a2.231,2.231,0,1,1-4.459.055,2.516,2.516,0,0,1,.045-.489" transform="translate(-1344.491 -1444.48)" fill="#231f20"/>
        <path id="Trazado_447" data-name="Trazado 447" d="M1851.395,1692.18a8.3,8.3,0,0,0,.913-.3c.331-.123.659-.266.987-.417a19.534,19.534,0,0,0,1.926-1.031,16.772,16.772,0,0,0,3.416-2.8,17.674,17.674,0,0,0,1.429-1.732,16.7,16.7,0,0,0,1.146-1.963,17.634,17.634,0,0,0,1.5-4.411l.015-.064a.737.737,0,0,1,.89-.563.759.759,0,0,1,.564.8,19.769,19.769,0,0,1-.918,5.118,19.268,19.268,0,0,1-.978,2.461,20.756,20.756,0,0,1-1.356,2.284,20.409,20.409,0,0,1-3.54,3.957,23.509,23.509,0,0,1-2.123,1.61c-.371.248-.749.488-1.143.713a12.689,12.689,0,0,1-1.292.665l-.061.027a2.2,2.2,0,0,1-2.927-1.208,2.28,2.28,0,0,1,1.555-3.146" transform="translate(-1576.273 -1423.044)" fill="#231f20"/>
        <path id="Trazado_448" data-name="Trazado 448" d="M2277.979,1747.365c.576-.371,1.275-.9,1.906-1.392.647-.5,1.283-1.036,1.914-1.577,1.261-1.086,2.487-2.234,3.688-3.418s2.364-2.416,3.5-3.683,2.234-2.569,3.316-3.894l.007-.009a.725.725,0,0,1,1.044-.092.78.78,0,0,1,.152.985c-.9,1.494-1.814,2.979-2.785,4.433s-1.978,2.886-3.029,4.293-2.156,2.778-3.315,4.116c-.581.668-1.171,1.33-1.79,1.978s-1.215,1.265-1.983,1.946a2.178,2.178,0,0,1-3.136-.243,2.343,2.343,0,0,1,.236-3.233,2.246,2.246,0,0,1,.26-.2Z" transform="translate(-1940.388 -1469.021)" fill="#231f20"/>
        <path id="Trazado_449" data-name="Trazado 449" d="M2422.255,2246.834a25.32,25.32,0,0,0-2.74-.944c-.955-.273-1.925-.5-2.9-.685a24.918,24.918,0,0,0-2.965-.375,20.113,20.113,0,0,0-2.992.034l-.036,0a.75.75,0,0,1-.8-.706.765.765,0,0,1,.511-.785,21.961,21.961,0,0,1,3.174-.828,27.506,27.506,0,0,1,3.261-.388q1.64-.1,3.291-.039a28.845,28.845,0,0,1,3.368.3l.016,0a2.3,2.3,0,0,1,1.877,2.621,2.214,2.214,0,0,1-3.063,1.786" transform="translate(-2053.639 -1900.439)" fill="#231f20"/>
        <path id="Trazado_450" data-name="Trazado 450" d="M2446.8,2400.95c-.025.037.016,0,.042-.015a.77.77,0,0,0,.092-.075,2.122,2.122,0,0,0,.2-.188c.138-.13.264-.29.4-.442a7.1,7.1,0,0,0,.691-1.05,8.355,8.355,0,0,0,.861-2.509,10.7,10.7,0,0,0,.038-2.851c-.037-.493-.174-.976-.257-1.475-.128-.488-.283-.975-.425-1.471l-.024-.083a.765.765,0,0,1,.5-.945.729.729,0,0,1,.846.347c.274.485.563.97.829,1.473.223.524.5,1.034.679,1.591a13.441,13.441,0,0,1,.769,3.516,12.022,12.022,0,0,1-.363,3.768,11.4,11.4,0,0,1-.657,1.846c-.148.3-.289.6-.469.894-.083.147-.177.3-.28.447-.05.075-.1.149-.161.231a3.357,3.357,0,0,1-.224.279,2.17,2.17,0,0,1-3.135-.053,2.336,2.336,0,0,1,.052-3.232" transform="translate(-2084.579 -2025.643)" fill="#231f20"/>
        <path id="Trazado_451" data-name="Trazado 451" d="M1283.077,1814.377V1898.7a8.885,8.885,0,0,1-8.743,9.013h-84.743a8.884,8.884,0,0,1-8.743-9.013v-84.322a8.885,8.885,0,0,1,8.743-9.014h84.743a8.436,8.436,0,0,1,3.34.686,9.014,9.014,0,0,1,5.4,8.328" transform="translate(-1006.315 -1530.255)" fill="#4dbfa8"/>
        <g id="Grupo_380" data-name="Grupo 380" transform="translate(174.534 275.108)" opacity="0.6">
          <g id="Grupo_379" data-name="Grupo 379">
            <g id="Grupo_378" data-name="Grupo 378" clip-path="url(#clip-path-7)">
              <path id="Trazado_452" data-name="Trazado 452" d="M1282.08,1810.2a8.439,8.439,0,0,0-3.252-.648h-87.884a5.692,5.692,0,0,0-5.6,5.775v90.8c0,.152.007.312.022.457a9.046,9.046,0,0,1-4.515-7.886v-84.322a8.885,8.885,0,0,1,8.743-9.014h84.743a8.436,8.436,0,0,1,3.34.686,8.841,8.841,0,0,1,4.4,4.152" transform="translate(-1180.849 -1805.363)" fill="#f1f2f2"/>
            </g>
          </g>
        </g>
        <path id="Trazado_453" data-name="Trazado 453" d="M2533.35,2393.506a4,4,0,0,0,.293-.483c.1-.189.2-.385.3-.587.193-.4.362-.82.521-1.245a14.2,14.2,0,0,0,.683-2.648,11.386,11.386,0,0,0,.115-2.76,11.2,11.2,0,0,0-.572-2.763l-.022-.072a.767.767,0,0,1,.482-.957.73.73,0,0,1,.849.321,13.055,13.055,0,0,1,1.428,2.979,14.084,14.084,0,0,1,.676,3.315,17.783,17.783,0,0,1-.033,3.415c-.064.568-.146,1.137-.261,1.705-.056.284-.119.569-.194.857a9.214,9.214,0,0,1-.279.928l-.132.363a2.26,2.26,0,0,1-2.934,1.376,2.372,2.372,0,0,1-1.334-3.025,2.408,2.408,0,0,1,.417-.72" transform="translate(-2158.433 -2018.985)" fill="#231f20"/>
        <path id="Trazado_454" data-name="Trazado 454" d="M1261.549,1897.283H1176.81a11.149,11.149,0,0,1-10.962-11.3v-84.317a11.149,11.149,0,0,1,10.962-11.3h84.738a11.149,11.149,0,0,1,10.962,11.3v84.317a11.148,11.148,0,0,1-10.962,11.3m-84.738-102.349a6.639,6.639,0,0,0-6.528,6.731v84.317a6.639,6.639,0,0,0,6.528,6.73h84.738a6.639,6.639,0,0,0,6.528-6.73v-84.317a6.639,6.639,0,0,0-6.528-6.731Z" transform="translate(-993.532 -1517.54)" fill="#231f20"/>
        <path id="Trazado_455" data-name="Trazado 455" d="M1226.842,1577.554a2.169,2.169,0,0,1-.484-.055,2.288,2.288,0,0,1-1.682-2.728c2.8-12.942-4.5-21.582-13.749-32.52-1.265-1.5-2.553-3.021-3.839-4.587a2.335,2.335,0,0,1,.26-3.221,2.171,2.171,0,0,1,3.125.268c1.271,1.549,2.546,3.056,3.8,4.537,9.266,10.964,18.018,21.32,14.734,36.517a2.234,2.234,0,0,1-2.162,1.789" transform="translate(-1028.229 -1300.16)" fill="#231f20"/>
        <g id="Grupo_383" data-name="Grupo 383" transform="translate(126.264 210.49)" opacity="0.3">
          <g id="Grupo_382" data-name="Grupo 382">
            <g id="Grupo_381" data-name="Grupo 381" clip-path="url(#clip-path-8)">
              <path id="Trazado_456" data-name="Trazado 456" d="M952.244,1381.313c-11.248,9.227-13.472,25.364-13.857,29.273-19.207-8.518-43.8-8.77-46.011,20.869-.177,1.326-.377,2.629-.613,3.9-.089.5-.185.983-.273,1.47a1.087,1.087,0,0,0-.044.213l-.288,1.349c-.222.983-.451,1.958-.695,2.911-.377,1.44-.791,2.842-1.227,4.213-.14.45-.3.9-.443,1.349s-.3.891-.466,1.326-.318.876-.48,1.3c-.177.48-.362.953-.547,1.417-.318.792-.643,1.577-.983,2.347a109.68,109.68,0,0,1-8.425,15.49c-.214.328-.429.663-.643.99-.621.96-1.242,1.9-1.862,2.827-.222.343-.451.686-.68,1.021-9.94,14.812-18.586,25.966-10.043,43.231a11.753,11.753,0,0,0,5.18,5.212,37.053,37.053,0,0,1,3.555,2.072c-3.252-.236-11.75-1.425-15.881-7.307-5.173-7.368-5.668-22.606,9.851-48,10.8-17.684,12.755-32.077,12.94-39.193a30.34,30.34,0,0,0-.163-4.815v-.008c-.052-1.882-.089-3.749-.089-5.615,0-21.829,17.367-25.418,37.853-26.56,13.236-.739,26.56-6.964,34.335-11.284" transform="translate(-854.268 -1381.313)" fill="#231f20"/>
            </g>
          </g>
        </g>
        <g id="Grupo_386" data-name="Grupo 386" transform="translate(152.142 253.958)" opacity="0.3">
          <g id="Grupo_385" data-name="Grupo 385">
            <g id="Grupo_384" data-name="Grupo 384" clip-path="url(#clip-path-9)">
              <path id="Trazado_457" data-name="Trazado 457" d="M1029.349,1666.563a30.334,30.334,0,0,1,.163,4.815c-.059-1.608-.118-3.215-.163-4.815" transform="translate(-1029.349 -1666.563)" fill="#2b2828"/>
            </g>
          </g>
        </g>
        <g id="Grupo_389" data-name="Grupo 389" transform="translate(105.214 357.243)" opacity="0.3">
          <g id="Grupo_388" data-name="Grupo 388">
            <g id="Grupo_387" data-name="Grupo 387" clip-path="url(#clip-path-10)">
              <path id="Trazado_458" data-name="Trazado 458" d="M761.275,2365.659c-4.8,10.1-35.222,11.7-41.2,1.714,0,0-4.2-11.04-8.225-23.01,3.969,9.067,10.3,18.317,19.894,19.871,20.419,3.314,27.122-.922,27.218-14.636.007-.869.037-1.714.1-2.53a18.814,18.814,0,0,1,2.217,18.591" transform="translate(-711.849 -2344.363)" fill="#231f20"/>
            </g>
          </g>
        </g>
        <g id="Grupo_392" data-name="Grupo 392" transform="translate(181.247 235.589)" opacity="0.3">
          <g id="Grupo_391" data-name="Grupo 391">
            <g id="Grupo_390" data-name="Grupo 390" clip-path="url(#clip-path-11)">
              <path id="Trazado_459" data-name="Trazado 459" d="M1257,1552.777s-18.523-8.275-19.55,8.339l-11.186-14.863s20.712-1.533,27.537,3.257" transform="translate(-1226.268 -1546.02)" fill="#231f20"/>
            </g>
          </g>
        </g>
        <g id="Grupo_395" data-name="Grupo 395" transform="translate(276.762 124.914)" opacity="0.3">
          <g id="Grupo_394" data-name="Grupo 394">
            <g id="Grupo_393" data-name="Grupo 393" clip-path="url(#clip-path-12)">
              <path id="Trazado_460" data-name="Trazado 460" d="M1968.65,819.732,1872.5,831.78c25.555,69.368,80.587,70.341,98.459-2.047" transform="translate(-1872.499 -819.732)" fill="#2b2828"/>
            </g>
          </g>
        </g>
        <g id="Grupo_398" data-name="Grupo 398" transform="translate(174.534 275.794)" opacity="0.3">
          <g id="Grupo_397" data-name="Grupo 397">
            <g id="Grupo_396" data-name="Grupo 396" clip-path="url(#clip-path-13)">
              <path id="Trazado_461" data-name="Trazado 461" d="M1283.077,1818.191v84.322a8.885,8.885,0,0,1-8.743,9.013h-84.743a8.884,8.884,0,0,1-8.743-9.013v-4.762c72.246,18.446,101.822-14.073,96.826-87.887a9.014,9.014,0,0,1,5.4,8.328" transform="translate(-1180.849 -1809.863)" fill="#231f20"/>
            </g>
          </g>
        </g>
        <g id="Grupo_401" data-name="Grupo 401" transform="translate(202.188 146.142)" opacity="0.3">
          <g id="Grupo_400" data-name="Grupo 400">
            <g id="Grupo_399" data-name="Grupo 399" clip-path="url(#clip-path-14)">
              <path id="Trazado_462" data-name="Trazado 462" d="M1533.733,1127.193s-.99,17.776,1.227,30.225c0,0,10.96,5.143,15.667,13.052a12.733,12.733,0,0,1,1.33,11.33c-5.173,13.966-33.995,7.619-44.829,3.3-2.306-2.133-4.094-5.593-5.447-9.958.347.206.709.419,1.072.625,32.886,18.857,41.754-9.905,37.32-14.1s-13.672-6.1-13.672-6.1c-5.727-4.952-7.76-39.429-.739-64.192s-4.8-16.686-4.8-16.686l-16.635,19.9c.14-.411.288-.808.428-1.173-.554.366-31.2,20.541-63.053-8.9,0,0-12.563,3.558-21.927.51,0,0-2.092,3.3-5.048,3.3h-39.781a6.925,6.925,0,0,1-6.659-5.3c-.081-.328-.163-.663-.236-1.006.392-2.491.672-3.985.672-3.985,30.8,8.556,52.381,3.68,50.312-35.62l2.9,22.918c21.062,11.116,31.1-7.68,31.1-7.68l1.6,7.078c37.091,40.13,98.659-3.878,92.776-105.709l1.751,1.173c.14.221.288.442.436.663,0,0,15.275,24.6,4.929,68.794s-20.693,73.655-20.693,97.526" transform="translate(-1367.949 -959.037)" fill="#231f20"/>
            </g>
          </g>
        </g>
        <path id="Trazado_463" data-name="Trazado 463" d="M1795.91,921.365c-6.805,33.455-34.1,62.709-83.822,76.276a14.559,14.559,0,0,1-7.644,0c-49.724-13.566-77.01-42.82-83.822-76.276Z" transform="translate(-1381.088 -780.964)" fill="#afdce2"/>
        <g id="Grupo_404" data-name="Grupo 404" transform="translate(353.403 151.962)" opacity="0.6">
          <g id="Grupo_403" data-name="Grupo 403">
            <g id="Grupo_402" data-name="Grupo 402" clip-path="url(#clip-path-15)">
              <path id="Trazado_464" data-name="Trazado 464" d="M2391.36,1029.73c12.877-1.88,25.817-5.144,36.9-12.162a103.115,103.115,0,0,0,14.116-11.219,18.254,18.254,0,0,0,3.542-3.958,6.652,6.652,0,0,0,.89-5.164c-2.394,1.807-4.792,3.616-7.013,5.645-1.52,1.388-2.952,2.875-4.465,4.273-7.745,7.156-17.341,11.759-26.8,16.221-5.6,2.644-11.361,5.317-17.507,5.794" transform="translate(-2391.026 -997.227)" fill="#fff"/>
            </g>
          </g>
        </g>
        <g id="Grupo_407" data-name="Grupo 407" transform="translate(244.245 151.962)" opacity="0.6">
          <g id="Grupo_406" data-name="Grupo 406">
            <g id="Grupo_405" data-name="Grupo 405" clip-path="url(#clip-path-15)">
              <path id="Trazado_465" data-name="Trazado 465" d="M1708.151,1029.73c-12.877-1.88-25.817-5.144-36.9-12.162a103.1,103.1,0,0,1-14.116-11.219,18.253,18.253,0,0,1-3.542-3.958,6.651,6.651,0,0,1-.89-5.164c2.394,1.807,4.792,3.616,7.013,5.645,1.52,1.388,2.953,2.875,4.465,4.273,7.745,7.156,17.341,11.759,26.8,16.221,5.6,2.644,11.361,5.317,17.507,5.794" transform="translate(-1652.499 -997.227)" fill="#fff"/>
            </g>
          </g>
        </g>
        <g id="Grupo_410" data-name="Grupo 410" transform="translate(242.436 140.402)" opacity="0.2">
          <g id="Grupo_409" data-name="Grupo 409">
            <g id="Grupo_408" data-name="Grupo 408" clip-path="url(#clip-path-17)">
              <path id="Trazado_466" data-name="Trazado 466" d="M1801.423,924.895l-.05-3.53H1648.637l-.039,2.745-8.337,4.908a76.443,76.443,0,0,0,18.681,18.563l1.359-.288c-1.614-.978-1.065-3.819.593-4.713a3.816,3.816,0,0,1,1.544-.429c15.014,11.638,36.227,16.036,62.566,16.711,26.177-.67,47.287-5.017,62.285-16.494a3.581,3.581,0,0,1,.5.212c1.659.894,2.207,3.735.593,4.713l1.359.288a76.445,76.445,0,0,0,18.681-18.563l-7-4.123" transform="translate(-1640.261 -921.366)" fill="#231f20"/>
            </g>
          </g>
        </g>
        <path id="Trazado_467" data-name="Trazado 467" d="M1696.468,988.516a16.515,16.515,0,0,1-4.346-.582c-24.253-6.615-44.059-17.1-58.867-31.166-13.727-13.038-22.868-29.192-26.434-46.716a2.16,2.16,0,0,1,.414-1.765,2.025,2.025,0,0,1,1.59-.781h175.286a2.025,2.025,0,0,1,1.59.781,2.162,2.162,0,0,1,.415,1.765c-3.566,17.524-12.707,33.678-26.434,46.716-14.808,14.065-34.614,24.551-58.867,31.166a16.52,16.52,0,0,1-4.346.582m-85.079-76.786c8.1,34.363,37.034,59.916,81.781,72.122a12.555,12.555,0,0,0,6.6,0c44.747-12.206,73.677-37.759,81.781-72.122Z" transform="translate(-1369.29 -769.217)" fill="#231f20"/>
        <path id="Trazado_468" data-name="Trazado 468" d="M1610.537,918.6a65.62,65.62,0,0,0,10.543,15.289,75.266,75.266,0,0,0,14.24,11.946,101.278,101.278,0,0,0,16.537,8.645,145.63,145.63,0,0,0,17.735,6h0a.816.816,0,0,1,.561.994.789.789,0,0,1-.938.585,147.312,147.312,0,0,1-18.153-5.456,103.6,103.6,0,0,1-17.224-8.273,78.233,78.233,0,0,1-15.236-11.939,69.338,69.338,0,0,1-11.684-15.805,2.147,2.147,0,0,1,.8-2.871,2.017,2.017,0,0,1,2.785.822l.032.063" transform="translate(-1369.194 -777.644)" fill="#231f20"/>
        <path id="Trazado_469" data-name="Trazado 469" d="M2446.868,918.639a70.291,70.291,0,0,1-11.842,16.026,79.321,79.321,0,0,1-15.446,12.109,105.015,105.015,0,0,1-17.464,8.394,149.3,149.3,0,0,1-18.409,5.538.788.788,0,0,1-.945-.611.815.815,0,0,1,.566-.967h.005a147.677,147.677,0,0,0,17.99-6.082,102.785,102.785,0,0,0,16.777-8.765,76.376,76.376,0,0,0,14.451-12.117,66.59,66.59,0,0,0,10.7-15.51,2.019,2.019,0,0,1,2.757-.919,2.143,2.143,0,0,1,.89,2.842c-.009.018-.023.045-.032.063" transform="translate(-2030.565 -775.994)" fill="#231f20"/>
        <path id="Trazado_470" data-name="Trazado 470" d="M1783.148,183.117c-34.862-.946-60.483-8.993-74.192-33.367l1.026-78.58c5.2-49.376,33.879-63.962,70.786-54.685h4.759c36.907-9.277,65.583,5.309,70.786,54.685l1.027,78.58c-13.709,24.374-39.33,32.421-74.192,33.367" transform="translate(-1456.366 -11.744)" fill="#fbb67f"/>
        <g id="Grupo_413" data-name="Grupo 413" transform="translate(252.59 2.112)" opacity="0.6">
          <g id="Grupo_412" data-name="Grupo 412">
            <g id="Grupo_411" data-name="Grupo 411" clip-path="url(#clip-path-18)">
              <path id="Trazado_471" data-name="Trazado 471" d="M1709.982,77.775c5.2-50.1,33.879-64.9,70.786-55.49h4.759c36.907-9.413,65.583,5.387,70.786,55.49l.954,74.1c.023-.042.049-.082.073-.125l-1.026-79.736c-5.2-50.1-33.879-64.9-70.786-55.49h-4.759c-36.907-9.413-65.583,5.387-70.786,55.49l-1.026,79.736c.023.042.049.082.073.125Z" transform="translate(-1708.957 -13.857)" fill="#fff"/>
            </g>
          </g>
        </g>
        <g id="Grupo_416" data-name="Grupo 416" transform="translate(313.397 117.756)" opacity="0.3">
          <g id="Grupo_415" data-name="Grupo 415">
            <g id="Grupo_414" data-name="Grupo 414" clip-path="url(#clip-path-19)">
              <path id="Trazado_472" data-name="Trazado 472" d="M2144.731,788.271c-.128,3.925-1.147,7.536-3.622,10.111a11.852,11.852,0,0,1-8.4,3.6,11.717,11.717,0,0,1-8.332-3.6,15.575,15.575,0,0,1-3.916-9.36,22.691,22.691,0,0,1,1.333-10.111c.724-1.84,2.044-4.96,4.839-5.88a5.06,5.06,0,0,1,6.006,2.238h.211c2.993-4.6,9.4-2.583,10.845,3.641a36.544,36.544,0,0,1,1.038,9.36" transform="translate(-2120.357 -772.759)" fill="#231f20"/>
            </g>
          </g>
        </g>
        <path id="Trazado_473" data-name="Trazado 473" d="M2109.4,738.933q-19.861,28.432-39.721,0c8.05-2.484,17.776-7.178,19.315-11.387,2.178,3.5,8.647,8.151,20.406,11.387" transform="translate(-1763.769 -616.68)" fill="#231f20"/>
        <path id="Trazado_474" data-name="Trazado 474" d="M2148.91,791.091a11.477,11.477,0,0,1-3.361,8.32,11.8,11.8,0,0,1-7.8,2.965,11.648,11.648,0,0,1-7.733-2.965,12.118,12.118,0,0,1-3.635-7.7,16.732,16.732,0,0,1,1.237-8.32c.673-1.514,1.9-4.081,4.491-4.838a5,5,0,0,1,5.574,1.842h.2c2.778-3.785,8.726-2.126,10.065,3a26.8,26.8,0,0,1,.964,7.7" transform="translate(-1812.016 -659.722)" fill="#ff67a0"/>
        <g id="Grupo_419" data-name="Grupo 419" transform="translate(314.278 128.946)" opacity="0.6">
          <g id="Grupo_418" data-name="Grupo 418">
            <g id="Grupo_417" data-name="Grupo 417" clip-path="url(#clip-path-20)">
              <path id="Trazado_475" data-name="Trazado 475" d="M2145.574,854.409a11.8,11.8,0,0,1-7.8,2.965,11.646,11.646,0,0,1-7.733-2.965,12.117,12.117,0,0,1-3.635-7.7c-.019-.172-.025-.345-.038-.518a16.562,16.562,0,0,0,.038,3.041,12.118,12.118,0,0,0,3.635,7.7,11.648,11.648,0,0,0,7.733,2.964,11.8,11.8,0,0,0,7.8-2.964,11.479,11.479,0,0,0,3.361-8.32,20.638,20.638,0,0,0-.03-2.1,11.276,11.276,0,0,1-3.331,7.9" transform="translate(-2126.318 -846.19)" fill="#fff"/>
            </g>
          </g>
        </g>
        <path id="Trazado_476" data-name="Trazado 476" d="M1771.173,173.515h-.054c-39.728-1.078-63.147-11.7-75.934-34.434a2.187,2.187,0,0,1-.28-1.1l1.026-78.58c0-.067.005-.135.012-.2,2.516-23.874,10.513-40.841,23.772-50.43,12.41-8.976,29.464-11.105,49.328-6.165h4.262c19.865-4.941,36.917-2.811,49.328,6.165,13.258,9.588,21.256,26.556,23.771,50.43.007.067.011.135.012.2l1.026,78.58a2.186,2.186,0,0,1-.28,1.1c-12.788,22.736-36.207,33.356-75.934,34.434h-.055m-72.108-36.077c12.045,20.946,34.321,30.758,72.108,31.793,37.787-1.035,60.063-10.847,72.108-31.793l-1.017-77.881c-2.392-22.542-9.8-38.45-22.017-47.286-11.616-8.4-27.161-10.235-46.2-5.449a2.014,2.014,0,0,1-.492.061h-4.759a2.015,2.015,0,0,1-.492-.061c-19.039-4.785-34.585-2.952-46.2,5.449-12.218,8.837-19.625,24.745-22.017,47.286Z" transform="translate(-1444.391 -0.001)" fill="#231f20"/>
        <path id="Trazado_477" data-name="Trazado 477" d="M2097.264,500.942h0a10.159,10.159,0,0,1,9.3-6.437h10.9a10.2,10.2,0,0,1,9.5,6.949l.035.1a7.738,7.738,0,0,1-2.336,8.605L2119,514.7a10.7,10.7,0,0,1-12.707.231l-6.345-4.468a7.919,7.919,0,0,1-2.976-4.364,8.388,8.388,0,0,1,.3-5.161" transform="translate(-1786.794 -419.15)" fill="#231f20"/>
        <g id="Grupo_422" data-name="Grupo 422" transform="translate(309.898 77.667)" opacity="0.3">
          <g id="Grupo_421" data-name="Grupo 421">
            <g id="Grupo_420" data-name="Grupo 420" clip-path="url(#clip-path-21)">
              <path id="Trazado_478" data-name="Trazado 478" d="M2097.264,516.12h0a10.159,10.159,0,0,1,9.3-6.437h10.9a10.2,10.2,0,0,1,9.5,6.949l.035.1a7.738,7.738,0,0,1-2.336,8.605L2119,529.881a10.7,10.7,0,0,1-12.707.231l-6.345-4.468a7.92,7.92,0,0,1-2.976-4.364,8.388,8.388,0,0,1,.3-5.161" transform="translate(-2096.692 -509.683)" fill="#231f20"/>
            </g>
          </g>
        </g>
        <path id="Trazado_479" data-name="Trazado 479" d="M2168.761,515.942c0-.762-3.063-1.38-6.841-1.38s-6.841.618-6.841,1.38,3.063,1.38,6.841,1.38,6.841-.618,6.841-1.38" transform="translate(-1836.551 -436.151)" fill="#fff"/>
        <path id="Trazado_480" data-name="Trazado 480" d="M2194.386,611.744l-.007,10.274,0,.642c0,.205,0,.456,0,.6a5.444,5.444,0,0,0,.1.975,6.082,6.082,0,0,0,.656,1.847,6.7,6.7,0,0,0,2.823,2.733l8.954,4.49,1.12.562.559.279.517.245a17.568,17.568,0,0,0,2.135.815,16.475,16.475,0,0,0,4.488.745,15.317,15.317,0,0,0,4.5-.553c.728-.225,1.447-.518,2.176-.769.68-.354,1.384-.674,2.042-1.07a15.251,15.251,0,0,0,5.961-6.924,17.449,17.449,0,0,0,.96-9.372,22.914,22.914,0,0,0-3.752-9.037l-.014-.021a.51.51,0,0,1,.124-.7.477.477,0,0,1,.644.087q.824,1,1.633,2.026l1.413,2.221c.369.8.771,1.6,1.112,2.419l.43,1.272a8.921,8.921,0,0,1,.38,1.293,18.515,18.515,0,0,1-.585,10.8,18.025,18.025,0,0,1-6.835,8.39c-.76.488-1.571.891-2.364,1.321-.836.323-1.658.68-2.513.967a18.234,18.234,0,0,1-5.339.808,19.507,19.507,0,0,1-5.342-.734,19.188,19.188,0,0,1-2.551-.919l-.619-.282-.567-.272-1.129-.544-9.038-4.352a10.152,10.152,0,0,1-4.383-4.138,9.78,9.78,0,0,1-1.065-2.948,9.19,9.19,0,0,1-.17-1.575c-.013-.288-.007-.465-.01-.689v-.642l-.008-10.274a1.781,1.781,0,1,1,3.561,0Z" transform="translate(-1867.013 -514.856)" fill="#231f20"/>
        <path id="Trazado_481" data-name="Trazado 481" d="M1965.322,611.74l-.007,10.274,0,.642c0,.224,0,.4-.009.689a9.153,9.153,0,0,1-.17,1.575,9.784,9.784,0,0,1-1.065,2.948,10.15,10.15,0,0,1-4.383,4.138l-9.038,4.352-1.129.544-.567.272-.619.282a19.187,19.187,0,0,1-2.551.919,19.5,19.5,0,0,1-5.342.734,18.236,18.236,0,0,1-5.339-.808c-.855-.287-1.677-.644-2.513-.967-.793-.43-1.6-.833-2.364-1.321a18.024,18.024,0,0,1-6.836-8.39,18.515,18.515,0,0,1-.585-10.8,8.937,8.937,0,0,1,.38-1.293l.43-1.272c.34-.823.743-1.617,1.112-2.419l1.413-2.221q.807-1.03,1.633-2.026a.475.475,0,0,1,.684-.056.511.511,0,0,1,.086.663l-.016.023a22.914,22.914,0,0,0-3.753,9.037,17.45,17.45,0,0,0,.96,9.373,15.248,15.248,0,0,0,5.961,6.924c.657.4,1.362.715,2.042,1.07.729.25,1.447.544,2.176.769a15.316,15.316,0,0,0,4.5.553,16.479,16.479,0,0,0,4.488-.745,17.564,17.564,0,0,0,2.135-.815l.517-.245.559-.279,1.12-.562,8.954-4.49a6.7,6.7,0,0,0,2.823-2.732,6.089,6.089,0,0,0,.656-1.847,5.444,5.444,0,0,0,.1-.975c.01-.14,0-.391.005-.6l0-.642-.007-10.274a1.781,1.781,0,1,1,3.561,0Z" transform="translate(-1638.146 -514.852)" fill="#231f20"/>
        <path id="Trazado_482" data-name="Trazado 482" d="M2130.771,796.8h-.019a12.849,12.849,0,0,1-8.51-3.281c-4.846-4.506-5.017-12.182-2.681-17.437.608-1.368,2.031-4.571,5.25-5.506a6.167,6.167,0,0,1,5.992,1.333,6.1,6.1,0,0,1,5.426-1.472,7.773,7.773,0,0,1,5.883,5.836c1.413,5.408,2.082,12.789-2.752,17.248a12.968,12.968,0,0,1-8.571,3.278Zm-4.089-24.048a4.4,4.4,0,0,0-1.228.18c-2.162.628-3.225,3.02-3.735,4.17-1.927,4.334-1.841,10.924,2.113,14.6a10.509,10.509,0,0,0,6.94,2.651,10.629,10.629,0,0,0,7-2.654c3.933-3.628,3.281-10.044,2.042-14.788a5.37,5.37,0,0,0-4.044-4.07,3.775,3.775,0,0,0-3.928,1.5,1.176,1.176,0,0,1-.947.485h-.2a1.176,1.176,0,0,1-.946-.485,3.745,3.745,0,0,0-3.075-1.584" transform="translate(-1805.037 -652.922)" fill="#231f20"/>
        <path id="Trazado_483" data-name="Trazado 483" d="M2198.356,784.406l-.822,8.752a.366.366,0,0,1-.729,0l-.822-8.752a1.22,1.22,0,0,1,1.072-1.342,1.2,1.2,0,0,1,1.3,1.105,1.373,1.373,0,0,1,0,.237" transform="translate(-1871.404 -663.732)" fill="#231f20"/>
        <g id="Grupo_425" data-name="Grupo 425" transform="translate(314.273 118.605)" opacity="0.3">
          <g id="Grupo_424" data-name="Grupo 424">
            <g id="Grupo_423" data-name="Grupo 423" clip-path="url(#clip-path-22)">
              <path id="Trazado_484" data-name="Trazado 484" d="M2148.91,791.091a10.828,10.828,0,0,0-3.73-6.15,10.989,10.989,0,0,0-9.018-2.132,13.637,13.637,0,0,0-7.953,5.16,7.24,7.24,0,0,0-1.708,4.125l-.119-.385a16.732,16.732,0,0,1,1.237-8.32c.673-1.514,1.9-4.081,4.491-4.838a5,5,0,0,1,5.574,1.842h.2c2.778-3.785,8.726-2.126,10.065,3a26.8,26.8,0,0,1,.964,7.7" transform="translate(-2126.289 -778.327)" fill="#231f20"/>
            </g>
          </g>
        </g>
        <path id="Trazado_485" data-name="Trazado 485" d="M2205.743,73.692c.276,2.736.4,5.471.494,8.207.073,2.736.115,5.471.09,8.207q-.012,4.1-.139,8.207c-.083,2.736-.217,5.471-.42,8.207a.4.4,0,0,1-.792,0c-.2-2.735-.337-5.471-.42-8.207s-.131-5.471-.139-8.207c-.025-2.736.017-5.471.09-8.207.1-2.736.219-5.471.494-8.207a.372.372,0,0,1,.742,0" transform="translate(-1878.591 -62.17)" fill="#231f20"/>
        <g id="Grupo_428" data-name="Grupo 428" transform="translate(252.59 15.249)" opacity="0.3">
          <g id="Grupo_427" data-name="Grupo 427">
            <g id="Grupo_426" data-name="Grupo 426" clip-path="url(#clip-path-23)">
              <path id="Trazado_486" data-name="Trazado 486" d="M1856.315,143.146c-2.152-19.911-8.322-34.015-17.425-43.076,3.487,8,5.9,18,7.028,30.16l.8,69.7a116.638,116.638,0,0,1-4.094-29.843,15.431,15.431,0,0,0-2.343,5.886l.372-3.108a108.685,108.685,0,0,0-2.253,31.123c.236,3.276.62,6.589.084,9.826a20.347,20.347,0,0,1-2.915,7.456,13.084,13.084,0,0,1-4.481,4.37c-10.691,6.278-28.1,14.14-49.224,13.7a88.666,88.666,0,0,1-18.106-2.3,92.211,92.211,0,0,1-31.835-14.369,13.509,13.509,0,0,1-5.526-8.767c0-.029-.01-.058-.014-.088-.536-3.238-.153-6.551.084-9.826a108.694,108.694,0,0,0-2.253-31.123l.371,3.107a15.427,15.427,0,0,0-2.342-5.885,116.634,116.634,0,0,1-2.594,23.677l.73-63.539c1.127-12.162,3.542-22.155,7.028-30.16-9.1,9.061-15.273,23.165-17.424,43.076l-1.026,76.622c13.709,23.767,39.33,31.613,74.192,32.536,34.862-.923,60.483-8.769,74.192-32.536Z" transform="translate(-1708.957 -100.07)" fill="#231f20"/>
            </g>
          </g>
        </g>
        <g id="Grupo_431" data-name="Grupo 431" transform="translate(287.516 95.872)" opacity="0.3">
          <g id="Grupo_430" data-name="Grupo 430">
            <g id="Grupo_429" data-name="Grupo 429" clip-path="url(#clip-path-24)">
              <path id="Trazado_487" data-name="Trazado 487" d="M1945.812,629.167l-.142.085.154-.021a.2.2,0,0,0-.093-.019l-.067.009a.188.188,0,0,0-.085.046l-.057.047-.07.058a.853.853,0,0,0-.07.059.626.626,0,0,0-.062.085l-.027.04-.027.065a.211.211,0,0,0,0,.109.138.138,0,0,0,.018.069.2.2,0,0,0,.054.088.314.314,0,0,0,.117.07.289.289,0,0,0,.2-.027l.035-.027a.721.721,0,0,0,.084-.066,1.364,1.364,0,0,0,.092-.123l.052-.072c.008-.011.017-.022.024-.033a.256.256,0,0,0,.039-.137.3.3,0,0,0-.019-.1q-.01.079-.02.158l.079-.15a.165.165,0,0,0-.024-.191.154.154,0,0,0-.185-.025" transform="translate(-1945.257 -629.147)" fill="#231f20"/>
            </g>
          </g>
        </g>
        <g id="Grupo_434" data-name="Grupo 434" transform="translate(285.194 93.454)" opacity="0.3">
          <g id="Grupo_433" data-name="Grupo 433">
            <g id="Grupo_432" data-name="Grupo 432" clip-path="url(#clip-path-25)">
              <path id="Trazado_488" data-name="Trazado 488" d="M1934.1,613.279a14.929,14.929,0,0,0-2.614,10.519,14.471,14.471,0,0,0,5.217,9.366c4.32,3.422,10.311,3.741,15.464,2.055s9.621-5.132,13.777-8.776c1.856-1.627,3.791-3.525,4.15-6.05a56.964,56.964,0,0,1-.679,10.857,5.215,5.215,0,0,1-.6,1.967,4.824,4.824,0,0,1-1.851,1.517,63.463,63.463,0,0,1-15.749,6.244,23.129,23.129,0,0,1-8.625.811,15.3,15.3,0,0,1-11.443-8.55,17.034,17.034,0,0,1,.219-14.842" transform="translate(-1929.549 -613.279)" fill="#231f20"/>
            </g>
          </g>
        </g>
        <g id="Grupo_437" data-name="Grupo 437" transform="translate(283.798 97.251)" opacity="0.3">
          <g id="Grupo_436" data-name="Grupo 436">
            <g id="Grupo_435" data-name="Grupo 435" clip-path="url(#clip-path-26)">
              <path id="Trazado_489" data-name="Trazado 489" d="M1924.767,638.2a15.2,15.2,0,0,0,2.7,20.591c5.26,4.523,11.733,3.771,15.7,3.311,3.8-.441,11.15-1.294,15.662-7.708a19.031,19.031,0,0,0,3.218-8.827,58.96,58.96,0,0,1-.7,11.243,4.809,4.809,0,0,1-.623,2.037,4.128,4.128,0,0,1-1.917,1.571,10.08,10.08,0,0,0-3.3.18c-2.819.635-3.978,2.22-6.766,3.864a28.45,28.45,0,0,1-15.177,3.263,15.847,15.847,0,0,1-11.849-8.854c-3.575-7.45-.119-14.676.227-15.369" transform="translate(-1920.1 -638.202)" fill="#231f20"/>
            </g>
          </g>
        </g>
        <g id="Grupo_440" data-name="Grupo 440" transform="translate(325.391 93.454)" opacity="0.3">
          <g id="Grupo_439" data-name="Grupo 439">
            <g id="Grupo_438" data-name="Grupo 438" clip-path="url(#clip-path-25)">
              <path id="Trazado_490" data-name="Trazado 490" d="M2237.537,613.279a14.933,14.933,0,0,1,2.614,10.519,14.471,14.471,0,0,1-5.218,9.366c-4.32,3.422-10.311,3.741-15.463,2.055s-9.621-5.132-13.777-8.776c-1.856-1.627-3.791-3.525-4.151-6.05a56.964,56.964,0,0,0,.679,10.857,5.214,5.214,0,0,0,.6,1.967,4.825,4.825,0,0,0,1.851,1.517,63.468,63.468,0,0,0,15.749,6.244,23.129,23.129,0,0,0,8.625.811,15.3,15.3,0,0,0,11.443-8.55,17.033,17.033,0,0,0-.219-14.842" transform="translate(-2201.511 -613.279)" fill="#231f20"/>
            </g>
          </g>
        </g>
        <g id="Grupo_443" data-name="Grupo 443" transform="translate(325.339 98.399)" opacity="0.3">
          <g id="Grupo_442" data-name="Grupo 442">
            <g id="Grupo_441" data-name="Grupo 441" clip-path="url(#clip-path-28)">
              <path id="Trazado_491" data-name="Trazado 491" d="M2238.883,645.726a14.419,14.419,0,0,1,2.738,10.519,14.679,14.679,0,0,1-5.464,9.366c-5.217,4.282-11.525,3.459-16.034,2.871-4.307-.562-11.557-1.508-15.935-7.813a18.421,18.421,0,0,1-3-7.828,54.437,54.437,0,0,0,.711,10.857,6.013,6.013,0,0,0,.63,1.967c.3.56.621,1.157,1.214,1.347,1.039.332,2.08-.849,2.127-.9a42.5,42.5,0,0,0,15.089,7.317,22.3,22.3,0,0,0,9.032.811,15.971,15.971,0,0,0,11.983-8.55c3.411-6.789.333-13.663-.187-14.755l-.042-.086" transform="translate(-2201.158 -645.727)" fill="#231f20"/>
            </g>
          </g>
        </g>
        <path id="Trazado_492" data-name="Trazado 492" d="M2105.958,990.951c-12.9,10.8-27.767,10.17-40.318,0Z" transform="translate(-1760.331 -839.946)" fill="#fbb67f"/>
        <path id="Trazado_493" data-name="Trazado 493" d="M2063.2,987.766a45.065,45.065,0,0,0,9.543,5.055,29.843,29.843,0,0,0,10.33,1.946,29.5,29.5,0,0,0,10.323-1.875,43.072,43.072,0,0,0,9.5-5.1l0,0a.475.475,0,0,1,.672.137.511.511,0,0,1-.068.639,31.292,31.292,0,0,1-9.329,6.386,29.032,29.032,0,0,1-5.43,1.768c-.93.219-1.886.29-2.83.44-.949.1-1.907.108-2.862.147a27.824,27.824,0,0,1-11.1-2.432,33.015,33.015,0,0,1-9.388-6.284.536.536,0,0,1-.03-.74.5.5,0,0,1,.653-.083Z" transform="translate(-1757.58 -837.172)" fill="#231f20"/>
        <g id="Grupo_446" data-name="Grupo 446" transform="translate(239.533 140.402)" opacity="0.2">
          <g id="Grupo_445" data-name="Grupo 445">
            <g id="Grupo_444" data-name="Grupo 444" clip-path="url(#clip-path-29)">
              <path id="Trazado_494" data-name="Trazado 494" d="M1790.532,938.246a82.9,82.9,0,0,0,5.379-16.881h-1.439a82.868,82.868,0,0,1-4.279,11.725l-11.755,10.53.611.438a12.541,12.541,0,0,1,.2,2.2,13.366,13.366,0,0,1-3.435,8.846c-14.125,15.91-35.235,28.836-63.72,36.607a14.563,14.563,0,0,1-7.644,0c-28.449-7.762-49.54-20.664-63.664-36.546a13.427,13.427,0,0,1-3.438-8.548,12.624,12.624,0,0,1,.193-2.56l.611-.438-11.837-10.6a82.951,82.951,0,0,1-4.246-11.652h-1.44a82.947,82.947,0,0,0,5.491,17.133,31.78,31.78,0,0,0,4.877,10.08c.777,1.092,1.609,2.135,2.476,3.148,13.671,20.16,37.116,36.677,70.977,45.915a14.559,14.559,0,0,0,7.644,0c33.677-9.188,57.051-25.578,70.753-45.59.968-1.112,1.89-2.265,2.749-3.473a31.625,31.625,0,0,0,4.941-10.332" transform="translate(-1620.623 -921.366)" fill="#231f20"/>
            </g>
          </g>
        </g>
        <path id="Trazado_495" data-name="Trazado 495" d="M2547.652,56.373a23.728,23.728,0,0,1,13.384-1.261c2.651.553,7.267,2.032,13.533,8.2a70.5,70.5,0,0,1,14.122,20.909,109.789,109.789,0,0,0,14.239,23.39c17.814,22.059,8.522,36.932-3.183,60.8a27.015,27.015,0,0,0-2.683,13.074c.211,4.773.1,9.023-.748,11.984a5.223,5.223,0,0,1-5.915,3.781c-29.253-5.191-41.256-46.506-26.6-89.974a46.959,46.959,0,0,0,2.443-16.84,44.176,44.176,0,0,0-3.953-16.745,42.272,42.272,0,0,0-14.635-17.318" transform="translate(-2171.1 -46.323)" fill="#a15f43"/>
        <g id="Grupo_449" data-name="Grupo 449" transform="translate(376.552 8.328)" opacity="0.6">
          <g id="Grupo_448" data-name="Grupo 448">
            <g id="Grupo_447" data-name="Grupo 447" clip-path="url(#clip-path-30)">
              <path id="Trazado_496" data-name="Trazado 496" d="M2592.45,193.536c.845-2.909.959-7.084.748-11.773a26.147,26.147,0,0,1,2.683-12.844c11.706-23.449,21-38.06,3.183-59.731a107.507,107.507,0,0,1-14.24-22.978A69.2,69.2,0,0,0,2570.7,65.67c-6.266-6.059-10.883-7.513-13.533-8.056a22.811,22.811,0,0,0-8.029-.18c-.548-.408-1.051-.764-1.489-1.061a23.728,23.728,0,0,1,13.384-1.261c2.651.553,7.267,2.032,13.533,8.2a70.493,70.493,0,0,1,14.122,20.909,109.789,109.789,0,0,0,14.239,23.39c17.814,22.059,8.522,36.932-3.183,60.8a27.016,27.016,0,0,0-2.683,13.074c.211,4.773.1,9.023-.748,11.984a5.223,5.223,0,0,1-5.915,3.781c-.4-.071-.8-.153-1.2-.238a5.232,5.232,0,0,0,3.247-3.475" transform="translate(-2547.652 -54.651)" fill="#fff"/>
            </g>
          </g>
        </g>
        <path id="Trazado_497" data-name="Trazado 497" d="M2579.325,187.587a7.161,7.161,0,0,1-1.252-.11c-10.9-1.933-19.913-8.649-26.076-19.42-10.587-18.5-11.386-45.93-2.138-73.366a44.532,44.532,0,0,0,2.33-16.049,41.912,41.912,0,0,0-3.755-15.916,40.084,40.084,0,0,0-13.9-16.446,2.166,2.166,0,0,1-.922-2.027,2.131,2.131,0,0,1,1.333-1.767,25.678,25.678,0,0,1,14.527-1.356c4.837,1.009,9.6,3.871,14.555,8.75a71.971,71.971,0,0,1,14.566,21.544,107.944,107.944,0,0,0,13.957,22.933c17.577,21.765,9.883,37.286-.767,58.767q-1.059,2.137-2.158,4.37a24.839,24.839,0,0,0-2.462,12.01c.255,5.777-.008,9.808-.83,12.686a7.339,7.339,0,0,1-7.008,5.4m-39-142.241a44.308,44.308,0,0,1,11.868,15.545,46.282,46.282,0,0,1,4.151,17.574,48.9,48.9,0,0,1-2.557,17.631c-8.721,25.871-8.034,52.611,1.792,69.785,5.523,9.654,13.547,15.662,23.2,17.375a3.151,3.151,0,0,0,3.57-2.275c.678-2.376.9-6.066.665-11.282a29.247,29.247,0,0,1,2.9-14.137q1.1-2.244,2.167-4.387c10.661-21.5,17.1-34.485,1.273-54.077a112.22,112.22,0,0,1-14.521-23.846,67.737,67.737,0,0,0-13.677-20.273c-6.5-6.4-11.023-7.34-12.51-7.65a20.731,20.731,0,0,0-8.328.019" transform="translate(-2159.124 -34.44)" fill="#231f20"/>
        <g id="Grupo_452" data-name="Grupo 452" transform="translate(381.311 8.357)" opacity="0.3">
          <g id="Grupo_451" data-name="Grupo 451">
            <g id="Grupo_450" data-name="Grupo 450" clip-path="url(#clip-path-31)">
              <path id="Trazado_498" data-name="Trazado 498" d="M2592.23,73.635a40.494,40.494,0,0,0-12.381-17.124,18.653,18.653,0,0,1,6.653-1.675c-.719.244-1.35.5-1.872.739A40.491,40.491,0,0,1,2597.01,72.7a49.887,49.887,0,0,1,3.344,16.556,53.7,53.7,0,0,1-2.067,16.651,134.916,134.916,0,0,0-4.944,27.055q.055,2.424.142,4.848c.27,7.414.806,14.972,3.183,21.784,1.433,4.108,5.244,13.516,12.73,14.553,7.624,1.056,13.708-7.39,14.283-8.213l.782-.955a25.394,25.394,0,0,0-3.42,12.111c-.018,1.794.181,3.847.289,10.784.037,2.342.046,5.886-1.854,7.056a2.448,2.448,0,0,1-.492.229,3.805,3.805,0,0,1-2.973.647c-24.746-5.132-34.9-45.983-22.506-88.962a53.7,53.7,0,0,0,2.067-16.651,49.88,49.88,0,0,0-3.344-16.556" transform="translate(-2579.849 -54.837)" fill="#231f20"/>
            </g>
          </g>
        </g>
        <path id="Trazado_499" data-name="Trazado 499" d="M1496.778,56.373a23.729,23.729,0,0,0-13.385-1.261c-2.651.553-7.267,2.032-13.533,8.2a70.5,70.5,0,0,0-14.122,20.909,109.785,109.785,0,0,1-14.239,23.39c-17.814,22.059-8.523,36.932,3.183,60.8a27.015,27.015,0,0,1,2.683,13.074c-.211,4.773-.1,9.023.748,11.984a5.223,5.223,0,0,0,5.915,3.781c29.252-5.191,41.256-46.506,26.6-89.974a46.962,46.962,0,0,1-2.443-16.84,44.176,44.176,0,0,1,3.953-16.745,42.27,42.27,0,0,1,14.635-17.318" transform="translate(-1219.964 -46.323)" fill="#a15f43"/>
        <g id="Grupo_455" data-name="Grupo 455" transform="translate(211.588 8.328)" opacity="0.6">
          <g id="Grupo_454" data-name="Grupo 454">
            <g id="Grupo_453" data-name="Grupo 453" clip-path="url(#clip-path-30)">
              <path id="Trazado_500" data-name="Trazado 500" d="M1451.98,193.536c-.845-2.909-.959-7.084-.748-11.773a26.146,26.146,0,0,0-2.683-12.844c-11.706-23.449-21-38.06-3.183-59.731a107.525,107.525,0,0,0,14.239-22.978,69.205,69.205,0,0,1,14.122-20.541c6.266-6.059,10.882-7.513,13.533-8.056a22.811,22.811,0,0,1,8.029-.18c.548-.408,1.051-.764,1.489-1.061a23.729,23.729,0,0,0-13.384-1.261c-2.651.553-7.267,2.032-13.533,8.2a70.5,70.5,0,0,0-14.122,20.909,109.79,109.79,0,0,1-14.239,23.39c-17.814,22.059-8.523,36.932,3.183,60.8a27.017,27.017,0,0,1,2.683,13.074c-.211,4.773-.1,9.023.748,11.984a5.223,5.223,0,0,0,5.915,3.781c.4-.071.8-.153,1.2-.238a5.232,5.232,0,0,1-3.247-3.475" transform="translate(-1431.552 -54.651)" fill="#fff"/>
            </g>
          </g>
        </g>
        <path id="Trazado_501" data-name="Trazado 501" d="M1441.135,187.584a7.338,7.338,0,0,1-7.008-5.4c-.822-2.877-1.085-6.909-.83-12.686a24.84,24.84,0,0,0-2.461-12.01q-1.1-2.235-2.158-4.369c-10.651-21.481-18.346-37-.768-58.768a107.9,107.9,0,0,0,13.957-22.933,71.975,71.975,0,0,1,14.566-21.544c4.957-4.879,9.718-7.741,14.556-8.75a25.67,25.67,0,0,1,14.527,1.356,2.131,2.131,0,0,1,1.333,1.767,2.166,2.166,0,0,1-.922,2.026,40.091,40.091,0,0,0-13.9,16.446,41.925,41.925,0,0,0-3.755,15.916,44.513,44.513,0,0,0,2.33,16.049c9.248,27.436,8.449,54.863-2.138,73.367-6.163,10.771-15.18,17.487-26.076,19.42a7.171,7.171,0,0,1-1.252.111m34.733-142.673a19.824,19.824,0,0,0-4.057.413c-1.487.31-6.012,1.254-12.511,7.65a67.74,67.74,0,0,0-13.677,20.273A112.2,112.2,0,0,1,1431.1,97.094c-15.823,19.593-9.387,32.573,1.274,54.079q1.063,2.144,2.167,4.386a29.247,29.247,0,0,1,2.9,14.137c-.23,5.216-.013,8.906.666,11.281a3.152,3.152,0,0,0,3.57,2.275c9.656-1.713,17.679-7.722,23.2-17.375,9.826-17.174,10.513-43.914,1.792-69.784a48.908,48.908,0,0,1-2.556-17.631,46.278,46.278,0,0,1,4.151-17.574,44.317,44.317,0,0,1,11.869-15.545,21.666,21.666,0,0,0-4.272-.432" transform="translate(-1207.971 -34.437)" fill="#231f20"/>
        <g id="Grupo_458" data-name="Grupo 458" transform="translate(227.44 8.357)" opacity="0.3">
          <g id="Grupo_457" data-name="Grupo 457">
            <g id="Grupo_456" data-name="Grupo 456" clip-path="url(#clip-path-31)">
              <path id="Trazado_502" data-name="Trazado 502" d="M1571.035,73.635a40.5,40.5,0,0,1,12.381-17.124,18.65,18.65,0,0,0-6.653-1.675c.718.244,1.35.5,1.872.739A40.489,40.489,0,0,0,1566.254,72.7a49.887,49.887,0,0,0-3.344,16.556,53.718,53.718,0,0,0,2.067,16.651,134.916,134.916,0,0,1,4.944,27.055q-.055,2.424-.141,4.848c-.27,7.414-.806,14.972-3.183,21.784-1.433,4.108-5.244,13.516-12.73,14.553-7.624,1.056-13.708-7.39-14.283-8.213l-.782-.955a25.394,25.394,0,0,1,3.421,12.111c.018,1.794-.181,3.847-.289,10.784-.037,2.342-.046,5.886,1.854,7.056a2.44,2.44,0,0,0,.492.229,3.806,3.806,0,0,0,2.973.647c24.746-5.132,34.9-45.983,22.506-88.962a53.71,53.71,0,0,1-2.067-16.651,49.893,49.893,0,0,1,3.344-16.556" transform="translate(-1538.801 -54.837)" fill="#231f20"/>
            </g>
          </g>
        </g>
        <path id="Trazado_503" data-name="Trazado 503" d="M1945.3,298.372c-6.021-1.6-12.333,4.734-14.1,14.138s1.687,18.322,7.708,19.918,12.333-4.733,14.1-14.138-1.687-18.322-7.708-19.918" transform="translate(-1645.368 -252.696)" fill="#231f20"/>
        <path id="Trazado_504" data-name="Trazado 504" d="M2008.026,325c-2.024.578-3.171,3.7-2.563,6.963s2.741,5.449,4.764,4.871,3.171-3.7,2.563-6.963-2.741-5.449-4.764-4.871" transform="translate(-1708.91 -275.4)" fill="#fff"/>
        <path id="Trazado_505" data-name="Trazado 505" d="M1960.6,452.408c-.989.593-1.273,2.365-.635,3.958s1.957,2.4,2.946,1.81,1.273-2.365.635-3.957-1.957-2.4-2.946-1.81" transform="translate(-1669.987 -383.304)" fill="#b199c5"/>
        <path id="Trazado_506" data-name="Trazado 506" d="M2343.906,298.372c6.022-1.6,12.333,4.734,14.1,14.138s-1.687,18.322-7.708,19.918-12.333-4.733-14.1-14.138,1.687-18.322,7.708-19.918" transform="translate(-1990.507 -252.696)" fill="#231f20"/>
        <path id="Trazado_507" data-name="Trazado 507" d="M2368.1,325c2.023.578,3.171,3.7,2.563,6.963s-2.741,5.449-4.764,4.871-3.171-3.7-2.563-6.963,2.741-5.449,4.764-4.871" transform="translate(-2013.886 -275.4)" fill="#fff"/>
        <path id="Trazado_508" data-name="Trazado 508" d="M2435.075,452.408c.989.593,1.273,2.365.635,3.958s-1.957,2.4-2.946,1.81-1.272-2.365-.634-3.957,1.957-2.4,2.946-1.81" transform="translate(-2072.361 -383.304)" fill="#b199c5"/>
        <path id="Trazado_509" data-name="Trazado 509" d="M2218.216,1280.763c-.648-.123-1.31-.2-1.94-.38a4.153,4.153,0,0,0-2.678.063,5.394,5.394,0,0,1-3.944.027,3.379,3.379,0,0,1-1.673-5.123,6.656,6.656,0,0,1,1.149-1.37,11.338,11.338,0,0,0,2.158-2.721,3.84,3.84,0,0,1,3.492-2.112,3.787,3.787,0,0,1,3.522,2.1,6.9,6.9,0,0,0,2.113,2.432,4.606,4.606,0,0,1,1.7,2.2,3.308,3.308,0,0,1-1.355,4.1,4.826,4.826,0,0,1-2.526.705c-.005.027-.01.054-.015.082" transform="translate(-1881.131 -1075.748)" fill="#fff"/>
        <path id="Trazado_510" data-name="Trazado 510" d="M2217.374,1198.561a5.373,5.373,0,0,1-.381,2.653,4.584,4.584,0,0,1-.8,1.214,2.331,2.331,0,0,1-3.7-.338,4.323,4.323,0,0,1-.726-4.007,6.283,6.283,0,0,1,2.251-3.231,3.508,3.508,0,0,1,.924-.5,1.273,1.273,0,0,1,1.607.581,4.99,4.99,0,0,1,.658,2.038c.078.525.115,1.057.17,1.586" transform="translate(-1884.681 -1012.276)" fill="#fff"/>
        <path id="Trazado_511" data-name="Trazado 511" d="M2260.813,1197.965c.117-.892.2-1.79.365-2.673a3.35,3.35,0,0,1,.452-1.089,1.214,1.214,0,0,1,1.412-.577,3.725,3.725,0,0,1,1.8,1.113,5.852,5.852,0,0,1,1.8,3.23,4.266,4.266,0,0,1-.989,3.6,2.375,2.375,0,0,1-3.882-.258,4.542,4.542,0,0,1-.86-2.4c-.025-.312-.015-.627-.021-.941l-.076-.01" transform="translate(-1926.657 -1011.7)" fill="#fff"/>
        <path id="Trazado_512" data-name="Trazado 512" d="M2303.128,1242.781a4.074,4.074,0,0,1-1.871,3.779,2.175,2.175,0,0,1-3.43-1.514,3.882,3.882,0,0,1,.076-2.026,8.264,8.264,0,0,1,1.648-3.032,3.2,3.2,0,0,1,.746-.621,1.214,1.214,0,0,1,1.572.2,4.307,4.307,0,0,1,1.141,2.355c.063.306.087.62.118.855" transform="translate(-1958.116 -1050.338)" fill="#fff"/>
        <path id="Trazado_513" data-name="Trazado 513" d="M2185.059,1246.712a9.972,9.972,0,0,1-.3,1.319,2.084,2.084,0,0,1-2.857,1.237,4.052,4.052,0,0,1-2.341-3.834,5.684,5.684,0,0,1,.6-2.549,3.523,3.523,0,0,1,.46-.671,1.267,1.267,0,0,1,1.718-.3,2.228,2.228,0,0,1,.493.361,7.8,7.8,0,0,1,2.091,3.716,6.354,6.354,0,0,1,.089.705l.049.016" transform="translate(-1857.411 -1052.489)" fill="#fff"/>
        <path id="Trazado_514" data-name="Trazado 514" d="M1360.632,1984.9a142.563,142.563,0,0,1,11.328,9.069q5.43,4.754,10.55,9.8l-6.549,1.336c.359-1.328.768-2.75,1.18-4.052,4.522-14.111,11.875-29.495,22.613-39.657,3.173-2.9,6.829-5.542,11.017-6.58a10.881,10.881,0,0,1,4.2-.238c-6.586,3.062-11.011,11.432-14.521,17.644-5.814,10.81-11.895,24.383-17.163,35.611l-.3.634a3.662,3.662,0,0,1-6.254.7q-4.368-5.747-8.443-11.769c-2.707-4.042-5.362-8.183-7.665-12.5" transform="translate(-1159.526 -1656.635)" fill="#fff"/>
      </g>
    </g>
  </g>
</svg>
