<svg xmlns="http://www.w3.org/2000/svg" width="21.294" height="19.963" viewBox="0 0 21.294 19.963">
  <path id="raza" d="M20.629,4.912H17.967l-.3-.6a1.331,1.331,0,0,0-1.19-.736h-2.23L13.114,2.446a.666.666,0,0,0-1.136.47V9.149l5.324,1.9V9.57h1.331a2.662,2.662,0,0,0,2.662-2.662V5.577A.665.665,0,0,0,20.629,4.912Zm-4.658,2a.665.665,0,1,1,.665-.665A.665.665,0,0,1,15.971,6.908ZM3.993,10.235A1.333,1.333,0,0,1,2.662,8.9,1.331,1.331,0,0,0,0,8.9a3.986,3.986,0,0,0,2.662,3.747v8.9a.665.665,0,0,0,.665.665H5.989a.665.665,0,0,0,.665-.665V16.89h6.655v4.658a.665.665,0,0,0,.665.665h2.662a.665.665,0,0,0,.665-.665V12.463l-6.237-2.227Z" transform="translate(0 -2.25)" fill="#afdce2"/>
</svg>
