<svg xmlns="http://www.w3.org/2000/svg" width="21.315" height="21.501" viewBox="0 0 21.315 21.501">
  <path id="sexo_del_perro" data-name="sexo del perro" d="M8232.96-3974.259a4.736,4.736,0,0,1-.124-6.218,4.753,4.753,0,0,1,6.456-.778c1.209-1.208,2.4-2.406,3.608-3.611-.056,0-.113-.01-.171-.01-.212,0-.423,0-.634,0q-.422,0-.844,0a.683.683,0,0,1-.719-.668.673.673,0,0,1,.708-.679c1.1,0,2.208,0,3.311,0a.668.668,0,0,1,.706.7c0,1.105,0,2.208,0,3.311a.675.675,0,0,1-.677.71.677.677,0,0,1-.67-.716c0-.546,0-1.094,0-1.6l-3.6,3.6a4.664,4.664,0,0,1,.722,4.045,4.563,4.563,0,0,1-1.914,2.663,4.73,4.73,0,0,1-2.652.811A4.7,4.7,0,0,1,8232.96-3974.259Zm.149-3.17a3.376,3.376,0,0,0,3.4,3.35,3.38,3.38,0,0,0,3.349-3.365,3.381,3.381,0,0,0-3.351-3.383h0A3.376,3.376,0,0,0,8233.109-3977.429Zm-7.922-2.247a.678.678,0,0,1,.046-.979c.429-.435.86-.865,1.318-1.32-.331-.325-.656-.633-.969-.954a.624.624,0,0,1-.157-.681.643.643,0,0,1,.513-.449.666.666,0,0,1,.632.215c.3.3.6.606.888.892.84-.838,1.668-1.666,2.51-2.508a4.682,4.682,0,0,1-.749-4,4.611,4.611,0,0,1,1.947-2.738,4.741,4.741,0,0,1,6.127.743,4.736,4.736,0,0,1,.137,6.233,4.761,4.761,0,0,1-6.483.76c-.3.3-.581.585-.871.873-.536.536-1.076,1.07-1.635,1.626l.95.944a.658.658,0,0,1,.192.675.669.669,0,0,1-1.126.3c-.318-.308-.625-.629-.947-.958-.062.056-.114.1-.162.147-.389.387-.773.778-1.165,1.163a.752.752,0,0,1-.524.23A.651.651,0,0,1,8225.188-3979.676Zm5.219-8.6a3.377,3.377,0,0,0,3.356,3.4,3.375,3.375,0,0,0,3.394-3.381,3.377,3.377,0,0,0-3.387-3.367h0A3.38,3.38,0,0,0,8230.406-3988.276Z" transform="translate(-8224.442 3993.705)" fill="#afdce2" stroke="rgba(0,0,0,0)" stroke-width="1"/>
</svg>
